<?xml version="1.0" encoding="UTF-8" standalone="no"?>
<!DOCTYPE svg PUBLIC "-//W3C//DTD SVG 1.1//EN" "http://www.w3.org/Graphics/SVG/1.1/DTD/svg11.dtd">
<svg width="100%" height="100%" viewBox="0 0 24 24" version="1.1" xmlns="http://www.w3.org/2000/svg" xmlns:xlink="http://www.w3.org/1999/xlink" xml:space="preserve" xmlns:serif="http://www.serif.com/" style="fill-rule:evenodd;clip-rule:evenodd;stroke-linecap:round;stroke-linejoin:round;">
    <g transform="matrix(0.0875777,0,0,0.0875777,0.790055,0.790055)">
        <path d="M152,96L232,136L232,168L152,152L152,184L168,200L168,232L128,216L88,232L88,200L104,184L104,152L24,168L24,136L104,96L104,48C104,34.834 114.834,24 128,24C141.166,24 152,34.834 152,48L152,96Z" style="fill:rgb(127,204,231);"/>
    </g>
    <g transform="matrix(0.0875777,0,0,0.0875777,0.790055,0.790055)">
        <path d="M194.596,189.631C195.873,192.905 196.546,196.418 196.546,200L196.546,232C196.546,241.472 191.847,250.328 184.004,255.638C176.16,260.949 166.193,262.022 157.398,258.504L128,246.745L98.602,258.504C89.807,262.022 79.84,260.949 71.996,255.638C64.153,250.328 59.454,241.472 59.454,232L59.454,200C59.454,196.418 60.127,192.905 61.404,189.631L29.598,195.992C21.212,197.669 12.516,195.498 5.902,190.076C-0.712,184.654 -4.546,176.552 -4.546,168L-4.546,136C-4.546,125.188 1.563,115.303 11.234,110.468L75.454,78.358L75.454,48L76.537,37.406L79.636,27.508L84.495,18.601L90.878,10.878L98.601,4.495L107.508,-0.364L117.406,-3.463L128,-4.546L138.594,-3.463L148.492,-0.364L157.399,4.495L165.122,10.878L171.505,18.601L176.364,27.508L179.463,37.406L180.546,48L180.546,78.358L244.766,110.468C254.437,115.303 260.546,125.188 260.546,136L260.546,168C260.546,176.552 256.712,184.654 250.098,190.076C243.484,195.498 234.788,197.669 226.402,195.992L194.596,189.631ZM152,96L152,48C152,34.834 141.166,24 128,24C114.834,24 104,34.834 104,48L104,96L24,136L24,168L104,152L104,184L88,200L88,232L128,216L168,232L168,200L152,184L152,152L232,168L232,136L152,96Z" style="fill:rgb(127,204,231);"/>
    </g>
    <g transform="matrix(0.0875777,0,0,0.0875777,0.790055,0.790055)">
        <path d="M152,96L232,136L232,168L152,152L152,184L168,200L168,232L128,216L88,232L88,200L104,184L104,152L24,168L24,136L104,96L104,48C104,34.834 114.834,24 128,24C141.166,24 152,34.834 152,48L152,96Z" style="fill-opacity:0.2;fill-rule:nonzero;"/>
        <path d="M152,96L232,136L232,168L152,152L152,184L168,200L168,232L128,216L88,232L88,200L104,184L104,152L24,168L24,136L104,96L104,48C104,34.834 114.834,24 128,24C141.166,24 152,34.834 152,48L152,96Z" style="fill:none;fill-rule:nonzero;stroke:black;stroke-width:16px;"/>
    </g>
</svg>
