<?xml version="1.0" encoding="UTF-8" standalone="no"?>
<!DOCTYPE svg PUBLIC "-//W3C//DTD SVG 1.1//EN" "http://www.w3.org/Graphics/SVG/1.1/DTD/svg11.dtd">
<svg width="100%" height="100%" viewBox="0 0 24 24" version="1.1" xmlns="http://www.w3.org/2000/svg" xmlns:xlink="http://www.w3.org/1999/xlink" xml:space="preserve" xmlns:serif="http://www.serif.com/" style="fill-rule:evenodd;clip-rule:evenodd;stroke-linejoin:round;stroke-miterlimit:2;">
    <g transform="matrix(0.0884952,0,0,0.0884952,1.31495,0.584077)">
        <path d="M152,80C134.445,80 120,65.555 120,48C120,30.445 134.445,16 152,16C169.555,16 184,30.445 184,48C184,65.555 169.555,80 152,80ZM200,144L200,232C200,236.389 196.389,240 192,240C187.611,240 184,236.389 184,232L184,151.66C158.25,149.41 149.65,136.14 142,124.3C139.15,119.91 136.44,115.73 132.87,112.11L119.47,142.92L156.67,169.49C158.763,170.995 160.005,173.422 160,176L160,232C160,236.389 156.389,240 152,240C147.611,240 144,236.389 144,232L144,180.12L112.93,157.92L79.34,235.19C78.072,238.106 75.18,240.001 72,240C70.902,240.003 69.815,239.774 68.81,239.33C64.788,237.581 62.915,232.834 64.66,228.81L122.19,96.5C123.458,93.586 126.348,91.692 129.526,91.692C130.8,91.692 132.057,91.996 133.19,92.58C136.064,94.08 138.749,95.916 141.19,98.05C147.56,103.57 151.7,109.96 155.35,115.6C163.03,127.44 168.58,136 191.95,136L192,136C196.389,136 200,139.611 200,144ZM72,152C70.92,151.997 69.852,151.776 68.86,151.35L40.86,139.35C36.829,137.621 34.934,132.882 36.66,128.85L60.66,72.85C62.389,68.819 67.128,66.924 71.16,68.65L99.16,80.65C103.191,82.379 105.086,87.118 103.36,91.15L79.36,147.15C78.101,150.089 75.197,152.003 72,152Z" style="fill:rgb(152,227,137);stroke:rgb(152,227,137);stroke-width:39.55px;"/>
    </g>
    <g>
        <g transform="matrix(0.0884952,0,0,0.0884952,1.31495,0.584077)">
            <path d="M176,48C176,61.166 165.166,72 152,72C138.834,72 128,61.166 128,48C128,34.834 138.834,24 152,24C165.166,24 176,34.834 176,48ZM44,132L72,144L96,88L68,76L44,132Z" style="fill-opacity:0.2;fill-rule:nonzero;"/>
        </g>
        <g transform="matrix(0.0884952,0,0,0.0884952,1.31495,0.584077)">
            <path d="M152,80C169.555,80 184,65.555 184,48C184,30.445 169.555,16 152,16C134.445,16 120,30.445 120,48C120,65.555 134.445,80 152,80ZM152,32C160.777,32 168,39.223 168,48C168,56.777 160.777,64 152,64C143.223,64 136,56.777 136,48C136,39.223 143.223,32 152,32ZM200,144C200,144 200,232 200,232C200,236.389 196.389,240 192,240C187.611,240 184,236.389 184,232L184,151.66C158.25,149.41 149.65,136.14 142,124.3C139.15,119.91 136.44,115.73 132.87,112.11L119.47,142.92L156.67,169.49C158.763,170.995 160.005,173.422 160,176L160,232C160,236.389 156.389,240 152,240C147.611,240 144,236.389 144,232L144,180.12L112.93,157.92L79.34,235.19C78.072,238.106 75.18,240.001 72,240C70.902,240.003 69.815,239.774 68.81,239.33C64.788,237.581 62.915,232.834 64.66,228.81L122.19,96.5C123.458,93.586 126.348,91.692 129.526,91.692C130.8,91.692 132.057,91.996 133.19,92.58C136.064,94.08 138.749,95.916 141.19,98.05C147.56,103.57 151.7,109.96 155.35,115.6C163.03,127.44 168.58,136 191.95,136C191.967,136 191.983,136 192,136C196.389,136 200,139.611 200,144ZM72,152C75.197,152.003 78.101,150.089 79.36,147.15L103.36,91.15C105.086,87.118 103.191,82.379 99.16,80.65L71.16,68.65C67.128,66.924 62.389,68.819 60.66,72.85L36.66,128.85C34.934,132.882 36.829,137.621 40.86,139.35L68.86,151.35C69.852,151.776 70.92,151.997 72,152ZM54.51,127.8L72.2,86.5L85.5,92.2L67.8,133.49L54.51,127.8Z" style="fill-rule:nonzero;"/>
        </g>
    </g>
</svg>
