<?xml version="1.0" encoding="UTF-8" standalone="no"?>
<!DOCTYPE svg PUBLIC "-//W3C//DTD SVG 1.1//EN" "http://www.w3.org/Graphics/SVG/1.1/DTD/svg11.dtd">
<svg width="100%" height="100%" viewBox="0 0 24 24" version="1.1" xmlns="http://www.w3.org/2000/svg" xmlns:xlink="http://www.w3.org/1999/xlink" xml:space="preserve" xmlns:serif="http://www.serif.com/" style="fill-rule:evenodd;clip-rule:evenodd;stroke-linejoin:round;stroke-miterlimit:2;">
    <g transform="matrix(0.0860431,0,0,0.0860431,0.694273,1.2787)">
        <path d="M197.58,129.06L197.62,129.12C203.866,131.419 208.041,137.404 208.041,144.06C208.041,150.716 203.866,156.701 197.62,159L146,178L126.88,229.62C124.581,235.866 118.596,240.041 111.94,240.041C105.284,240.041 99.299,235.866 97,229.62L78,178L26.38,158.88C20.134,156.581 15.959,150.596 15.959,143.94C15.959,137.284 20.134,131.299 26.38,129L78,110L97.12,58.38C99.419,52.134 105.404,47.959 112.06,47.959C118.716,47.959 124.701,52.134 127,58.38L146,110L197.58,129.06ZM144,40C144,35.611 147.611,32 152,32L168,32L168,16C168,11.611 171.611,8 176,8C180.389,8 184,11.611 184,16L184,32L200,32C204.389,32 208,35.611 208,40C208,44.389 204.389,48 200,48L184,48L184,64C184,68.389 180.389,72 176,72C171.611,72 168,68.389 168,64L168,48L152,48C147.611,48 144,44.389 144,40ZM248,88C248,92.389 244.389,96 240,96L232,96L232,104C232,108.389 228.389,112 224,112C219.611,112 216,108.389 216,104L216,96L208,96C203.611,96 200,92.389 200,88C200,83.611 203.611,80 208,80L216,80L216,72C216,67.611 219.611,64 224,64C228.389,64 232,67.611 232,72L232,80L240,80C244.389,80 248,83.611 248,88Z" style="fill:rgb(255,250,104);stroke:rgb(255,250,104);stroke-width:40.68px;"/>
    </g>
    <g transform="matrix(0.688345,0,0,0.688345,0.694273,1.2787)">
        <g transform="matrix(0.125,0,0,0.125,0,0)">
            <path d="M194.82,151.43L139.73,171.73L119.43,226.82C118.284,229.924 115.309,231.997 112,231.997C108.691,231.997 105.716,229.924 104.57,226.82L84.27,171.73L29.18,151.43C26.076,150.284 24.003,147.309 24.003,144C24.003,140.691 26.076,137.716 29.18,136.57L84.27,116.27L104.57,61.18C105.716,58.076 108.691,56.003 112,56.003C115.309,56.003 118.284,58.076 119.43,61.18L139.73,116.27L194.82,136.57C197.924,137.716 199.997,140.691 199.997,144C199.997,147.309 197.924,150.284 194.82,151.43Z" style="fill-opacity:0.2;fill-rule:nonzero;"/>
        </g>
        <g transform="matrix(0.125,0,0,0.125,0,0)">
            <path d="M197.58,129.06L146,110L127,58.38C124.701,52.134 118.716,47.959 112.06,47.959C105.404,47.959 99.419,52.134 97.12,58.38L78,110L26.38,129C20.134,131.299 15.959,137.284 15.959,143.94C15.959,150.596 20.134,156.581 26.38,158.88L78,178L97,229.62C99.299,235.866 105.284,240.041 111.94,240.041C118.596,240.041 124.581,235.866 126.88,229.62L146,178L197.62,159C203.866,156.701 208.041,150.716 208.041,144.06C208.041,137.404 203.866,131.419 197.62,129.12L197.58,129.06ZM137,164.22C134.804,165.029 133.069,166.764 132.26,168.96L112,223.85L91.78,169C90.972,166.78 89.22,165.028 87,164.22L32.15,144L87,123.78C89.22,122.972 90.972,121.22 91.78,119L112,64.15L132.22,119C133.029,121.196 134.764,122.931 136.96,123.74L191.85,144L137,164.22ZM144,40C144,35.611 147.611,32 152,32L168,32L168,16C168,11.611 171.611,8 176,8C180.389,8 184,11.611 184,16L184,32L200,32C204.389,32 208,35.611 208,40C208,44.389 204.389,48 200,48L184,48L184,64C184,68.389 180.389,72 176,72C171.611,72 168,68.389 168,64L168,48L152,48C147.611,48 144,44.389 144,40ZM248,88C248,92.389 244.389,96 240,96L232,96L232,104C232,108.389 228.389,112 224,112C219.611,112 216,108.389 216,104L216,96L208,96C203.611,96 200,92.389 200,88C200,83.611 203.611,80 208,80L216,80L216,72C216,67.611 219.611,64 224,64C228.389,64 232,67.611 232,72L232,80L240,80C244.389,80 248,83.611 248,88Z" style="fill-rule:nonzero;"/>
        </g>
    </g>
</svg>
