<?xml version="1.0" encoding="UTF-8" standalone="no"?>
<!DOCTYPE svg PUBLIC "-//W3C//DTD SVG 1.1//EN" "http://www.w3.org/Graphics/SVG/1.1/DTD/svg11.dtd">
<svg width="100%" height="100%" viewBox="0 0 24 24" version="1.1" xmlns="http://www.w3.org/2000/svg" xmlns:xlink="http://www.w3.org/1999/xlink" xml:space="preserve" xmlns:serif="http://www.serif.com/" style="fill-rule:evenodd;clip-rule:evenodd;stroke-linejoin:round;stroke-miterlimit:2;">
    <g transform="matrix(0.0660905,0,0,0.0660905,4.41808,7.09654)">
        <path d="M230.33,141.06L230.37,141.06C236.462,145.71 240.044,152.95 240.044,160.614C240.044,169.92 234.764,178.461 226.44,182.62L226,182.82L187.13,199.36C186.746,199.529 186.348,199.663 185.94,199.76L121.94,215.76C121.306,215.92 120.654,216 120,216L16,216C7.223,216 0,208.777 0,200L0,160C0,151.223 7.223,144 16,144L44.69,144L67.31,121.37C73.299,115.355 81.452,111.979 89.94,112L140.002,112C155.362,112 168.003,124.64 168.003,140C168.003,142.172 167.75,144.336 167.25,146.45L209.09,136.83C216.437,134.85 224.302,136.416 230.33,141.06ZM219.427,168.204C222.238,166.716 224,163.779 224,160.597C224,155.879 220.118,151.997 215.4,151.997C214.623,151.997 213.849,152.102 213.1,152.31L212.79,152.39L145.79,167.8C145.202,167.931 144.602,167.998 144,168L112,168C107.611,168 104,164.389 104,160C104,155.611 107.611,152 112,152L140,152C146.583,152 152,146.583 152,140C152,133.417 146.583,128 140,128L89.94,128C85.696,127.986 81.619,129.677 78.63,132.69L56,155.31L56,200L119,200L181.43,184.39L219.402,168.215C219.406,168.213 219.423,168.206 219.427,168.204Z" style="fill:rgb(127,204,231);stroke:rgb(127,204,231);stroke-width:60.52px;"/>
    </g>
    <g transform="matrix(0.0779784,0,0,0.0779784,2.02723,-1.73888)">
        <path d="M208,112L208.042,112C234.374,112 256.042,133.668 256.042,160C256.042,186.332 234.374,208 208.042,208C181.71,208 160.042,186.332 160.042,160C160.042,145.787 166.355,132.285 177.26,123.17L166.07,104L108.59,104L138.91,156C139.785,157.313 140.251,158.856 140.251,160.434C140.251,164.823 136.64,168.434 132.251,168.434C129.221,168.434 126.441,166.713 125.09,164L93.92,110.6L82.33,126.5C91.092,135.486 96.001,147.551 96.001,160.101C96.001,186.505 74.274,208.231 47.871,208.231C21.467,208.231 -0.259,186.505 -0.259,160.101C-0.259,133.698 21.467,111.971 47.871,111.971C55.348,111.971 62.723,113.714 69.41,117.06L85.12,95.51L71.41,72L48,72C43.611,72 40,68.389 40,64C40,59.611 43.611,56 48,56L76,56C78.848,56.006 81.486,57.533 82.91,60L99.26,88L156.74,88L145.09,68C144.388,66.784 144.018,65.404 144.018,64C144.018,59.618 147.618,56.01 152,56L192,56C205.166,56 216,66.834 216,80C216,84.389 212.389,88 208,88C203.611,88 200,84.389 200,80C200,75.611 196.389,72 192,72L165.93,72L191.07,115.09C196.48,113.044 202.216,111.997 208,112Z" style="fill:rgb(127,204,231);stroke:rgb(127,204,231);stroke-width:44.88px;"/>
    </g>
    <g transform="matrix(0.623827,0,0,0.623827,2.02723,-1.73888)">
        <g transform="matrix(0.125,0,0,0.125,0,0)">
            <path d="M248,160C248,181.943 229.943,200 208,200C186.057,200 168,181.943 168,160C168,138.057 186.057,120 208,120C229.943,120 248,138.057 248,160ZM48,120C26.057,120 8,138.057 8,160C8,181.943 26.057,200 48,200C69.943,200 88,181.943 88,160C88,138.057 69.943,120 48,120Z" style="fill-opacity:0.2;fill-rule:nonzero;"/>
        </g>
        <g transform="matrix(0.125,0,0,0.125,0,0)">
            <path d="M208,112C202.216,111.997 196.48,113.044 191.07,115.09L165.93,72L192,72C196.389,72 200,75.611 200,80C200,84.389 203.611,88 208,88C212.389,88 216,84.389 216,80C216,66.834 205.166,56 192,56L152,56C147.618,56.01 144.018,59.618 144.018,64C144.018,65.404 144.388,66.784 145.09,68L156.74,88L99.26,88L82.91,60C81.486,57.533 78.848,56.006 76,56L48,56C43.611,56 40,59.611 40,64C40,68.389 43.611,72 48,72L71.41,72L85.12,95.51L69.41,117.06C62.723,113.714 55.348,111.971 47.871,111.971C21.467,111.971 -0.259,133.698 -0.259,160.101C-0.259,186.505 21.467,208.231 47.871,208.231C74.274,208.231 96.001,186.505 96.001,160.101C96.001,147.551 91.092,135.486 82.33,126.5L93.92,110.6L125.09,164C126.441,166.713 129.221,168.434 132.251,168.434C136.64,168.434 140.251,164.823 140.251,160.434C140.251,158.856 139.785,157.313 138.91,156L108.59,104L166.07,104L177.26,123.17C166.355,132.285 160.042,145.787 160.042,160C160.042,186.332 181.71,208 208.042,208C234.374,208 256.042,186.332 256.042,160C256.042,133.668 234.374,112 208.042,112C208.028,112 208.014,112 208,112ZM80,160C80,160.003 80,160.006 80,160.009C80,177.564 65.555,192.009 48,192.009C30.445,192.009 16,177.564 16,160.009C16,142.454 30.445,128.009 48,128.009C52.037,128.009 56.037,128.773 59.79,130.26L41.54,155.26C40.432,156.67 39.829,158.412 39.829,160.205C39.829,164.593 43.44,168.205 47.829,168.205C50.485,168.205 52.974,166.882 54.46,164.68L72.71,139.68C77.428,145.398 80.007,152.587 80,160ZM208,192C190.455,191.987 176.024,177.545 176.024,160C176.024,151.471 179.434,143.286 185.49,137.28L201.09,164C202.441,166.713 205.221,168.434 208.251,168.434C212.64,168.434 216.251,164.823 216.251,160.434C216.251,158.856 215.785,157.313 214.91,156L199.3,129.21C202.136,128.407 205.069,128 208.016,128C225.571,128 240.016,142.445 240.016,160C240.016,177.555 225.571,192 208.016,192C208.011,192 208.005,192 208,192Z" style="fill-rule:nonzero;"/>
        </g>
    </g>
    <g transform="matrix(0.528724,0,0,0.528724,3.89081,7.19247)">
        <g transform="matrix(0.125,0,0,0.125,0.997252,-0.181443)">
            <path d="M48,152L48,208L16,208C11.611,208 8,204.389 8,200L8,160C8,155.611 11.611,152 16,152L48,152Z" style="fill-opacity:0.2;fill-rule:nonzero;"/>
        </g>
        <g transform="matrix(0.125,0,0,0.125,0.997252,-0.181443)">
            <path d="M230.33,141.06L230.37,141.06C236.462,145.71 240.044,152.95 240.044,160.614C240.044,169.92 234.764,178.461 226.44,182.62L226,182.82L187.13,199.36C186.746,199.529 186.348,199.663 185.94,199.76L121.94,215.76C121.306,215.92 120.654,216 120,216L16,216C7.223,216 0,208.777 0,200L0,160C-0,151.223 7.223,144 16,144L44.69,144L67.31,121.37C73.299,115.355 81.452,111.979 89.94,112L140.002,112C155.362,112 168.003,124.64 168.003,140C168.003,142.172 167.75,144.336 167.25,146.45L209.09,136.83C216.437,134.85 224.302,136.416 230.33,141.06ZM219.43,168.21L219.4,168.21C222.225,166.726 224,163.787 224,160.597C224,155.879 220.118,151.997 215.4,151.997C214.623,151.997 213.849,152.102 213.1,152.31L212.79,152.39L145.79,167.8C145.202,167.931 144.602,167.998 144,168L112,168C107.611,168 104,164.389 104,160C104,155.611 107.611,152 112,152L140,152C146.583,152 152,146.583 152,140C152,133.417 146.583,128 140,128L89.94,128C85.696,127.986 81.619,129.677 78.63,132.69L56,155.31L56,200L119,200L181.43,184.39L219.43,168.21ZM16,160L16,200L40,200L40,160L16,160Z"/>
        </g>
    </g>
</svg>
