<?xml version="1.0" encoding="UTF-8" standalone="no"?>
<!DOCTYPE svg PUBLIC "-//W3C//DTD SVG 1.1//EN" "http://www.w3.org/Graphics/SVG/1.1/DTD/svg11.dtd">
<svg width="100%" height="100%" viewBox="0 0 24 24" version="1.1" xmlns="http://www.w3.org/2000/svg" xmlns:xlink="http://www.w3.org/1999/xlink" xml:space="preserve" xmlns:serif="http://www.serif.com/" style="fill-rule:evenodd;clip-rule:evenodd;stroke-linejoin:round;stroke-miterlimit:2;">
    <g transform="matrix(0.0894941,0,0,0.0894941,0.544758,1.62004)">
        <path d="M238.74,211.69C239.563,212.977 240,214.473 240,216C240,220.389 236.389,224 232,224L24,224C19.611,224 16,220.389 16,216C16,214.473 16.437,212.977 17.26,211.69L118.5,53.5L97.26,20.28C96.437,18.993 96,17.497 96,15.97C96,11.581 99.611,7.97 104,7.97C106.726,7.97 109.271,9.363 110.74,11.66L128,38.66L145.26,11.69C146.729,9.393 149.274,8 152,8C156.389,8 160,11.611 160,16C160,17.527 159.563,19.023 158.74,20.31L137.5,53.5L238.74,211.69ZM188.7,208L217.38,208L128,68.34L38.62,208L67.3,208L121.22,123.69C122.689,121.393 125.234,120 127.96,120C130.686,120 133.231,121.393 134.7,123.69L188.7,208Z" style="fill:rgb(152,227,137);stroke:rgb(152,227,137);stroke-width:39.11px;"/>
    </g>
    <g transform="matrix(0.715953,0,0,0.715953,0.544758,1.62004)">
        <g transform="matrix(0.125,0,0,0.125,0,0)">
            <path d="M184.32,216L71.68,216L128,128L184.32,216Z" style="fill-opacity:0.2;fill-rule:nonzero;"/>
        </g>
        <g transform="matrix(0.125,0,0,0.125,0,0)">
            <path d="M238.74,211.69L137.5,53.5L158.74,20.31C159.563,19.023 160,17.527 160,16C160,11.611 156.389,8 152,8C149.274,8 146.729,9.393 145.26,11.69L128,38.66L110.74,11.66C109.271,9.363 106.726,7.97 104,7.97C99.611,7.97 96,11.581 96,15.97C96,17.497 96.437,18.993 97.26,20.28L118.5,53.5L17.26,211.69C16.437,212.977 16,214.473 16,216C16,220.389 19.611,224 24,224L232,224C236.389,224 240,220.389 240,216C240,214.473 239.563,212.977 238.74,211.69ZM86.3,208L128,142.84L169.7,208L86.3,208ZM188.7,208L134.7,123.69C133.231,121.393 130.686,120 127.96,120C125.234,120 122.689,121.393 121.22,123.69L67.3,208L38.62,208L128,68.34L217.38,208L188.7,208Z" style="fill-rule:nonzero;"/>
        </g>
    </g>
</svg>
