<?xml version="1.0" encoding="UTF-8" standalone="no"?>
<!DOCTYPE svg PUBLIC "-//W3C//DTD SVG 1.1//EN" "http://www.w3.org/Graphics/SVG/1.1/DTD/svg11.dtd">
<svg width="100%" height="100%" viewBox="0 0 24 24" version="1.1" xmlns="http://www.w3.org/2000/svg" xmlns:xlink="http://www.w3.org/1999/xlink" xml:space="preserve" xmlns:serif="http://www.serif.com/" style="fill-rule:evenodd;clip-rule:evenodd;stroke-linejoin:round;stroke-miterlimit:2;">
    <g transform="matrix(0.0896362,0,0,0.0896362,0.526566,0.526566)">
        <path d="M200,72C208.777,72 216,79.223 216,88L216,120C216,128.777 208.777,136 200,136L160,136L160,224C160,232.777 152.777,240 144,240L112,240C103.223,240 96,232.777 96,224L96,136L56,136C47.223,136 40,128.777 40,120L40,88C40,79.223 47.223,72 56,72L96,72L96,32C96,23.223 103.223,16 112,16L144,16C152.777,16 160,23.223 160,32L160,72L200,72Z" style="fill:rgb(163,147,230);stroke:rgb(163,147,230);stroke-width:39.05px;"/>
    </g>
    <g transform="matrix(0.71709,0,0,0.71709,0.526566,0.526566)">
        <g transform="matrix(0.125,0,0,0.125,0,0)">
            <path d="M208,88L208,120C208,124.389 204.389,128 200,128L152,128L152,224C152,228.389 148.389,232 144,232L112,232C107.611,232 104,228.389 104,224L104,128L56,128C51.611,128 48,124.389 48,120L48,88C48,83.611 51.611,80 56,80L104,80L104,32C104,27.611 107.611,24 112,24L144,24C148.389,24 152,27.611 152,32L152,80L200,80C204.389,80 208,83.611 208,88Z" style="fill-opacity:0.2;fill-rule:nonzero;"/>
        </g>
        <g transform="matrix(0.125,0,0,0.125,0,0)">
            <path d="M200,72L160,72L160,32C160,23.223 152.777,16 144,16L112,16C103.223,16 96,23.223 96,32L96,72L56,72C47.223,72 40,79.223 40,88L40,120C40,128.777 47.223,136 56,136L96,136L96,224C96,232.777 103.223,240 112,240L144,240C152.777,240 160,232.777 160,224L160,136L200,136C208.777,136 216,128.777 216,120L216,88C216,79.223 208.777,72 200,72ZM200,120L152,120C147.611,120 144,123.611 144,128L144,224L112,224L112,128C112,123.611 108.389,120 104,120L56,120L56,88L104,88C108.389,88 112,84.389 112,80L112,32L144,32L144,80C144,84.389 147.611,88 152,88L200,88L200,120Z" style="fill-rule:nonzero;"/>
        </g>
    </g>
</svg>
