<?xml version="1.0" encoding="UTF-8" standalone="no"?>
<!DOCTYPE svg PUBLIC "-//W3C//DTD SVG 1.1//EN" "http://www.w3.org/Graphics/SVG/1.1/DTD/svg11.dtd">
<svg width="100%" height="100%" viewBox="0 0 24 24" version="1.1" xmlns="http://www.w3.org/2000/svg" xmlns:xlink="http://www.w3.org/1999/xlink" xml:space="preserve" xmlns:serif="http://www.serif.com/" style="fill-rule:evenodd;clip-rule:evenodd;stroke-linejoin:round;stroke-miterlimit:2;">
    <g transform="matrix(0.088891,0,0,0.088891,0.621952,1.33283)">
        <path d="M174,47.75C201.49,79.32 216,112.6 216,144C216,192.275 176.275,232 128,232C79.725,232 40,192.275 40,144C40,112.6 54.51,79.32 82,47.75C94.327,33.489 108.203,20.643 123.37,9.45C126.119,7.524 129.801,7.524 132.55,9.45C147.745,20.639 161.648,33.484 174,47.75Z" style="fill:rgb(127,204,231);stroke:rgb(127,204,231);stroke-width:39.37px;"/>
    </g>
    <g transform="matrix(0.711128,0,0,0.711128,0.621952,1.33283)">
        <g transform="matrix(0.125,0,0,0.125,0,0)">
            <path d="M208,144C208,187.887 171.887,224 128,224C84.113,224 48,187.887 48,144C48,72 128,16 128,16C128,16 208,72 208,144Z" style="fill-opacity:0.2;fill-rule:nonzero;"/>
        </g>
        <g transform="matrix(0.125,0,0,0.125,0,0)">
            <path d="M174,47.75C161.648,33.484 147.745,20.639 132.55,9.45C129.801,7.524 126.119,7.524 123.37,9.45C108.203,20.643 94.327,33.489 82,47.75C54.51,79.32 40,112.6 40,144C40,192.275 79.725,232 128,232C176.275,232 216,192.275 216,144C216,112.6 201.49,79.32 174,47.75ZM128,216C88.519,215.956 56.044,183.481 56,144C56,86.77 111.47,39 128,26C144.53,39 200,86.75 200,144C199.956,183.481 167.481,215.956 128,216ZM183.89,153.34C179.651,177.017 161.008,195.656 137.33,199.89C136.89,199.96 136.445,199.997 136,200C131.612,199.999 128.002,196.388 128.002,192C128.002,188.108 130.842,184.753 134.68,184.11C151.25,181.32 165.31,167.26 168.12,150.66C168.771,146.828 172.123,143.997 176.01,143.997C180.4,143.997 184.013,147.61 184.013,152C184.013,152.449 183.975,152.897 183.9,153.34L183.89,153.34Z" style="fill-rule:nonzero;"/>
        </g>
    </g>
</svg>
