<?xml version="1.0" encoding="UTF-8" standalone="no"?>
<!DOCTYPE svg PUBLIC "-//W3C//DTD SVG 1.1//EN" "http://www.w3.org/Graphics/SVG/1.1/DTD/svg11.dtd">
<svg width="100%" height="100%" viewBox="0 0 24 24" version="1.1" xmlns="http://www.w3.org/2000/svg" xmlns:xlink="http://www.w3.org/1999/xlink" xml:space="preserve" xmlns:serif="http://www.serif.com/" style="fill-rule:evenodd;clip-rule:evenodd;stroke-linejoin:round;stroke-miterlimit:2;">
    <g transform="matrix(0.0888365,0,0,0.0888365,0.62893,0.62893)">
        <path d="M208,48C212.389,48 216,51.611 216,56L216,96C215.946,141.244 181.051,179.466 136,183.63L136,219.06L172.42,200.84C173.532,200.284 174.757,199.995 176,199.995C180.391,199.995 184.005,203.609 184.005,208C184.005,211.027 182.288,213.806 179.58,215.16L131.58,239.16C129.328,240.287 126.672,240.287 124.42,239.16L76.42,215.16C73.712,213.806 71.995,211.027 71.995,208C71.995,203.609 75.609,199.995 80,199.995C81.243,199.995 82.468,200.284 83.58,200.84L120,219.06L120,183.63C74.949,179.466 40.054,141.244 40,96L40,56C40,51.611 43.611,48 48,48C60.175,47.989 72.219,50.52 83.36,55.43C98.42,30.06 123.28,17.42 124.42,16.84C126.672,15.713 129.328,15.713 131.58,16.84C132.72,17.43 157.54,30.06 172.64,55.43C183.781,50.52 195.825,47.989 208,48Z" style="fill:rgb(152,227,137);stroke:rgb(152,227,137);stroke-width:39.4px;"/>
    </g>
    <g transform="matrix(0.710692,0,0,0.710692,0.62893,0.62893)">
        <g transform="matrix(0.125,0,0,0.125,0,0)">
            <path d="M169.23,66C143.814,80.081 127.992,106.944 128,136C128.008,106.944 112.186,80.081 86.77,66C100,38 128,24 128,24C128,24 156,38 169.23,66Z" style="fill-opacity:0.2;fill-rule:nonzero;"/>
        </g>
        <g transform="matrix(0.125,0,0,0.125,0,0)">
            <path d="M208,48C195.825,47.989 183.781,50.52 172.64,55.43C157.54,30.06 132.72,17.43 131.58,16.84C129.328,15.713 126.672,15.713 124.42,16.84C123.28,17.42 98.42,30.06 83.36,55.43C72.219,50.52 60.175,47.989 48,48C43.611,48 40,51.611 40,56L40,96C40.054,141.244 74.949,179.466 120,183.63L120,219.06L83.58,200.84C82.468,200.284 81.243,199.995 80,199.995C75.609,199.995 71.995,203.609 71.995,208C71.995,211.027 73.712,213.806 76.42,215.16L124.42,239.16C126.672,240.287 129.328,240.287 131.58,239.16L179.58,215.16C182.288,213.806 184.005,211.027 184.005,208C184.005,203.609 180.391,199.995 176,199.995C174.757,199.995 173.532,200.284 172.42,200.84L136,219.06L136,183.63C181.051,179.466 215.946,141.244 216,96L216,56C216,51.611 212.389,48 208,48ZM128,33.21C134.65,37.29 149.08,47.4 158.64,63.21C145.33,72.248 134.735,84.749 128,99.36C121.271,84.74 110.675,72.232 97.36,63.19C106.93,47.4 121.35,37.29 128,33.21ZM56,96L56,64.44C92.244,68.538 119.958,99.525 120,136L120,167.56C83.756,163.462 56.042,132.475 56,96ZM200,96C199.958,132.475 172.244,163.462 136,167.56L136,136C136.042,99.525 163.756,68.538 200,64.44L200,96Z" style="fill-rule:nonzero;"/>
        </g>
    </g>
</svg>
