<?xml version="1.0" encoding="UTF-8" standalone="no"?>
<!DOCTYPE svg PUBLIC "-//W3C//DTD SVG 1.1//EN" "http://www.w3.org/Graphics/SVG/1.1/DTD/svg11.dtd">
<svg width="100%" height="100%" viewBox="0 0 24 24" version="1.1" xmlns="http://www.w3.org/2000/svg" xmlns:xlink="http://www.w3.org/1999/xlink" xml:space="preserve" xmlns:serif="http://www.serif.com/" style="fill-rule:evenodd;clip-rule:evenodd;stroke-linejoin:round;stroke-miterlimit:2;">
    <g transform="matrix(0.0864442,0,0,0.0864442,-0.102189,0.935141)">
        <path d="M248,208C252.389,208 256,211.611 256,216C256,220.389 252.389,224 248,224L32,224C27.611,224 24,220.389 24,216C24,211.611 27.611,208 32,208L40,208L40,48C40,39.223 47.223,32 56,32L152,32C160.777,32 168,39.223 168,48L168,112L224,112C232.777,112 240,119.223 240,128L240,208L248,208Z" style="fill:rgb(216,119,120);stroke:rgb(216,119,120);stroke-width:40.49px;"/>
    </g>
    <g transform="matrix(0.691554,0,0,0.691554,-0.102189,0.935141)">
        <g transform="matrix(0.125,0,0,0.125,0,0)">
            <path d="M160,48L160,216L128,216L128,160L80,160L80,216L48,216L48,48C48,43.611 51.611,40 56,40L152,40C156.389,40 160,43.611 160,48Z" style="fill-opacity:0.2;fill-rule:nonzero;"/>
        </g>
        <g transform="matrix(0.125,0,0,0.125,0,0)">
            <path d="M248,208L240,208L240,128C240,119.223 232.777,112 224,112L168,112L168,48C168,39.223 160.777,32 152,32L56,32C47.223,32 40,39.223 40,48L40,208L32,208C27.611,208 24,211.611 24,216C24,220.389 27.611,224 32,224L248,224C252.389,224 256,220.389 256,216C256,211.611 252.389,208 248,208ZM224,128L224,208L168,208L168,128L224,128ZM56,48L152,48L152,208L136,208L136,160C136,155.611 132.389,152 128,152L80,152C75.611,152 72,155.611 72,160L72,208L56,208L56,48ZM120,208L88,208L88,168L120,168L120,208ZM72,96C72,91.611 75.611,88 80,88L96,88L96,72C96,67.611 99.611,64 104,64C108.389,64 112,67.611 112,72L112,88L128,88C132.389,88 136,91.611 136,96C136,100.389 132.389,104 128,104L112,104L112,120C112,124.389 108.389,128 104,128C99.611,128 96,124.389 96,120L96,104L80,104C75.611,104 72,100.389 72,96Z" style="fill-rule:nonzero;"/>
        </g>
    </g>
</svg>
