<?xml version="1.0" encoding="UTF-8" standalone="no"?>
<!DOCTYPE svg PUBLIC "-//W3C//DTD SVG 1.1//EN" "http://www.w3.org/Graphics/SVG/1.1/DTD/svg11.dtd">
<svg width="100%" height="100%" viewBox="0 0 24 24" version="1.1" xmlns="http://www.w3.org/2000/svg" xmlns:xlink="http://www.w3.org/1999/xlink" xml:space="preserve" xmlns:serif="http://www.serif.com/" style="fill-rule:evenodd;clip-rule:evenodd;stroke-linejoin:round;stroke-miterlimit:2;">
    <g transform="matrix(0.0958793,0,0,0.0958793,-0.272551,-0.272551)">
        <path d="M232,128C232,185.053 185.053,232 128,232C70.947,232 24,185.053 24,128C24,70.947 70.947,24 128,24C185.03,24.06 231.94,70.97 232,128Z" style="fill:rgb(127,204,231);stroke:rgb(127,204,231);stroke-width:36.5px;"/>
    </g>
    <g transform="matrix(0.767034,0,0,0.767034,-0.272551,-0.272551)">
        <g transform="matrix(0.125,0,0,0.125,0,0)">
            <path d="M224,128C224,180.664 180.664,224 128,224C75.336,224 32,180.664 32,128C32,75.336 75.336,32 128,32C180.664,32 224,75.336 224,128Z" style="fill-opacity:0.2;fill-rule:nonzero;"/>
        </g>
        <g transform="matrix(0.125,0,0,0.125,0,0)">
            <path d="M144,176C144,180.389 140.389,184 136,184C127.223,184 120,176.777 120,168L120,128C115.611,128 112,124.389 112,120C112,115.611 115.611,112 120,112C128.777,112 136,119.223 136,128L136,168C140.389,168 144,171.611 144,176ZM232,128C232,185.053 185.053,232 128,232C70.947,232 24,185.053 24,128C24,70.947 70.947,24 128,24C185.03,24.06 231.94,70.97 232,128ZM216,128C216,79.725 176.275,40 128,40C79.725,40 40,79.725 40,128C40,176.275 79.725,216 128,216C176.255,215.945 215.945,176.255 216,128ZM124,96C130.583,96 136,90.583 136,84C136,77.417 130.583,72 124,72C117.417,72 112,77.417 112,84C112,90.583 117.417,96 124,96Z" style="fill-rule:nonzero;"/>
        </g>
    </g>
</svg>
