<?xml version="1.0" encoding="UTF-8" standalone="no"?>
<!DOCTYPE svg PUBLIC "-//W3C//DTD SVG 1.1//EN" "http://www.w3.org/Graphics/SVG/1.1/DTD/svg11.dtd">
<svg width="100%" height="100%" viewBox="0 0 24 24" version="1.1" xmlns="http://www.w3.org/2000/svg" xmlns:xlink="http://www.w3.org/1999/xlink" xml:space="preserve" xmlns:serif="http://www.serif.com/" style="fill-rule:evenodd;clip-rule:evenodd;stroke-linejoin:round;stroke-miterlimit:2;">
    <g transform="matrix(0.088923,0,0,0.088923,0.617993,0.973527)">
        <path d="M239.18,97.26C241.242,103.57 239.285,110.536 234.24,114.85L189.24,153.68L203,211.75C203.297,212.997 203.448,214.274 203.448,215.555C203.448,224.552 196.044,231.955 187.048,231.955C184.044,231.955 181.097,231.13 178.53,229.57L128,198.49L77.5,229.57C74.919,231.158 71.947,231.999 68.916,231.999C59.931,231.999 52.536,224.605 52.536,215.619C52.536,214.316 52.692,213.017 53,211.75L66.71,153.69L21.71,114.86C18.091,111.735 16.007,107.183 16.007,102.401C16.007,93.894 22.603,86.717 31.08,86L90.11,81.23L112.87,26.15C115.385,20.023 121.382,16.001 128.005,16.001C134.628,16.001 140.625,20.023 143.14,26.15L165.92,81.24L224.92,86C231.497,86.53 237.139,90.985 239.18,97.26Z" style="fill:rgb(255,250,104);stroke:rgb(255,250,104);stroke-width:39.36px;"/>
    </g>
    <g transform="matrix(0.711384,0,0,0.711384,0.617993,0.973527)">
        <g transform="matrix(0.125,0,0,0.125,0,0)">
            <path d="M229.06,108.79L180.36,150.79L195.24,213.58C195.399,214.231 195.479,214.899 195.479,215.57C195.479,220.178 191.687,223.97 187.079,223.97C185.542,223.97 184.034,223.548 182.72,222.75L128,189.09L73.28,222.74C71.966,223.538 70.458,223.96 68.921,223.96C64.313,223.96 60.521,220.168 60.521,215.56C60.521,214.889 60.601,214.221 60.76,213.57L75.64,150.78L26.94,108.78C25.112,107.175 24.062,104.856 24.062,102.423C24.062,98.08 27.406,94.407 31.73,94L95.64,88.8L120.26,29.2C121.541,26.061 124.61,23.999 128,23.999C131.39,23.999 134.459,26.061 135.74,29.2L160.36,88.8L224.27,94C228.598,94.402 231.948,98.077 231.948,102.424C231.948,104.862 230.895,107.184 229.06,108.79Z" style="fill-opacity:0.2;fill-rule:nonzero;"/>
        </g>
        <g transform="matrix(0.125,0,0,0.125,0,0)">
            <path d="M239.18,97.26C237.139,90.985 231.497,86.53 224.92,86L165.92,81.24L143.14,26.15C140.625,20.023 134.628,16.001 128.005,16.001C121.382,16.001 115.385,20.023 112.87,26.15L90.11,81.23L31.08,86C22.603,86.717 16.007,93.894 16.007,102.401C16.007,107.183 18.091,111.735 21.71,114.86L66.71,153.69L53,211.75C52.692,213.017 52.536,214.316 52.536,215.619C52.536,224.605 59.931,231.999 68.916,231.999C71.947,231.999 74.919,231.158 77.5,229.57L128,198.49L178.53,229.57C181.097,231.13 184.044,231.955 187.048,231.955C196.044,231.955 203.448,224.552 203.448,215.555C203.448,214.274 203.297,212.997 203,211.75L189.24,153.68L234.24,114.85C239.285,110.536 241.242,103.57 239.18,97.26ZM223.84,102.73L175.14,144.73C172.879,146.679 171.89,149.736 172.58,152.64L187.46,215.44C187.539,215.619 187.464,215.831 187.29,215.92C187.11,216.06 187.06,216.03 186.91,215.92L132.19,182.27C129.624,180.692 126.376,180.692 123.81,182.27L69.09,215.94C68.94,216.03 68.9,216.06 68.71,215.94C68.536,215.851 68.461,215.639 68.54,215.46L83.42,152.66C84.11,149.756 83.121,146.699 80.86,144.75L32.16,102.75C32.04,102.65 31.93,102.56 32.03,102.25C32.13,101.94 32.21,101.98 32.36,101.96L96.28,96.8C99.265,96.544 101.865,94.632 103,91.86L127.62,32.25C127.7,32.08 127.73,32 127.97,32C128.21,32 128.24,32.08 128.32,32.25L153,91.86C154.146,94.633 156.759,96.538 159.75,96.78L223.67,101.94C223.82,101.94 223.91,101.94 224,102.23C224.09,102.52 224,102.63 223.84,102.73Z" style="fill-rule:nonzero;"/>
        </g>
    </g>
</svg>
