<?xml version="1.0" encoding="UTF-8" standalone="no"?>
<!DOCTYPE svg PUBLIC "-//W3C//DTD SVG 1.1//EN" "http://www.w3.org/Graphics/SVG/1.1/DTD/svg11.dtd">
<svg width="100%" height="100%" viewBox="0 0 24 24" version="1.1" xmlns="http://www.w3.org/2000/svg" xmlns:xlink="http://www.w3.org/1999/xlink" xml:space="preserve" xmlns:serif="http://www.serif.com/" style="fill-rule:evenodd;clip-rule:evenodd;stroke-linejoin:round;stroke-miterlimit:2;">
    <g transform="matrix(0.0825379,0,0,0.0825379,1.43515,1.43515)">
        <path d="M232,104C231.991,109.7 228.936,114.98 224,117.83L224,128C224,163.53 190.88,190.12 164.26,211.49C152.34,221.07 136,234.18 136,240C136,244.389 132.389,248 128,248C123.611,248 120,244.389 120,240C120,234.18 103.66,221.07 91.74,211.49C65.12,190.12 32,163.53 32,128L32,117.83C27.064,114.98 24.009,109.7 24,104C24.033,73.292 49.292,48.033 80,48L120,48C120,26.057 138.057,8 160,8C164.389,8 168,11.611 168,16C168,20.389 164.389,24 160,24C146.834,24 136,34.834 136,48L176,48C206.708,48.033 231.967,73.292 232,104Z" style="fill:rgb(152,227,137);stroke:rgb(152,227,137);stroke-width:42.4px;"/>
    </g>
    <g transform="matrix(0.660303,0,0,0.660303,1.43515,1.43515)">
        <g transform="matrix(0.125,0,0,0.125,0,0)">
            <path d="M216,112L216,128C216,181 128,216 128,240C128,216 40,181 40,128L40,112L216,112Z" style="fill-opacity:0.2;fill-rule:nonzero;"/>
        </g>
        <g transform="matrix(0.125,0,0,0.125,0,0)">
            <path d="M232,104C231.967,73.292 206.708,48.033 176,48L136,48C136,34.834 146.834,24 160,24C164.389,24 168,20.389 168,16C168,11.611 164.389,8 160,8C138.057,8 120,26.057 120,48L80,48C49.292,48.033 24.033,73.292 24,104C24.009,109.7 27.064,114.98 32,117.83L32,128C32,163.53 65.12,190.12 91.74,211.49C103.66,221.07 120,234.18 120,240C120,244.389 123.611,248 128,248C132.389,248 136,244.389 136,240C136,234.18 152.34,221.07 164.26,211.49C190.88,190.12 224,163.53 224,128L224,117.83C228.936,114.98 231.991,109.7 232,104ZM80,64L176,64C197.931,64.033 215.967,82.069 216,104L40,104C40,82.057 58.057,64 80,64ZM154.25,199C143.63,207.52 134.25,215 128,222.37C121.75,215.05 112.37,207.52 101.75,199C77.8,179.79 48,155.86 48,128L48,120L208,120L208,128C208,155.86 178.2,179.79 154.25,199Z" style="fill-rule:nonzero;"/>
        </g>
    </g>
</svg>
