<?xml version="1.0" encoding="UTF-8" standalone="no"?>
<!DOCTYPE svg PUBLIC "-//W3C//DTD SVG 1.1//EN" "http://www.w3.org/Graphics/SVG/1.1/DTD/svg11.dtd">
<svg width="100%" height="100%" viewBox="0 0 24 24" version="1.1" xmlns="http://www.w3.org/2000/svg" xmlns:xlink="http://www.w3.org/1999/xlink" xml:space="preserve" xmlns:serif="http://www.serif.com/" style="fill-rule:evenodd;clip-rule:evenodd;stroke-linejoin:round;stroke-miterlimit:2;">
    <g transform="matrix(0.0898278,0,0,0.0898278,0.141567,0.854863)">
        <path d="M221.28,34.75C233.281,46.748 240.03,63.04 240.03,80.01C240.03,97.004 233.261,113.318 221.23,125.32L152,195.32C149.008,198.321 144.938,200.007 140.7,200L67.32,200L37.66,229.66C36.159,231.161 34.122,232.004 32,232.004C27.609,232.004 23.996,228.391 23.996,224C23.996,221.878 24.839,219.841 26.34,218.34L56,188.69L56,115.31C55.991,111.067 57.681,106.992 60.69,104L130.79,34.75C155.614,9.937 196.456,9.937 221.28,34.75Z" style="fill:rgb(152,227,137);stroke:rgb(152,227,137);stroke-width:38.96px;"/>
    </g>
    <g transform="matrix(0.718622,0,0,0.718622,0.141567,0.854863)">
        <g transform="matrix(0.125,0,0,0.125,0,0)">
            <path d="M215.8,119.6L146.54,189.66C145.041,191.157 143.008,191.999 140.89,192L64.2,192L64.2,115.31C64.201,113.192 65.043,111.159 66.54,109.66L112.2,64.52L112.2,144L136.2,120L215.8,119.6Z" style="fill-opacity:0.2;fill-rule:nonzero;"/>
        </g>
        <g transform="matrix(0.125,0,0,0.125,0,0)">
            <path d="M221.28,34.75C196.456,9.937 155.614,9.937 130.79,34.75L60.69,104C57.681,106.992 55.991,111.067 56,115.31L56,188.69L26.34,218.34C24.839,219.841 23.996,221.878 23.996,224C23.996,228.391 27.609,232.004 32,232.004C34.122,232.004 36.159,231.161 37.66,229.66L67.32,200L140.7,200C144.938,200.007 149.008,198.321 152,195.32L221.23,125.32C233.261,113.318 240.03,97.004 240.03,80.01C240.03,63.04 233.281,46.748 221.28,34.75ZM142.07,46.06C151.069,37.057 163.289,31.994 176.019,31.994C202.351,31.994 224.019,53.662 224.019,79.994C224.019,91.8 219.663,103.201 211.79,112L155.33,112L189.68,77.66C191.181,76.159 192.024,74.122 192.024,72C192.024,67.609 188.411,63.996 184.02,63.996C181.898,63.996 179.861,64.839 178.36,66.34L120,124.69L120,67.87L142.07,46.06ZM72,115.35L104,83.68L104,140.68L72,172.68L72,115.35ZM140.7,184L83.32,184L139.32,128L196.06,128L140.7,184Z" style="fill-rule:nonzero;"/>
        </g>
    </g>
</svg>
