<?xml version="1.0" encoding="UTF-8" standalone="no"?>
<!DOCTYPE svg PUBLIC "-//W3C//DTD SVG 1.1//EN" "http://www.w3.org/Graphics/SVG/1.1/DTD/svg11.dtd">
<svg width="100%" height="100%" viewBox="0 0 24 24" version="1.1" xmlns="http://www.w3.org/2000/svg" xmlns:xlink="http://www.w3.org/1999/xlink" xml:space="preserve" xmlns:serif="http://www.serif.com/" style="fill-rule:evenodd;clip-rule:evenodd;stroke-linejoin:round;stroke-miterlimit:2;">
    <g transform="matrix(0.0776666,0,0,0.0776666,2.0586,2.99067)">
        <path d="M181.685,96.74C183.237,96.248 184.876,95.991 186.55,96C192.203,95.971 197.46,98.964 200.32,103.84L254.88,195.92C255.612,197.155 255.999,198.564 255.999,200C255.999,204.388 252.388,207.999 248,208L8,208C3.613,207.998 0.003,204.387 0.003,200C0.003,198.572 0.385,197.17 1.11,195.94L74.21,71.9C77.081,67.02 82.338,64.014 88,64.014C93.662,64.014 98.919,67.02 101.79,71.9L109.207,84.489L138.094,62.566C136.745,59.299 136,55.73 136,52C136,36.64 148.64,24 164,24C179.36,24 192,36.64 192,52C192,62.397 186.209,71.548 177.702,76.376L181.685,96.74ZM130.959,121.404L146.63,148L155.189,133.552L130.959,121.404Z" style="fill:rgb(152,227,137);stroke:rgb(152,227,137);stroke-width:45.06px;"/>
    </g>
    <g transform="matrix(0.621333,0,0,0.621333,2.0586,2.99067)">
        <g transform="matrix(0.125,0,0,0.125,0,0)">
            <path d="M144,52C144,41.028 153.028,32 164,32C174.972,32 184,41.028 184,52C184,62.972 174.972,72 164,72C153.028,72 144,62.972 144,52ZM193.44,107.92C192.002,105.489 189.379,103.994 186.555,103.994C183.731,103.994 181.108,105.489 179.67,107.92L146.67,163.67L125.67,128L50.35,128L8,200L248,200L193.44,107.92Z" style="fill-opacity:0.2;fill-rule:nonzero;"/>
        </g>
        <g transform="matrix(0.125,0,0,0.125,0,0)">
            <path d="M164,80C179.36,80 192,67.36 192,52C192,36.64 179.36,24 164,24C148.64,24 136,36.64 136,52C136,67.36 148.64,80 164,80ZM164,40C170.583,40 176,45.417 176,52C176,58.583 170.583,64 164,64C157.417,64 152,58.583 152,52C152,45.417 157.417,40 164,40ZM254.88,195.92L200.32,103.84C197.46,98.964 192.203,95.971 186.55,96C180.9,95.97 175.645,98.964 172.79,103.84L146.63,148L101.79,71.9C98.919,67.02 93.662,64.014 88,64.014C82.338,64.014 77.081,67.02 74.21,71.9L1.11,195.94C0.385,197.17 0.003,198.572 0.003,200C0.003,204.387 3.613,207.998 8,208L248,208C252.388,207.999 255.999,204.388 255.999,200C255.999,198.564 255.612,197.155 254.88,195.92ZM88,80L111.57,120L64.43,120L88,80ZM22,192L55,136L121,136L154,192L22,192ZM172.57,192L155.91,163.72L186.55,112L234,192L172.57,192Z" style="fill-rule:nonzero;"/>
        </g>
    </g>
</svg>
