<?xml version="1.0" encoding="UTF-8" standalone="no"?>
<!DOCTYPE svg PUBLIC "-//W3C//DTD SVG 1.1//EN" "http://www.w3.org/Graphics/SVG/1.1/DTD/svg11.dtd">
<svg width="100%" height="100%" viewBox="0 0 24 24" version="1.1" xmlns="http://www.w3.org/2000/svg" xmlns:xlink="http://www.w3.org/1999/xlink" xml:space="preserve" xmlns:serif="http://www.serif.com/" style="fill-rule:evenodd;clip-rule:evenodd;stroke-linejoin:round;stroke-miterlimit:2;">
    <g transform="matrix(0.0764884,0,0,0.0764884,2.20949,2.46692)">
        <path d="M40.959,192L39.17,195.58C37.814,198.29 35.03,200.006 32,200C30.756,200.002 29.53,199.711 28.42,199.15C24.496,197.188 22.88,192.345 24.84,188.42L47.06,144L8,144C3.611,144 0,140.389 0,136C0,131.611 3.611,128 8,128L55.06,128L83.06,72L64,72C59.611,72 56,68.389 56,64C56,59.611 59.611,56 64,56L192,56C196.389,56 200,59.611 200,64C200,68.389 196.389,72 192,72L172.94,72L200.94,128L248,128C252.389,128 256,131.611 256,136C256,140.389 252.389,144 248,144L208.94,144L231.15,188.42C233.11,192.345 231.494,197.188 227.57,199.15C226.463,199.71 225.24,200.001 224,200C220.973,200.002 218.194,198.287 216.84,195.58L215.051,192L40.959,192Z" style="fill:rgb(152,227,137);stroke:rgb(152,227,137);stroke-width:45.76px;"/>
    </g>
    <g transform="matrix(0.611907,0,0,0.611907,2.20949,2.46692)">
        <g transform="matrix(0.125,0,0,0.125,0,0)">
            <path d="M224,192L32,192L96,64L160,64L224,192Z" style="fill-opacity:0.2;fill-rule:nonzero;"/>
        </g>
        <g transform="matrix(0.125,0,0,0.125,0,0)">
            <path d="M248,128L200.94,128L172.94,72L192,72C196.389,72 200,68.389 200,64C200,59.611 196.389,56 192,56L64,56C59.611,56 56,59.611 56,64C56,68.389 59.611,72 64,72L83.06,72L55.06,128L8,128C3.611,128 -0,131.611 0,136C0,140.389 3.611,144 8,144L47.06,144L24.84,188.42C22.88,192.345 24.496,197.188 28.42,199.15C29.53,199.711 30.756,200.002 32,200C35.03,200.006 37.814,198.29 39.17,195.58L64.94,144L191.06,144L216.84,195.58C218.194,198.287 220.973,200.002 224,200C225.24,200.001 226.463,199.71 227.57,199.15C231.494,197.188 233.11,192.345 231.15,188.42L208.94,144L248,144C252.389,144 256,140.389 256,136C256,131.611 252.389,128 248,128ZM72.94,128L100.94,72L155.06,72L183.06,128L72.94,128Z" style="fill-rule:nonzero;"/>
        </g>
    </g>
</svg>
