<?xml version="1.0" encoding="UTF-8" standalone="no"?>
<!DOCTYPE svg PUBLIC "-//W3C//DTD SVG 1.1//EN" "http://www.w3.org/Graphics/SVG/1.1/DTD/svg11.dtd">
<svg width="100%" height="100%" viewBox="0 0 24 24" version="1.1" xmlns="http://www.w3.org/2000/svg" xmlns:xlink="http://www.w3.org/1999/xlink" xml:space="preserve" xmlns:serif="http://www.serif.com/" style="fill-rule:evenodd;clip-rule:evenodd;stroke-linejoin:round;stroke-miterlimit:2;">
    <g transform="matrix(0.0882447,0,0,0.0882447,0.704674,0.922633)">
        <path d="M174.212,70.173L184.24,30.06C185.129,26.513 188.343,24.005 192,24.005C195.657,24.005 198.871,26.513 199.76,30.06L231.76,158.06C231.919,158.694 231.999,159.346 231.999,160C231.999,164.388 228.388,167.999 224,168L200,168L200,192L232,192C236.389,192 240,195.611 240,200C240,204.389 236.389,208 232,208L24,208C19.611,208 16,204.389 16,200C16,195.611 19.611,192 24,192L48,192L48,176L40,176C35.611,176 32,172.389 32,168C32,163.611 35.611,160 40,160L48,160L48,144L40,144C35.611,144 32,140.389 32,136C32,131.611 35.611,128 40,128L94.851,128L106.328,125.53L102.259,92.354C93.774,87.52 88,78.382 88,68C88,52.64 100.64,40 116,40C127.215,40 136.98,46.739 141.434,56.354L174.212,70.173Z" style="fill:rgb(152,227,137);stroke:rgb(152,227,137);stroke-width:39.66px;"/>
    </g>
    <g transform="matrix(0.705958,0,0,0.705958,0.704674,0.922633)">
        <g transform="matrix(0.125,0,0,0.125,0,0)">
            <path d="M224,160L160,160L192,32L224,160Z" style="fill-opacity:0.2;fill-rule:nonzero;"/>
        </g>
        <g transform="matrix(0.125,0,0,0.125,0,0)">
            <path d="M232,192L200,192L200,168L224,168C228.388,167.999 231.999,164.388 231.999,160C231.999,159.346 231.919,158.694 231.76,158.06L199.76,30.06C198.871,26.513 195.657,24.005 192,24.005C188.343,24.005 185.129,26.513 184.24,30.06L152.24,158.06C152.081,158.694 152.001,159.346 152.001,160C152.001,164.388 155.612,167.999 160,168L184,168L184,192L120,192L120,176L128,176C132.389,176 136,172.389 136,168C136,163.611 132.389,160 128,160L120,160L120,144L128,144C132.389,144 136,140.389 136,136C136,131.611 132.389,128 128,128L40,128C35.611,128 32,131.611 32,136C32,140.389 35.611,144 40,144L48,144L48,160L40,160C35.611,160 32,163.611 32,168C32,172.389 35.611,176 40,176L48,176L48,192L24,192C19.611,192 16,195.611 16,200C16,204.389 19.611,208 24,208L232,208C236.389,208 240,204.389 240,200C240,195.611 236.389,192 232,192ZM192,65L213.75,152L170.25,152L192,65ZM64,144L104,144L104,160L64,160L64,144ZM64,176L104,176L104,192L64,192L64,176ZM116,96C131.36,96 144,83.36 144,68C144,52.64 131.36,40 116,40C100.64,40 88,52.64 88,68C88,83.36 100.64,96 116,96ZM116,56C122.583,56 128,61.417 128,68C128,74.583 122.583,80 116,80C109.417,80 104,74.583 104,68C104,61.417 109.417,56 116,56Z" style="fill-rule:nonzero;"/>
        </g>
    </g>
</svg>
