<?xml version="1.0" encoding="UTF-8" standalone="no"?>
<!DOCTYPE svg PUBLIC "-//W3C//DTD SVG 1.1//EN" "http://www.w3.org/Graphics/SVG/1.1/DTD/svg11.dtd">
<svg width="100%" height="100%" viewBox="0 0 24 24" version="1.1" xmlns="http://www.w3.org/2000/svg" xmlns:xlink="http://www.w3.org/1999/xlink" xml:space="preserve" xmlns:serif="http://www.serif.com/" style="fill-rule:evenodd;clip-rule:evenodd;stroke-linejoin:round;stroke-miterlimit:2;">
    <g transform="matrix(0.084662,0,0,0.084662,1.16172,1.50156)">
        <path d="M235.32,180C238.32,183 240.008,187.073 240.008,191.315C240.008,195.557 238.32,199.63 235.32,202.63L202.63,235.32C199.63,238.32 195.557,240.008 191.315,240.008C187.073,240.008 183,238.32 180,235.32L131.72,187C130.382,185.658 129.139,184.225 128,182.71C126.861,184.225 125.618,185.658 124.28,187L76,235.31C73,238.31 68.927,239.998 64.685,239.998C60.443,239.998 56.37,238.31 53.37,235.31L20.68,202.62C14.478,196.414 14.478,186.206 20.68,180L56.92,143.76L93.38,23.46C96.149,14.306 104.644,8.001 114.208,8.001C119.236,8.001 124.111,9.743 128,12.93C131.889,9.743 136.764,8.001 141.792,8.001C151.356,8.001 159.851,14.306 162.62,23.46L199.08,143.75L235.32,180Z" style="fill:rgb(163,147,230);stroke:rgb(163,147,230);stroke-width:41.34px;"/>
    </g>
    <g transform="matrix(1.05155,0,0,1.05155,-0.618581,-1.16562)">
        <g transform="matrix(0.0805118,0,0,0.0805118,1.69303,2.53642)">
            <path d="M229.66,197L197,229.66C193.897,232.761 188.793,232.761 185.69,229.66L167.34,211.31L211.34,167.31L229.69,185.66C231.189,187.16 232.031,189.195 232.031,191.315C232.031,193.45 231.177,195.498 229.66,197ZM26.34,185.66C23.239,188.763 23.239,193.867 26.34,196.97L59,229.66C62.103,232.761 67.207,232.761 70.31,229.66L88.66,211.31L44.66,167.31L26.34,185.66Z" style="fill-opacity:0.2;fill-rule:nonzero;"/>
        </g>
        <g transform="matrix(0.0805118,0,0,0.0805118,1.69303,2.53642)">
            <path d="M235.32,180L199.08,143.75L162.62,23.46C159.851,14.306 151.356,8.001 141.792,8.001C136.764,8.001 131.889,9.743 128,12.93C124.111,9.743 119.236,8.001 114.208,8.001C104.644,8.001 96.149,14.306 93.38,23.46L56.92,143.76L20.68,180C14.478,186.206 14.478,196.414 20.68,202.62L53.37,235.31C56.37,238.31 60.443,239.998 64.685,239.998C68.927,239.998 73,238.31 76,235.31L124.28,187C125.618,185.658 126.861,184.225 128,182.71C129.139,184.225 130.382,185.658 131.72,187L180,235.32C183,238.32 187.073,240.008 191.315,240.008C195.557,240.008 199.63,238.32 202.63,235.32L235.32,202.63C238.32,199.63 240.008,195.557 240.008,191.315C240.008,187.073 238.32,183 235.32,180ZM64.68,224L32,191.32L44.69,178.63L77.38,211.32L64.68,224ZM120,158.75C120.032,165.122 117.51,171.248 113,175.75L88.68,200L56,167.32L69.65,153.66C70.581,152.728 71.269,151.581 71.65,150.32L108.65,28.1C109.34,25.601 111.63,23.858 114.222,23.858C117.393,23.858 120.002,26.467 120.002,29.638C120.002,29.685 120.001,29.733 120,29.78L120,158.75ZM143,175.75C138.49,171.248 135.968,165.122 136,158.75L136,29.75C136.001,26.58 138.61,23.972 141.78,23.972C144.317,23.972 146.572,25.642 147.31,28.07L184.31,150.29C184.691,151.551 185.379,152.698 186.31,153.63L200.8,168.12L167.4,200.12L143,175.75ZM191.32,224L178.76,211.43L212.15,179.43L224,191.32L191.32,224Z" style="fill-rule:nonzero;"/>
        </g>
    </g>
</svg>
