<?xml version="1.0" encoding="UTF-8" standalone="no"?>
<!DOCTYPE svg PUBLIC "-//W3C//DTD SVG 1.1//EN" "http://www.w3.org/Graphics/SVG/1.1/DTD/svg11.dtd">
<svg width="100%" height="100%" viewBox="0 0 24 24" version="1.1" xmlns="http://www.w3.org/2000/svg" xmlns:xlink="http://www.w3.org/1999/xlink" xml:space="preserve" xmlns:serif="http://www.serif.com/" style="fill-rule:evenodd;clip-rule:evenodd;stroke-linejoin:round;stroke-miterlimit:2;">
    <g transform="matrix(0.0902352,0,0,0.0902352,0.449891,0.449891)">
        <path d="M128,24C185.03,24.06 231.94,70.97 232,128C232,185.053 185.053,232 128,232C70.947,232 24,185.053 24,128C24,70.947 70.947,24 128,24Z" style="fill:rgb(127,204,231);stroke:rgb(127,204,231);stroke-width:38.79px;"/>
    </g>
    <g transform="matrix(0.721882,0,0,0.721882,0.449891,0.449891)">
        <g transform="matrix(0.125,0,0,0.125,0,0)">
            <path d="M161.23,93.36C138.386,70.679 110.176,54.135 79.23,45.27C99.924,33.119 124.428,29.124 147.91,34.07C155.471,53 159.967,73.015 161.23,93.36ZM221.93,108.06C202.997,100.514 182.983,96.028 162.64,94.77C185.323,117.612 201.867,145.823 210.73,176.77C222.881,156.08 226.877,131.579 221.93,108.1L221.93,108.06ZM32.27,135.19C35.811,182.33 73.67,220.189 120.81,223.73C149.533,187.092 163.938,141.211 161.31,94.73C114.821,92.086 68.926,106.476 32.27,135.19Z" style="fill-opacity:0.2;fill-rule:nonzero;"/>
        </g>
        <g transform="matrix(0.125,0,0,0.125,0,0)">
            <path d="M128,24C70.947,24 24,70.947 24,128C24,185.053 70.947,232 128,232C185.053,232 232,185.053 232,128C231.94,70.97 185.03,24.06 128,24ZM209.7,95.3C196.372,91.192 182.651,88.49 168.76,87.24C167.51,73.349 164.808,59.628 160.7,46.3C183.001,55.297 200.703,72.999 209.7,95.3ZM216,128C216.004,137.208 214.56,146.36 211.72,155.12C204.466,137.154 194.644,120.335 182.56,105.19C193.575,107.114 204.39,110.043 214.87,113.94C215.622,118.589 216,123.291 216,128ZM142.06,41.13C145.957,51.61 148.886,62.425 150.81,73.44C135.665,61.356 118.846,51.534 100.88,44.28C114.162,39.98 128.278,38.9 142.06,41.13ZM80.44,54C102.743,60.893 123.531,71.971 141.69,86.64C105.586,88.251 70.583,99.607 40.41,119.5C43.04,92.714 57.802,68.558 80.44,54ZM40.67,138.86C73.243,114.606 112.944,101.801 153.55,102.45C154.199,143.056 141.394,182.757 117.14,215.33C77.306,210.313 45.687,178.694 40.67,138.86ZM136.5,215.59C156.396,185.418 167.756,150.415 169.37,114.31C184.035,132.47 195.11,153.258 202,175.56C187.442,198.198 163.286,212.96 136.5,215.59Z" style="fill-rule:nonzero;"/>
        </g>
    </g>
</svg>
