<?xml version="1.0" encoding="UTF-8" standalone="no"?>
<!DOCTYPE svg PUBLIC "-//W3C//DTD SVG 1.1//EN" "http://www.w3.org/Graphics/SVG/1.1/DTD/svg11.dtd">
<svg width="100%" height="100%" viewBox="0 0 24 24" version="1.1" xmlns="http://www.w3.org/2000/svg" xmlns:xlink="http://www.w3.org/1999/xlink" xml:space="preserve" xmlns:serif="http://www.serif.com/" style="fill-rule:evenodd;clip-rule:evenodd;stroke-linejoin:round;stroke-miterlimit:2;">
    <g transform="matrix(0.0863537,0,0,0.0863537,0.946725,0.255896)">
        <path d="M184,24C201.555,24 216,38.445 216,56L216,184C216,201.555 201.555,216 184,216L176,216L190.4,235.2C191.438,236.585 192,238.269 192,240C192,244.389 188.389,248 184,248C181.484,248 179.11,246.813 177.6,244.8L156,216L100,216L78.4,244.8C76.89,246.813 74.516,248 72,248C67.611,248 64,244.389 64,240C64,238.269 64.562,236.585 65.6,235.2L80,216L72,216C54.445,216 40,201.555 40,184L40,56C40,38.445 54.445,24 72,24L184,24Z" style="fill:rgb(127,204,231);stroke:rgb(127,204,231);stroke-width:40.53px;"/>
    </g>
    <g transform="matrix(0.69083,0,0,0.69083,0.946725,0.255896)">
        <g transform="matrix(0.125,0,0,0.125,0,0)">
            <rect x="48" y="72" width="160" height="56" style="fill-opacity:0.2;fill-rule:nonzero;"/>
        </g>
        <g transform="matrix(0.125,0,0,0.125,0,0)">
            <path d="M184,24L72,24C54.445,24 40,38.445 40,56L40,184C40,201.555 54.445,216 72,216L80,216L65.6,235.2C64.562,236.585 64,238.269 64,240C64,244.389 67.611,248 72,248C74.516,248 76.89,246.813 78.4,244.8L100,216L156,216L177.6,244.8C179.11,246.813 181.484,248 184,248C188.389,248 192,244.389 192,240C192,238.269 191.438,236.585 190.4,235.2L176,216L184,216C201.555,216 216,201.555 216,184L216,56C216,38.445 201.555,24 184,24ZM56,120L56,80L120,80L120,120L56,120ZM136,80L200,80L200,120L136,120L136,80ZM72,40L184,40C192.777,40 200,47.223 200,56L200,64L56,64L56,56C56,47.223 63.223,40 72,40ZM184,200L72,200C63.223,200 56,192.777 56,184L56,136L200,136L200,184C200,192.777 192.777,200 184,200ZM96,172C96,178.583 90.583,184 84,184C77.417,184 72,178.583 72,172C72,165.417 77.417,160 84,160C90.583,160 96,165.417 96,172ZM184,172C184,178.583 178.583,184 172,184C165.417,184 160,178.583 160,172C160,165.417 165.417,160 172,160C178.583,160 184,165.417 184,172Z" style="fill-rule:nonzero;"/>
        </g>
    </g>
</svg>
