<?xml version="1.0" encoding="UTF-8" standalone="no"?>
<!DOCTYPE svg PUBLIC "-//W3C//DTD SVG 1.1//EN" "http://www.w3.org/Graphics/SVG/1.1/DTD/svg11.dtd">
<svg width="100%" height="100%" viewBox="0 0 24 24" version="1.1" xmlns="http://www.w3.org/2000/svg" xmlns:xlink="http://www.w3.org/1999/xlink" xml:space="preserve" xmlns:serif="http://www.serif.com/" style="fill-rule:evenodd;clip-rule:evenodd;stroke-linejoin:round;stroke-miterlimit:2;">
    <g transform="matrix(0.0872679,0,0,0.0872679,0.829709,1.52785)">
        <path d="M168,40.58C195.408,44.575 215.959,68.303 216,96L216,216C216,224.777 208.777,232 200,232L56,232C47.223,232 40,224.777 40,216L40,96C40.041,68.303 60.592,44.575 88,40.58L88,32C88,18.834 98.834,8 112,8L144,8C157.166,8 168,18.834 168,32L168,40.58ZM112,24C107.611,24 104,27.611 104,32L104,40L152,40L152,32C152,27.611 148.389,24 144,24L112,24Z" style="fill:rgb(127,204,231);stroke:rgb(127,204,231);stroke-width:40.11px;"/>
    </g>
    <g transform="matrix(0.698143,0,0,0.698143,0.829709,1.52785)">
        <g transform="matrix(0.125,0,0,0.125,0,0)">
            <path d="M208,96L208,216C208,220.389 204.389,224 200,224L176,224L176,152C176,143.223 168.777,136 160,136L96,136C87.223,136 80,143.223 80,152L80,224L56,224C51.611,224 48,220.389 48,216L48,96C48,69.668 69.668,48 96,48L160,48C186.332,48 208,69.668 208,96Z" style="fill-opacity:0.2;fill-rule:nonzero;"/>
        </g>
        <g transform="matrix(0.125,0,0,0.125,0,0)">
            <path d="M168,40.58L168,32C168,18.834 157.166,8 144,8L112,8C98.834,8 88,18.834 88,32L88,40.58C60.592,44.575 40.041,68.303 40,96L40,216C40,224.777 47.223,232 56,232L200,232C208.777,232 216,224.777 216,216L216,96C215.959,68.303 195.408,44.575 168,40.58ZM112,24L144,24C148.389,24 152,27.611 152,32L152,40L104,40L104,32C104,27.611 107.611,24 112,24ZM168,160L88,160L88,152C88,147.611 91.611,144 96,144L160,144C164.389,144 168,147.611 168,152L168,160ZM88,176L136,176L136,184C136,188.389 139.611,192 144,192C148.389,192 152,188.389 152,184L152,176L168,176L168,216L88,216L88,176ZM200,216L184,216L184,152C184,138.834 173.166,128 160,128L96,128C82.834,128 72,138.834 72,152L72,216L56,216L56,96C56,74.057 74.057,56 96,56L160,56C181.943,56 200,74.057 200,96L200,216ZM152,88C152,92.389 148.389,96 144,96L112,96C107.611,96 104,92.389 104,88C104,83.611 107.611,80 112,80L144,80C148.389,80 152,83.611 152,88Z" style="fill-rule:nonzero;"/>
        </g>
    </g>
</svg>
