<?xml version="1.0" encoding="UTF-8" standalone="no"?>
<!DOCTYPE svg PUBLIC "-//W3C//DTD SVG 1.1//EN" "http://www.w3.org/Graphics/SVG/1.1/DTD/svg11.dtd">
<svg width="100%" height="100%" viewBox="0 0 24 24" version="1.1" xmlns="http://www.w3.org/2000/svg" xmlns:xlink="http://www.w3.org/1999/xlink" xml:space="preserve" xmlns:serif="http://www.serif.com/" style="fill-rule:evenodd;clip-rule:evenodd;stroke-linejoin:round;stroke-miterlimit:2;">
    <g transform="matrix(0.0777357,0,0,0.0777357,2.04983,2.59428)">
        <path d="M192,208L64,208C55.223,208 48,200.777 48,192L48,184L32,184C23.223,184 16,176.777 16,168L16,136L8,136C3.611,136 0,132.389 0,128C0,123.611 3.611,120 8,120L16,120L16,88C16,79.223 23.223,72 32,72L48,72L48,64C48,55.223 55.223,48 64,48L192,48C200.777,48 208,55.223 208,64L208,72L224,72C232.777,72 240,79.223 240,88L240,120L248,120C252.389,120 256,123.611 256,128C256,132.389 252.389,136 248,136L240,136L240,168C240,176.777 232.777,184 224,184L208,184L208,192C208,200.777 200.777,208 192,208Z" style="fill:rgb(127,204,231);stroke:rgb(127,204,231);stroke-width:45.02px;"/>
    </g>
    <g transform="matrix(0.918803,0,0,0.918803,0.974363,1.51881)">
        <g transform="matrix(0.0846054,0,0,0.0846054,1.17051,1.17051)">
            <path d="M96,64L96,192C96,196.389 92.389,200 88,200L64,200C59.611,200 56,196.389 56,192L56,64C56,59.611 59.611,56 64,56L88,56C92.389,56 96,59.611 96,64ZM192,56L168,56C163.611,56 160,59.611 160,64L160,192C160,196.389 163.611,200 168,200L192,200C196.389,200 200,196.389 200,192L200,64C200,59.611 196.389,56 192,56Z" style="fill-opacity:0.2;fill-rule:nonzero;"/>
        </g>
        <g transform="matrix(0.0846054,0,0,0.0846054,1.17051,1.17051)">
            <path d="M248,120L240,120L240,88C240,79.223 232.777,72 224,72L208,72L208,64C208,55.223 200.777,48 192,48L168,48C159.223,48 152,55.223 152,64L152,120L104,120L104,64C104,55.223 96.777,48 88,48L64,48C55.223,48 48,55.223 48,64L48,72L32,72C23.223,72 16,79.223 16,88L16,120L8,120C3.611,120 -0,123.611 0,128C0,132.389 3.611,136 8,136L16,136L16,168C16,176.777 23.223,184 32,184L48,184L48,192C48,200.777 55.223,208 64,208L88,208C96.777,208 104,200.777 104,192L104,136L152,136L152,192C152,200.777 159.223,208 168,208L192,208C200.777,208 208,200.777 208,192L208,184L224,184C232.777,184 240,176.777 240,168L240,136L248,136C252.389,136 256,132.389 256,128C256,123.611 252.389,120 248,120ZM32,168L32,88L48,88L48,168L32,168ZM88,192L64,192L64,64L88,64L88,192ZM192,192L168,192L168,64L192,64L192,192ZM224,168L208,168L208,88L224,88L224,168Z" style="fill-rule:nonzero;"/>
        </g>
    </g>
</svg>
