<?xml version="1.0" encoding="UTF-8" standalone="no"?>
<!DOCTYPE svg PUBLIC "-//W3C//DTD SVG 1.1//EN" "http://www.w3.org/Graphics/SVG/1.1/DTD/svg11.dtd">
<svg width="100%" height="100%" viewBox="0 0 24 24" version="1.1" xmlns="http://www.w3.org/2000/svg" xmlns:xlink="http://www.w3.org/1999/xlink" xml:space="preserve" xmlns:serif="http://www.serif.com/" style="fill-rule:evenodd;clip-rule:evenodd;stroke-linejoin:round;stroke-miterlimit:2;">
    <g transform="matrix(0.0928169,0,0,0.0928169,0.119431,0.119431)">
        <path d="M128,24C185.03,24.06 231.94,70.97 232,128C232,185.053 185.053,232 128,232C70.947,232 24,185.053 24,128C24,70.947 70.947,24 128,24Z" style="fill:rgb(127,204,231);stroke:rgb(127,204,231);stroke-width:37.71px;"/>
    </g>
    <g transform="matrix(0.742536,0,0,0.742536,0.119431,0.119431)">
        <g transform="matrix(0.125,0,0,0.125,0,0)">
            <path d="M216.25,165.8C201.158,201.044 166.34,224.012 128,224.012C111.15,224.012 94.593,219.575 80,211.15C68.745,204.669 58.925,195.965 51.14,185.57C46.981,145.22 68.825,106.393 105.47,89L80,44.86C91.237,38.35 103.685,34.198 116.58,32.66C153.61,49.229 176.319,87.563 173.06,128L128,128L105.47,167C138.849,190.035 183.386,189.545 216.25,165.78L216.25,165.8Z" style="fill-opacity:0.2;fill-rule:nonzero;"/>
        </g>
        <g transform="matrix(0.125,0,0,0.125,0,0)">
            <path d="M128,24C70.947,24 24,70.947 24,128C24,185.053 70.947,232 128,232C185.053,232 232,185.053 232,128C231.94,70.97 185.03,24.06 128,24ZM209.74,160.58C181.93,179.644 145.509,181.117 116.25,164.36L132.62,136L215.62,136C214.865,144.435 212.884,152.716 209.74,160.58ZM91.12,48.11C98.803,44.552 106.961,42.127 115.34,40.91C145.753,55.47 165.232,86.282 165.34,120L132.62,120L91.12,48.11ZM215.63,120L181.37,120C181.269,90.003 168.217,61.465 145.59,41.77C183.503,49.567 212.056,81.458 215.63,120ZM77.27,56.13L94.39,85.78C68.461,100.86 50.271,126.429 44.53,155.87C32.265,119.146 45.626,78.441 77.27,56.13ZM58.9,182.43C56.324,148.832 73.264,116.585 102.39,99.64L118.76,128L77.27,199.87C70.343,194.966 64.157,189.093 58.9,182.43ZM128,216C115.263,216.013 102.676,213.245 91.12,207.89L108.25,178.22C134.246,193.106 165.436,196.086 193.78,186.39C177.116,205.217 153.143,216.008 128,216Z" style="fill-rule:nonzero;"/>
        </g>
    </g>
</svg>
