<?xml version="1.0" encoding="UTF-8" standalone="no"?>
<!DOCTYPE svg PUBLIC "-//W3C//DTD SVG 1.1//EN" "http://www.w3.org/Graphics/SVG/1.1/DTD/svg11.dtd">
<svg width="100%" height="100%" viewBox="0 0 24 24" version="1.1" xmlns="http://www.w3.org/2000/svg" xmlns:xlink="http://www.w3.org/1999/xlink" xml:space="preserve" xmlns:serif="http://www.serif.com/" style="fill-rule:evenodd;clip-rule:evenodd;stroke-linejoin:round;stroke-miterlimit:2;">
    <g transform="matrix(0.0805984,0,0,0.0805984,1.68139,1.68341)">
        <path d="M201.21,128L231,180C231.702,181.216 232.072,182.596 232.072,184C232.072,188.389 228.461,192 224.072,192L224,192L164.65,192L134.95,244C133.529,246.493 130.87,248.038 128,248.038C125.13,248.038 122.471,246.493 121.05,244L91.33,192L32.05,192L31.978,192C27.589,192 23.978,188.389 23.978,184C23.978,182.596 24.348,181.216 25.05,180L54.77,128L25.05,76C24.348,74.784 23.978,73.404 23.978,72C23.978,67.611 27.59,64 31.978,64L32,64L91.33,64L121.1,12C122.521,9.507 125.18,7.962 128.05,7.962C130.92,7.962 133.579,9.507 135,12L164.65,64L224,64L224.072,64C228.461,64 232.072,67.611 232.072,72C232.072,73.404 231.702,74.784 231,76L201.21,128Z" style="fill:rgb(163,147,230);stroke:rgb(163,147,230);stroke-width:43.43px;"/>
    </g>
    <g transform="matrix(1.09547,0,0,1.09547,0.0882632,-2.56905)">
        <g transform="matrix(0.0735746,0,0,0.0735746,1.4543,3.88188)">
            <path d="M192,128L224,184L160,184L128,240L96,184L32,184L64,128L32,72L96,72L128,16L160,72L224,72L192,128Z" style="fill-opacity:0.2;fill-rule:nonzero;"/>
        </g>
        <g transform="matrix(0.0735746,0,0,0.0735746,1.4543,3.88188)">
            <path d="M201.21,128L231,76C231.702,74.784 232.072,73.404 232.072,72C232.072,67.611 228.461,64 224.072,64C224.048,64 224.024,64 224,64L164.65,64L135,12C133.579,9.507 130.92,7.962 128.05,7.962C125.18,7.962 122.521,9.507 121.1,12L91.33,64L32,64C31.993,64 31.985,64 31.978,64C27.59,64 23.978,67.611 23.978,72C23.978,73.404 24.348,74.784 25.05,76L54.77,128L25.05,180C24.348,181.216 23.978,182.596 23.978,184C23.978,188.389 27.589,192 31.978,192C32.002,192 32.026,192 32.05,192L91.33,192L121.05,244C122.471,246.493 125.13,248.038 128,248.038C130.87,248.038 133.529,246.493 134.95,244L164.65,192L224,192C224.024,192 224.048,192 224.072,192C228.461,192 232.072,188.389 232.072,184C232.072,182.596 231.702,181.216 231,180L201.21,128ZM210.21,80L192,111.88L173.79,80L210.21,80ZM182.79,128L155.37,176L100.62,176L73.2,128L100.62,80L155.37,80L182.79,128ZM128,32.12L146.22,64L109.77,64L128,32.12ZM45.78,80L82.19,80L64,111.88L45.78,80ZM45.78,175.92L64,144.12L82.19,176L45.78,175.92ZM128,223.88L109.77,192L146.22,192L128,223.88ZM173.79,176L192,144.12L210.21,176L173.79,176Z" style="fill-rule:nonzero;"/>
        </g>
    </g>
</svg>
