<?xml version="1.0" encoding="UTF-8" standalone="no"?>
<!DOCTYPE svg PUBLIC "-//W3C//DTD SVG 1.1//EN" "http://www.w3.org/Graphics/SVG/1.1/DTD/svg11.dtd">
<svg width="100%" height="100%" viewBox="0 0 24 24" version="1.1" xmlns="http://www.w3.org/2000/svg" xmlns:xlink="http://www.w3.org/1999/xlink" xml:space="preserve" xmlns:serif="http://www.serif.com/" style="fill-rule:evenodd;clip-rule:evenodd;stroke-linejoin:round;stroke-miterlimit:2;">
    <g transform="matrix(0.0652184,0,0,0.0652184,7.05263,5.30361)">
        <path d="M56.463,194.83C48.625,197.43 40.504,198.766 32.22,198.766C3.683,198.766 -22.918,182.941 -42.683,154.142C-61.763,126.355 -72.266,89.556 -72.266,50.548L-72.266,-10.153C-72.263,-19.704 -64.403,-27.561 -54.852,-27.561C-52.696,-27.561 -50.559,-27.161 -48.55,-26.381C-33.258,-20.438 -2.412,-10.468 32.22,-10.468C66.853,-10.468 97.688,-20.438 112.958,-26.381C118.306,-28.468 124.356,-27.77 129.088,-24.52C133.841,-21.286 136.697,-15.901 136.707,-10.153L136.707,47.486C164.925,46.052 189.447,38.046 202.21,33.09C204.056,32.373 206.02,32.006 208,32.006C216.775,32.006 223.997,39.225 224,48L224,103.77C224,139.61 214.35,173.42 196.82,198.95C178.66,225.41 154.22,239.95 128,239.95C101.78,239.95 77.34,225.38 59.18,198.95C58.252,197.6 57.346,196.226 56.463,194.83Z" style="fill:rgb(127,204,231);stroke:rgb(127,204,231);stroke-width:53.67px;"/>
    </g>
    <g transform="matrix(1.17574,0,0,1.17574,-0.975503,-3.17261)">
        <g transform="matrix(0.0554702,0,0,0.0554702,6.82817,7.20927)">
            <path d="M158.66,188.43C156.229,192.083 151.224,193.09 147.57,190.66C141.07,186.34 136,184 128,184C120,184 114.93,186.34 108.43,190.66C107.142,191.484 105.645,191.923 104.116,191.923C99.728,191.923 96.116,188.311 96.116,183.923C96.116,181.297 97.409,178.832 99.57,177.34C108,171.73 116.06,168 128,168C139.94,168 148,171.73 156.43,177.34C160.083,179.771 161.09,184.776 158.66,188.43ZM189.34,114C187.873,112.685 185.97,111.957 184,111.957C181.726,111.957 179.557,112.926 178.04,114.62C175.36,117.62 169.19,119.96 164.04,119.96C158.89,119.96 152.68,117.61 150.04,114.62C148.512,112.902 146.319,111.918 144.02,111.918C139.6,111.918 135.963,115.555 135.963,119.975C135.963,121.949 136.688,123.855 138,125.33C143.71,131.71 154.14,136 164,136C173.86,136 184.25,131.71 190,125.33C191.314,123.863 192.04,121.962 192.04,119.993C192.04,117.702 191.056,115.518 189.34,114ZM224,48L224,103.77C224,139.61 214.35,173.42 196.82,198.95C178.66,225.41 154.22,239.95 128,239.95C101.78,239.95 77.34,225.38 59.18,198.95C41.65,173.44 32,139.63 32,103.79L32,48C32.003,39.225 39.225,32.006 48,32.006C49.98,32.006 51.944,32.373 53.79,33.09C67.84,38.55 96.18,47.71 128,47.71C159.82,47.71 188.15,38.55 202.21,33.09C204.056,32.373 206.02,32.006 208,32.006C216.775,32.006 223.997,39.225 224,48ZM208,48C192.9,53.89 162.43,63.73 128,63.73C93.57,63.73 63.1,53.87 48,48L48,103.79C48,136.43 56.66,167.02 72.37,189.92C87.46,211.9 107.21,224 128,224C148.79,224 168.54,211.9 183.63,189.92C199.34,167 208,136.43 208,103.79L208,48ZM118,125.31C119.302,123.843 120.022,121.947 120.022,119.985C120.022,115.584 116.401,111.963 112,111.963C109.708,111.963 107.522,112.945 106,114.66C103.32,117.66 97.15,120 92,120C86.85,120 80.64,117.65 78,114.66C76.477,112.947 74.292,111.966 72,111.966C67.596,111.966 63.971,115.591 63.971,119.995C63.971,121.961 64.693,123.861 66,125.33C71.75,131.71 82.18,136 92,136C101.82,136 112.25,131.71 118,125.33L118,125.31Z" style="fill-rule:nonzero;"/>
        </g>
        <g>
            <g transform="matrix(0.0603739,0,0,0.0603739,0.88758,3.74816)">
                <path d="M216,48L216,103.77C216,174.6 176.6,232 128,232C79.4,232 40,174.6 40,103.79L40,48C40,47.997 40,47.993 40,47.99C40,43.601 43.611,39.99 48,39.99C48.988,39.99 49.968,40.173 50.89,40.53C66,46.41 95.11,55.71 128,55.71C160.89,55.71 190,46.41 205.11,40.55C206.032,40.193 207.012,40.01 208,40.01C212.385,40.01 215.995,43.615 216,48Z" style="fill:rgb(102,163,185);fill-rule:nonzero;"/>
            </g>
            <g transform="matrix(0.0603739,0,0,0.0603739,0.88758,3.74816)">
                <path d="M217,34.8C212.652,31.814 207.094,31.172 202.18,33.09C188.15,38.55 159.82,47.71 128,47.71C96.18,47.71 67.84,38.55 53.79,33.09C51.944,32.373 49.98,32.006 48,32.006C39.225,32.006 32.003,39.225 32,48L32,103.77C32,139.61 41.65,173.42 59.18,198.95C77.34,225.41 101.78,239.95 128,239.95C154.22,239.95 178.66,225.38 196.82,198.95C214.35,173.44 224,139.63 224,103.79L224,48C223.991,42.719 221.367,37.771 217,34.8ZM208,103.8C208,136.44 199.34,167.03 183.63,189.93C168.54,211.9 148.79,224 128,224C107.21,224 87.46,211.9 72.37,189.92C56.66,167 48,136.43 48,103.79L48,48C63.11,53.87 93.58,63.71 128,63.71C162.42,63.71 192.9,53.87 208,48L208,103.81L208,103.8ZM190,122.67C191.304,124.138 192.026,126.036 192.026,128C192.026,132.403 188.403,136.026 184,136.026C181.708,136.026 179.522,135.044 178,133.33C175.32,130.33 169.15,128 164,128C158.85,128 152.64,130.34 150,133.33C148.477,135.043 146.292,136.024 144,136.024C139.596,136.024 135.971,132.399 135.971,127.995C135.971,126.029 136.693,124.129 138,122.66C143.71,116.28 154.14,112 164,112C173.86,112 184.25,116.28 190,122.66L190,122.67ZM92,128C86.81,128 80.64,130.34 78,133.33C76.477,135.043 74.292,136.024 72,136.024C67.596,136.024 63.971,132.399 63.971,127.995C63.971,126.029 64.693,124.129 66,122.66C71.75,116.28 82.18,112 92,112C101.82,112 112.25,116.28 118,122.66C119.307,124.129 120.029,126.029 120.029,127.995C120.029,132.399 116.404,136.024 112,136.024C109.708,136.024 107.523,135.043 106,133.33C103.36,130.34 97.19,128 92,128ZM168.45,173.19C158.405,185.109 143.588,191.999 128,191.999C112.412,191.999 97.595,185.109 87.55,173.19C86.314,171.742 85.634,169.899 85.634,167.995C85.634,163.606 89.246,159.994 93.635,159.994C95.975,159.994 98.201,161.02 99.72,162.8C106.725,171.163 117.091,176.002 128,176.002C138.909,176.002 149.275,171.163 156.28,162.8C157.799,161.02 160.025,159.994 162.365,159.994C166.754,159.994 170.366,163.606 170.366,167.995C170.366,169.899 169.686,171.742 168.45,173.19Z" style="fill-rule:nonzero;"/>
            </g>
        </g>
    </g>
</svg>
