<?xml version="1.0" encoding="UTF-8" standalone="no"?>
<!DOCTYPE svg PUBLIC "-//W3C//DTD SVG 1.1//EN" "http://www.w3.org/Graphics/SVG/1.1/DTD/svg11.dtd">
<svg width="100%" height="100%" viewBox="0 0 24 24" version="1.1" xmlns="http://www.w3.org/2000/svg" xmlns:xlink="http://www.w3.org/1999/xlink" xml:space="preserve" xmlns:serif="http://www.serif.com/" style="fill-rule:evenodd;clip-rule:evenodd;stroke-linejoin:round;stroke-miterlimit:2;">
    <g transform="matrix(0.0880394,0,0,0.0880394,0.730953,0.730953)">
        <path d="M240,120L240,208C240,216.777 232.777,224 224,224L112,224C103.223,224 96,216.777 96,208L96,186.35C87.37,200.37 76.18,208 64,208C50.13,208 37.54,198.11 28.56,180.15C20.46,164 16,142.59 16,120C16,97.41 20.46,76.05 28.56,59.85C37.54,41.89 50.13,32 64,32L192,32C205.87,32 218.46,41.89 227.44,59.85C235.54,76.05 240,97.41 240,120Z" style="fill:rgb(127,204,231);stroke:rgb(127,204,231);stroke-width:39.75px;"/>
    </g>
    <g transform="matrix(0.704315,0,0,0.704315,0.730953,0.730953)">
        <g transform="matrix(0.125,0,0,0.125,0,0)">
            <path d="M104,120C104,164.18 86.09,200 64,200C41.91,200 24,164.18 24,120C24,75.82 41.91,40 64,40C86.09,40 104,75.82 104,120Z" style="fill-opacity:0.2;fill-rule:nonzero;"/>
        </g>
        <g transform="matrix(0.125,0,0,0.125,0,0)">
            <path d="M76,120C76,126.583 70.583,132 64,132C57.417,132 52,126.583 52,120C52,113.417 57.417,108 64,108C70.583,108 76,113.417 76,120ZM240,120L240,208C240,216.777 232.777,224 224,224L112,224C103.223,224 96,216.777 96,208L96,186.35C87.37,200.37 76.18,208 64,208C50.13,208 37.54,198.11 28.56,180.15C20.46,164 16,142.59 16,120C16,97.41 20.46,76.05 28.56,59.85C37.54,41.89 50.13,32 64,32L192,32C205.87,32 218.46,41.89 227.44,59.85C235.54,76.05 240,97.41 240,120ZM96,120C96,77.57 79.14,48 64,48C48.86,48 32,77.57 32,120C32,162.43 48.86,192 64,192C79.14,192 96,162.43 96,120ZM224,208L224,128L208,128C203.611,128 200,124.389 200,120C200,115.611 203.611,112 208,112L223.79,112C221.84,73.9 206.16,48 192,48L92.12,48C94.929,51.71 97.38,55.677 99.44,59.85C106.58,74.13 110.88,92.41 111.81,112L128,112C132.389,112 136,115.611 136,120C136,124.389 132.389,128 128,128L112,128L112,208L224,208ZM176,112L160,112C155.611,112 152,115.611 152,120C152,124.389 155.611,128 160,128L176,128C180.389,128 184,124.389 184,120C184,115.611 180.389,112 176,112Z" style="fill-rule:nonzero;"/>
        </g>
    </g>
</svg>
