<?xml version="1.0" encoding="UTF-8" standalone="no"?>
<!DOCTYPE svg PUBLIC "-//W3C//DTD SVG 1.1//EN" "http://www.w3.org/Graphics/SVG/1.1/DTD/svg11.dtd">
<svg width="100%" height="100%" viewBox="0 0 24 24" version="1.1" xmlns="http://www.w3.org/2000/svg" xmlns:xlink="http://www.w3.org/1999/xlink" xml:space="preserve" xmlns:serif="http://www.serif.com/" style="fill-rule:evenodd;clip-rule:evenodd;stroke-linejoin:round;stroke-miterlimit:2;">
    <g transform="matrix(0.0778987,0,0,0.0778987,2.02897,2.44708)">
        <path d="M251.76,88.94C254.364,90.328 255.998,93.049 255.998,96C255.998,98.951 254.364,101.672 251.76,103.06L224,117.87L224,166.29C224.008,170.218 222.561,174.014 219.94,176.94C211.859,185.873 202.432,193.488 192,199.51L192,240C192,244.389 188.389,248 184,248C179.611,248 176,244.389 176,240L176,207.24C160.697,213.163 144.409,216.136 128,216C78.51,216 49.16,191.53 36.06,176.94C33.439,174.014 31.992,170.218 32,166.29L32,117.87L4.24,103.06C1.636,101.672 0.002,98.951 0.002,96C0.002,93.049 1.636,90.328 4.24,88.94L124.24,24.94C126.588,23.69 129.412,23.69 131.76,24.94L251.76,88.94Z" style="fill:rgb(127,204,231);stroke:rgb(127,204,231);stroke-width:44.93px;"/>
    </g>
    <g transform="matrix(0.623189,0,0,0.623189,2.02897,2.44708)">
        <g transform="matrix(0.125,0,0,0.125,0,0)">
            <path d="M216,113.07L216,166.29C216.005,168.244 215.293,170.134 214,171.6C202.7,184.19 175.1,208 128,208C80.9,208 53.32,184.19 42,171.6C40.707,170.134 39.995,168.244 40,166.29L40,113.07L128,160L216,113.07Z" style="fill-opacity:0.2;fill-rule:nonzero;"/>
        </g>
        <g transform="matrix(0.125,0,0,0.125,0,0)">
            <path d="M251.76,88.94L131.76,24.94C129.412,23.69 126.588,23.69 124.24,24.94L4.24,88.94C1.636,90.328 0.002,93.049 0.002,96C0.002,98.951 1.636,101.672 4.24,103.06L32,117.87L32,166.29C31.992,170.218 33.439,174.014 36.06,176.94C49.16,191.53 78.51,216 128,216C144.409,216.136 160.697,213.163 176,207.24L176,240C176,244.389 179.611,248 184,248C188.389,248 192,244.389 192,240L192,199.51C202.432,193.488 211.859,185.873 219.94,176.94C222.561,174.014 224.008,170.218 224,166.29L224,117.87L251.76,103.06C254.364,101.672 255.998,98.951 255.998,96C255.998,93.049 254.364,90.328 251.76,88.94ZM128,200C84.73,200 59.28,178.86 48,166.29L48,126.4L124.24,167.06C126.588,168.31 129.412,168.31 131.76,167.06L176,143.47L176,189.81C163.4,195.69 147.52,200 128,200ZM208,166.25C203.204,171.571 197.839,176.35 192,180.5L192,134.93L208,126.4L208,166.25ZM188,118.94L187.78,118.81L131.78,88.94C130.653,88.365 129.406,88.064 128.141,88.064C123.752,88.064 120.141,91.676 120.141,96.064C120.141,98.968 121.721,101.652 124.26,103.06L171,128L128,150.93L25,96L128,41.07L231,96L188,118.94Z" style="fill-rule:nonzero;"/>
        </g>
    </g>
</svg>
