<?xml version="1.0" encoding="UTF-8" standalone="no"?>
<!DOCTYPE svg PUBLIC "-//W3C//DTD SVG 1.1//EN" "http://www.w3.org/Graphics/SVG/1.1/DTD/svg11.dtd">
<svg width="100%" height="100%" viewBox="0 0 24 24" version="1.1" xmlns="http://www.w3.org/2000/svg" xmlns:xlink="http://www.w3.org/1999/xlink" xml:space="preserve" xmlns:serif="http://www.serif.com/" style="fill-rule:evenodd;clip-rule:evenodd;stroke-linejoin:round;stroke-miterlimit:2;">
    <g transform="matrix(0.0874453,0,0,0.0874492,0.806999,0.806978)">
        <path d="M237.2,151.87C239.053,157.054 240,162.519 240,168.024C240,194.356 218.332,216.024 192,216.024C165.668,216.024 144,194.356 144,168.024L144,96L112,96L112,168.002C112,194.334 90.332,216.004 64,216.004C37.668,216.004 16,194.336 16,168.004C16,162.499 16.947,157.034 18.8,151.85C19.468,149.986 20.253,148.165 21.15,146.4L62.74,51.78C63.133,50.869 63.697,50.041 64.4,49.34C70.399,43.34 78.545,39.965 87.03,39.965C95.515,39.965 103.661,43.34 109.66,49.34C111.159,50.841 112.002,52.878 112,55L112,80L144,80L144,55C144.004,52.885 144.846,50.856 146.34,49.36C152.339,43.36 160.485,39.985 168.97,39.985C177.455,39.985 185.601,43.36 191.6,49.36C192.303,50.061 192.867,50.889 193.26,51.8L234.85,146.42C235.747,148.185 236.532,150.006 237.2,151.87Z" style="fill:rgb(127,204,231);stroke:rgb(127,204,231);stroke-width:40.02px;"/>
    </g>
    <g transform="matrix(0.699563,0,0,0.699594,0.806999,0.806978)">
        <g transform="matrix(0.125,0,0,0.125,0,0)">
            <path d="M104,168C104,189.943 85.943,208 64,208C42.057,208 24,189.943 24,168C24,146.057 42.057,128 64,128C85.943,128 104,146.057 104,168ZM192,128C170.057,128 152,146.057 152,168C152,189.943 170.057,208 192,208C213.943,208 232,189.943 232,168C232,146.057 213.943,128 192,128Z" style="fill-opacity:0.2;fill-rule:nonzero;"/>
        </g>
        <g transform="matrix(0.125,0,0,0.125,0,0)">
            <path d="M237.2,151.87C236.532,150.006 235.747,148.185 234.85,146.42L193.26,51.8C192.867,50.889 192.303,50.061 191.6,49.36C185.601,43.36 177.455,39.985 168.97,39.985C160.485,39.985 152.339,43.36 146.34,49.36C144.846,50.856 144.004,52.885 144,55L144,80L112,80L112,55C112.002,52.878 111.159,50.841 109.66,49.34C103.661,43.34 95.515,39.965 87.03,39.965C78.545,39.965 70.399,43.34 64.4,49.34C63.697,50.041 63.133,50.869 62.74,51.78L21.15,146.4C20.253,148.165 19.468,149.986 18.8,151.85C16.947,157.034 16,162.499 16,168.004C16,194.336 37.668,216.004 64,216.004C90.332,216.004 112,194.336 112,168.004C112,168.003 112,168.001 112,168L112,96L144,96L144,168C144,168.008 144,168.016 144,168.024C144,194.356 165.668,216.024 192,216.024C218.332,216.024 240,194.356 240,168.024C240,162.519 239.053,157.054 237.2,151.87ZM76.71,59.75C82.174,55.149 90.089,54.739 96,58.75L96,132.26C83.304,120.86 65.44,117.072 49.21,122.34L76.71,59.75ZM64,200C46.445,200 32,185.555 32,168C32,150.445 46.445,136 64,136C81.555,136 96,150.445 96,168C96,185.555 81.555,200 64,200ZM160,58.74C165.911,54.729 173.826,55.139 179.29,59.74L206.79,122.32C190.559,117.055 172.694,120.846 160,132.25L160,58.74ZM192,200C174.445,200 160,185.555 160,168C160,150.445 174.445,136 192,136C209.555,136 224,150.445 224,168C224,185.555 209.555,200 192,200Z" style="fill-rule:nonzero;"/>
        </g>
    </g>
</svg>
