<?xml version="1.0" encoding="UTF-8" standalone="no"?>
<!DOCTYPE svg PUBLIC "-//W3C//DTD SVG 1.1//EN" "http://www.w3.org/Graphics/SVG/1.1/DTD/svg11.dtd">
<svg width="100%" height="100%" viewBox="0 0 24 24" version="1.1" xmlns="http://www.w3.org/2000/svg" xmlns:xlink="http://www.w3.org/1999/xlink" xml:space="preserve" xmlns:serif="http://www.serif.com/" style="fill-rule:evenodd;clip-rule:evenodd;stroke-linejoin:round;stroke-miterlimit:2;">
    <g transform="matrix(0.0876697,0,0,0.0876697,0.778274,0.769988)">
        <path d="M212,80C227.36,80 240,92.64 240,108C240,123.36 227.36,136 212,136C196.64,136 184,123.36 184,108C184,92.64 196.64,80 212,80ZM72,108C72,123.36 59.36,136 44,136C28.64,136 16,123.36 16,108C16,92.64 28.64,80 44,80C59.36,80 72,92.64 72,108ZM92,88C76.64,88 64,75.36 64,60C64,44.64 76.64,32 92,32C107.36,32 120,44.64 120,60C120,75.36 107.36,88 92,88ZM164,88C148.64,88 136,75.36 136,60C136,44.64 148.64,32 164,32C179.36,32 192,44.64 192,60C192,75.36 179.36,88 164,88ZM187.12,148.865C200.162,155.799 208.343,169.419 208.343,184.189C208.343,206.132 190.287,224.189 168.343,224.189C162.854,224.189 157.424,223.059 152.39,220.87C136.745,214.418 119.165,214.418 103.52,220.87C98.611,222.951 93.331,224.015 88,224C66.07,223.98 48.036,205.93 48.036,184C48.036,169.334 56.102,155.799 69,148.82C77.154,144.284 83.182,136.69 85.75,127.72C91.198,108.984 108.488,96.006 128,96.006C147.512,96.006 164.802,108.984 170.25,127.72C172.843,136.723 178.916,144.339 187.12,148.865Z" style="fill:rgb(152,227,137);stroke:rgb(152,227,137);stroke-width:39.92px;"/>
    </g>
    <g transform="matrix(0.701358,0,0,0.701358,0.778274,0.769988)">
        <g transform="matrix(0.125,0,0,0.125,0,0)">
            <path d="M232,108C232,118.972 222.972,128 212,128C201.028,128 192,118.972 192,108C192,97.028 201.028,88 212,88C222.972,88 232,97.028 232,108ZM64,108C64,97.028 54.972,88 44,88C33.028,88 24,97.028 24,108C24,118.972 33.028,128 44,128C54.972,128 64,118.972 64,108ZM92,80C102.972,80 112,70.972 112,60C112,49.028 102.972,40 92,40C81.028,40 72,49.028 72,60C72,70.972 81.028,80 92,80ZM164,80C174.972,80 184,70.972 184,60C184,49.028 174.972,40 164,40C153.028,40 144,49.028 144,60C144,70.972 153.028,80 164,80ZM183.24,155.85C173.214,150.299 165.78,141.002 162.57,130C158.115,114.668 143.967,104.046 128,104.046C112.033,104.046 97.885,114.668 93.43,130C90.229,141.019 82.794,150.335 72.76,155.9C62.345,161.453 55.816,172.334 55.816,184.137C55.816,201.692 70.261,216.137 87.816,216.137C92.174,216.137 96.488,215.246 100.49,213.52C118.105,206.298 137.875,206.298 155.49,213.52C159.492,215.246 163.806,216.137 168.164,216.137C185.719,216.137 200.164,201.692 200.164,184.137C200.164,172.334 193.635,161.453 183.22,155.9L183.24,155.85Z" style="fill-opacity:0.2;fill-rule:nonzero;"/>
        </g>
        <g transform="matrix(0.125,0,0,0.125,0,0)">
            <path d="M212,80C196.64,80 184,92.64 184,108C184,123.36 196.64,136 212,136C227.36,136 240,123.36 240,108C240,92.64 227.36,80 212,80ZM212,120C205.417,120 200,114.583 200,108C200,101.417 205.417,96 212,96C218.583,96 224,101.417 224,108C224,114.583 218.583,120 212,120ZM72,108C72,92.64 59.36,80 44,80C28.64,80 16,92.64 16,108C16,123.36 28.64,136 44,136C59.36,136 72,123.36 72,108ZM44,120C37.417,120 32,114.583 32,108C32,101.417 37.417,96 44,96C50.583,96 56,101.417 56,108C56,114.583 50.583,120 44,120ZM92,88C107.36,88 120,75.36 120,60C120,44.64 107.36,32 92,32C76.64,32 64,44.64 64,60C64,75.36 76.64,88 92,88ZM92,48C98.583,48 104,53.417 104,60C104,66.583 98.583,72 92,72C85.417,72 80,66.583 80,60C80,53.417 85.417,48 92,48ZM164,88C179.36,88 192,75.36 192,60C192,44.64 179.36,32 164,32C148.64,32 136,44.64 136,60C136,75.36 148.64,88 164,88ZM164,48C170.583,48 176,53.417 176,60C176,66.583 170.583,72 164,72C157.417,72 152,66.583 152,60C152,53.417 157.417,48 164,48ZM187.12,148.86C178.916,144.334 172.843,136.723 170.25,127.72C164.802,108.984 147.512,96.006 128,96.006C108.488,96.006 91.198,108.984 85.75,127.72C83.182,136.69 77.154,144.284 69,148.82C56.102,155.799 48.036,169.334 48.036,184C48.036,205.93 66.07,223.98 88,224C93.331,224.015 98.611,222.951 103.52,220.87C119.165,214.418 136.745,214.418 152.39,220.87C157.424,223.059 162.854,224.189 168.343,224.189C190.287,224.189 208.343,206.132 208.343,184.189C208.343,169.419 200.162,155.804 187.12,148.87L187.12,148.86ZM168,208C164.752,208.003 161.537,207.346 158.55,206.07C138.964,197.98 116.946,197.98 97.36,206.07C94.362,207.361 91.133,208.026 87.869,208.026C74.703,208.026 63.869,197.192 63.869,184.026C63.869,175.145 68.799,166.962 76.65,162.81C88.546,156.24 97.351,145.199 101.11,132.14C104.573,120.211 115.579,111.946 128,111.946C140.421,111.946 151.427,120.211 154.89,132.14C158.661,145.224 167.493,156.281 179.42,162.85C187.202,167.024 192.077,175.169 192.077,184C192.077,197.166 181.243,208 168.077,208C168.051,208 168.026,208 168,208Z" style="fill-rule:nonzero;"/>
        </g>
    </g>
</svg>
