<?xml version="1.0" encoding="UTF-8" standalone="no"?>
<!DOCTYPE svg PUBLIC "-//W3C//DTD SVG 1.1//EN" "http://www.w3.org/Graphics/SVG/1.1/DTD/svg11.dtd">
<svg width="100%" height="100%" viewBox="0 0 24 24" version="1.1" xmlns="http://www.w3.org/2000/svg" xmlns:xlink="http://www.w3.org/1999/xlink" xml:space="preserve" xmlns:serif="http://www.serif.com/" style="fill-rule:evenodd;clip-rule:evenodd;stroke-linecap:round;stroke-linejoin:round;">
    <g transform="matrix(0.0869565,0,0,0.0869565,-0.63285,-1.155)">
        <path d="M283.278,68.483L283.278,234.083C283.278,264.548 258.544,289.283 228.078,289.283L62.478,289.283C32.012,289.283 7.278,264.548 7.278,234.083L7.278,68.483C7.278,38.017 32.012,13.283 62.478,13.283L228.078,13.283C258.544,13.283 283.278,38.017 283.278,68.483Z" style="fill:rgb(127,204,231);"/>
        <path d="M283.278,68.483L283.278,234.083C283.278,264.548 258.544,289.283 228.078,289.283L62.478,289.283C32.012,289.283 7.278,264.548 7.278,234.083L7.278,68.483C7.278,38.017 32.012,13.283 62.478,13.283L228.078,13.283C258.544,13.283 283.278,38.017 283.278,68.483ZM264.878,68.482C264.878,48.172 248.388,31.683 228.078,31.683L62.478,31.683C42.167,31.683 25.678,48.172 25.678,68.483L25.678,234.083C25.678,254.393 42.167,270.883 62.478,270.883L228.078,270.883C248.388,270.883 264.878,254.393 264.878,234.083L264.878,68.482Z" style="fill-opacity:0.2;"/>
    </g>
    <g transform="matrix(0.08,0,0,0.08,12,12)">
        <g transform="matrix(1,0,0,1,-128,-128)">
            <rect x="0" y="0" width="256" height="256" style="fill:none;"/>
            <path d="M152,96L232,136L232,168L152,152L152,184L168,200L168,232L128,216L88,232L88,200L104,184L104,152L24,168L24,136L104,96L104,48C104,34.834 114.834,24 128,24C141.166,24 152,34.834 152,48L152,96Z" style="fill-opacity:0.2;fill-rule:nonzero;"/>
            <path d="M152,96L232,136L232,168L152,152L152,184L168,200L168,232L128,216L88,232L88,200L104,184L104,152L24,168L24,136L104,96L104,48C104,34.834 114.834,24 128,24C141.166,24 152,34.834 152,48L152,96Z" style="fill:none;fill-rule:nonzero;stroke:black;stroke-width:16px;"/>
        </g>
    </g>
</svg>
