<?xml version="1.0" encoding="UTF-8" standalone="no"?>
<!DOCTYPE svg PUBLIC "-//W3C//DTD SVG 1.1//EN" "http://www.w3.org/Graphics/SVG/1.1/DTD/svg11.dtd">
<svg width="100%" height="100%" viewBox="0 0 24 24" version="1.1" xmlns="http://www.w3.org/2000/svg" xmlns:xlink="http://www.w3.org/1999/xlink" xml:space="preserve" xmlns:serif="http://www.serif.com/" style="fill-rule:evenodd;clip-rule:evenodd;stroke-linejoin:round;stroke-miterlimit:2;">
    <g transform="matrix(0.0869565,0,0,0.0869565,-0.63285,-1.155)">
        <path d="M283.278,68.288L283.278,234.277C283.278,264.636 258.631,289.283 228.273,289.283L62.283,289.283C31.925,289.283 7.278,264.636 7.278,234.277L7.278,68.288C7.278,37.93 31.925,13.283 62.283,13.283L228.273,13.283C258.631,13.283 283.278,37.93 283.278,68.288Z" style="fill:rgb(127,204,231);"/>
        <path d="M283.278,68.288L283.278,234.277C283.278,264.636 258.631,289.283 228.273,289.283L62.283,289.283C31.925,289.283 7.278,264.636 7.278,234.277L7.278,68.288C7.278,37.93 31.925,13.283 62.283,13.283L228.273,13.283C258.631,13.283 283.278,37.93 283.278,68.288ZM264.878,68.288C264.878,48.085 248.475,31.683 228.273,31.683L62.283,31.683C42.08,31.683 25.678,48.085 25.678,68.288L25.678,234.277C25.678,254.48 42.08,270.883 62.283,270.883L228.273,270.883C248.476,270.883 264.878,254.48 264.878,234.277L264.878,68.288Z" style="fill-opacity:0.2;"/>
    </g>
    <g transform="matrix(0.64,0,0,0.64,12,12)">
        <g transform="matrix(1,0,0,1,-16,-16)">
            <g transform="matrix(0.125,0,0,0.125,0,0)">
                <path d="M124.88,109.74L27.15,145.33C25.073,139.627 24.011,133.604 24.011,127.535C24.011,99.006 47.486,75.531 76.015,75.531C97.823,75.531 117.418,89.248 124.88,109.74ZM212.88,94.67L115.15,130.26C122.612,150.752 142.207,164.469 164.015,164.469C192.544,164.469 216.019,140.994 216.019,112.465C216.019,106.396 214.957,100.373 212.88,94.67Z" style="fill-opacity:0.2;fill-rule:nonzero;"/>
            </g>
            <g transform="matrix(0.125,0,0,0.125,0,0)">
                <path d="M229.66,218.34L181.24,169.93C182.34,169.6 183.43,169.25 184.51,168.86C215.418,157.602 231.6,122.918 220.37,92C218.868,87.878 214.243,85.721 210.12,87.22L165.92,103.3C166.24,102.68 166.56,102.06 166.85,101.42C170.557,93.475 172.479,84.814 172.479,76.047C172.479,43.132 145.394,16.047 112.479,16.047C105.495,16.047 98.565,17.266 92,19.65C88.83,20.788 86.703,23.811 86.703,27.179C86.703,28.107 86.865,29.028 87.18,29.9L103.26,74.1C102.64,73.78 102.02,73.46 101.38,73.17C93.444,69.472 84.793,67.555 76.038,67.555C43.123,67.555 16.038,94.64 16.038,127.555C16.038,134.548 17.26,141.488 19.65,148.06C21.152,152.182 25.777,154.339 29.9,152.84L74.1,136.75C73.78,137.38 73.46,138 73.17,138.64C69.472,146.576 67.555,155.227 67.555,163.982C67.555,196.897 94.64,223.982 127.555,223.982C134.548,223.982 141.488,222.76 148.06,220.37C152.182,218.868 154.339,214.243 152.84,210.12L136.75,165.92C137.38,166.24 138,166.56 138.64,166.85C145.699,170.156 153.335,172.051 161.12,172.43L218.34,229.66C219.841,231.161 221.878,232.004 224,232.004C228.391,232.004 232.004,228.391 232.004,224C232.004,221.878 231.161,219.841 229.66,218.34ZM131.07,36.15C146.57,43.352 156.529,58.961 156.529,76.053C156.529,91.642 148.244,106.11 134.8,114L105.19,32.63C113.973,31.133 123.006,32.362 131.07,36.15ZM32.63,134.82C32.211,132.369 32,129.887 32,127.401C32,103.263 51.862,83.401 76,83.401C91.626,83.401 106.123,91.725 114,105.22L32.63,134.82ZM109,203.87C93.52,196.659 83.579,181.062 83.579,163.985C83.579,148.412 91.847,133.956 105.27,126.06L134.87,207.39C126.091,208.887 117.06,207.658 109,203.87ZM164.56,156.49L164.45,156.49C148.737,156.609 134.101,148.329 126.11,134.8L207.44,105.19C207.839,107.584 208.04,110.007 208.04,112.434C208.04,136.385 188.509,156.174 164.56,156.49Z" style="fill-rule:nonzero;"/>
            </g>
        </g>
    </g>
</svg>
