<?xml version="1.0" encoding="UTF-8" standalone="no"?>
<!DOCTYPE svg PUBLIC "-//W3C//DTD SVG 1.1//EN" "http://www.w3.org/Graphics/SVG/1.1/DTD/svg11.dtd">
<svg width="100%" height="100%" viewBox="0 0 24 24" version="1.1" xmlns="http://www.w3.org/2000/svg" xmlns:xlink="http://www.w3.org/1999/xlink" xml:space="preserve" xmlns:serif="http://www.serif.com/" style="fill-rule:evenodd;clip-rule:evenodd;stroke-linejoin:round;stroke-miterlimit:2;">
    <g transform="matrix(0.0869565,0,0,0.0869565,-0.63285,-1.155)">
        <path d="M283.278,68.483L283.278,234.083C283.278,264.548 258.544,289.283 228.078,289.283L62.478,289.283C32.012,289.283 7.278,264.548 7.278,234.083L7.278,68.483C7.278,38.017 32.012,13.283 62.478,13.283L228.078,13.283C258.544,13.283 283.278,38.017 283.278,68.483Z" style="fill:rgb(255,237,150);"/>
        <path d="M283.278,68.483L283.278,234.083C283.278,264.548 258.544,289.283 228.078,289.283L62.478,289.283C32.012,289.283 7.278,264.548 7.278,234.083L7.278,68.483C7.278,38.017 32.012,13.283 62.478,13.283L228.078,13.283C258.544,13.283 283.278,38.017 283.278,68.483ZM264.878,68.482C264.878,48.172 248.388,31.683 228.078,31.683L62.478,31.683C42.167,31.683 25.678,48.172 25.678,68.483L25.678,234.083C25.678,254.393 42.167,270.883 62.478,270.883L228.078,270.883C248.388,270.883 264.878,254.393 264.878,234.083L264.878,68.482Z" style="fill-opacity:0.2;"/>
    </g>
    <g transform="matrix(0.64,0,0,0.64,12,12)">
        <g transform="matrix(1,0,0,1,-16,-16)">
            <g transform="matrix(0.125,0,0,0.125,0,0)">
                <path d="M32,140C32,129.028 41.028,120 52,120C62.972,120 72,129.028 72,140C72,150.972 62.972,160 52,160C41.028,160 32,150.972 32,140ZM128,192C64,192 24,224 24,224L232,224C232,224 192,192 128,192Z" style="fill-opacity:0.2;fill-rule:nonzero;"/>
            </g>
            <g transform="matrix(0.125,0,0,0.125,0,0)">
                <path d="M238.25,229C236.733,230.898 234.431,232.005 232.001,232.005C230.183,232.005 228.419,231.386 227,230.25C226.63,229.95 188.18,200 128,200C67.82,200 29.36,230 29,230.26C27.581,231.394 25.817,232.013 24,232.013C19.607,232.013 15.992,228.398 15.992,224.005C15.992,221.573 17.1,219.269 19,217.75C20.63,216.45 57.52,187.49 117.29,184.3C114.181,171.913 113.07,159.108 114,146.37C115.74,124.66 124.92,95.74 157,73.89C152.088,72.696 147.055,72.068 142,72.02L140.33,72.02C121.33,72.64 109.39,83.73 103.83,105.94C102.937,109.514 99.684,112.032 96,112C95.346,112.003 94.694,111.923 94.06,111.76C89.803,110.695 87.176,106.317 88.24,102.06C97.49,65.11 121.35,56.64 139.74,56.06C147.044,55.901 154.336,56.725 161.42,58.51C157.59,52.18 151.99,45.58 144.21,42.26C134.21,38.02 122.04,39.87 107.9,47.77C106.708,48.434 105.365,48.783 104,48.783C99.604,48.783 95.987,45.166 95.987,40.77C95.987,37.867 97.564,35.183 100.1,33.77C118.84,23.32 135.82,21.23 150.58,27.57C163.07,32.93 171.31,43.35 176.45,52.57C182.63,42.93 190.33,36.4 198.84,33.63C210.7,29.76 223.48,32.91 236.84,43C238.723,44.518 239.819,46.81 239.819,49.228C239.819,53.617 236.208,57.228 231.819,57.228C230.165,57.228 228.551,56.715 227.2,55.76C218.29,49.03 210.43,46.7 203.85,48.83C196.56,51.18 190.98,58.83 187.48,65.44C194.676,66.899 201.599,69.473 208,73.07C222.61,81.42 240,99.12 240,136.01C240,140.399 236.389,144.01 232,144.01C227.611,144.01 224,140.399 224,136.01C224,112.55 215.93,96.01 200,87.01C198.144,85.956 196.224,85.021 194.25,84.21C199.286,94.449 201.053,105.993 199.31,117.27C198.053,125.614 195.032,133.595 190.45,140.68C188.95,142.784 186.52,144.035 183.936,144.035C179.548,144.035 175.936,140.424 175.936,136.035C175.936,134.408 176.433,132.818 177.36,131.48C178.1,130.39 193.69,107.1 174.1,82.11C147.1,97.32 132.21,119.36 129.94,147.7C129.056,159.977 130.352,172.315 133.77,184.14C196.42,185.95 235.29,216.47 236.97,217.8C240.379,220.53 240.955,225.572 238.25,229ZM24,140C24,124.64 36.64,112 52,112C67.36,112 80,124.64 80,140C80,155.36 67.36,168 52,168C36.64,168 24,155.36 24,140ZM40,140C40,146.583 45.417,152 52,152C58.583,152 64,146.583 64,140C64,133.417 58.583,128 52,128C45.417,128 40,133.417 40,140Z" style="fill-rule:nonzero;"/>
            </g>
        </g>
    </g>
</svg>
