<?xml version="1.0" encoding="UTF-8" standalone="no"?>
<!DOCTYPE svg PUBLIC "-//W3C//DTD SVG 1.1//EN" "http://www.w3.org/Graphics/SVG/1.1/DTD/svg11.dtd">
<svg width="100%" height="100%" viewBox="0 0 24 24" version="1.1" xmlns="http://www.w3.org/2000/svg" xmlns:xlink="http://www.w3.org/1999/xlink" xml:space="preserve" xmlns:serif="http://www.serif.com/" style="fill-rule:evenodd;clip-rule:evenodd;stroke-linejoin:round;stroke-miterlimit:2;">
    <g transform="matrix(0.0869565,0,0,0.0869565,-0.63285,-1.155)">
        <path d="M283.278,68.483L283.278,234.083C283.278,264.548 258.544,289.283 228.078,289.283L62.478,289.283C32.012,289.283 7.278,264.548 7.278,234.083L7.278,68.483C7.278,38.017 32.012,13.283 62.478,13.283L228.078,13.283C258.544,13.283 283.278,38.017 283.278,68.483Z" style="fill:rgb(127,204,231);"/>
        <path d="M283.278,68.483L283.278,234.083C283.278,264.548 258.544,289.283 228.078,289.283L62.478,289.283C32.012,289.283 7.278,264.548 7.278,234.083L7.278,68.483C7.278,38.017 32.012,13.283 62.478,13.283L228.078,13.283C258.544,13.283 283.278,38.017 283.278,68.483ZM264.878,68.482C264.878,48.172 248.388,31.683 228.078,31.683L62.478,31.683C42.167,31.683 25.678,48.172 25.678,68.483L25.678,234.083C25.678,254.393 42.167,270.883 62.478,270.883L228.078,270.883C248.388,270.883 264.878,254.393 264.878,234.083L264.878,68.482Z" style="fill-opacity:0.2;"/>
    </g>
    <g transform="matrix(0.613753,0,0,0.613753,12,12)">
        <g transform="matrix(1,0,0,1,-16,-16)">
            <clipPath id="_clip1">
                <rect x="0" y="0" width="32" height="32"/>
            </clipPath>
            <g clip-path="url(#_clip1)">
                <g transform="matrix(0.125,0,0,0.125,0,0)">
                    <path d="M248,160C248,181.943 229.943,200 208,200C186.057,200 168,181.943 168,160C168,138.057 186.057,120 208,120C229.943,120 248,138.057 248,160ZM48,120C26.057,120 8,138.057 8,160C8,181.943 26.057,200 48,200C69.943,200 88,181.943 88,160C88,138.057 69.943,120 48,120Z" style="fill-opacity:0.2;fill-rule:nonzero;"/>
                </g>
                <g transform="matrix(0.125,0,0,0.125,0,0)">
                    <path d="M208,112C202.216,111.997 196.48,113.044 191.07,115.09L165.93,72L192,72C196.389,72 200,75.611 200,80C200,84.389 203.611,88 208,88C212.389,88 216,84.389 216,80C216,66.834 205.166,56 192,56L152,56C147.618,56.01 144.018,59.618 144.018,64C144.018,65.404 144.388,66.784 145.09,68L156.74,88L99.26,88L82.91,60C81.486,57.533 78.848,56.006 76,56L48,56C43.611,56 40,59.611 40,64C40,68.389 43.611,72 48,72L71.41,72L85.12,95.51L69.41,117.06C62.723,113.714 55.348,111.971 47.871,111.971C21.467,111.971 -0.259,133.698 -0.259,160.101C-0.259,186.505 21.467,208.231 47.871,208.231C74.274,208.231 96.001,186.505 96.001,160.101C96.001,147.551 91.092,135.486 82.33,126.5L93.92,110.6L125.09,164C126.441,166.713 129.221,168.434 132.251,168.434C136.64,168.434 140.251,164.823 140.251,160.434C140.251,158.856 139.785,157.313 138.91,156L108.59,104L166.07,104L177.26,123.17C166.355,132.285 160.042,145.787 160.042,160C160.042,186.332 181.71,208 208.042,208C234.374,208 256.042,186.332 256.042,160C256.042,133.668 234.374,112 208.042,112C208.028,112 208.014,112 208,112ZM80,160C80,160.003 80,160.006 80,160.009C80,177.564 65.555,192.009 48,192.009C30.445,192.009 16,177.564 16,160.009C16,142.454 30.445,128.009 48,128.009C52.037,128.009 56.037,128.773 59.79,130.26L41.54,155.26C40.432,156.67 39.829,158.412 39.829,160.205C39.829,164.593 43.44,168.205 47.829,168.205C50.485,168.205 52.974,166.882 54.46,164.68L72.71,139.68C77.428,145.398 80.007,152.587 80,160ZM208,192C190.455,191.987 176.024,177.545 176.024,160C176.024,151.471 179.434,143.286 185.49,137.28L201.09,164C202.441,166.713 205.221,168.434 208.251,168.434C212.64,168.434 216.251,164.823 216.251,160.434C216.251,158.856 215.785,157.313 214.91,156L199.3,129.21C202.136,128.407 205.069,128 208.016,128C225.571,128 240.016,142.445 240.016,160C240.016,177.555 225.571,192 208.016,192C208.011,192 208.005,192 208,192Z" style="fill-rule:nonzero;"/>
                </g>
            </g>
        </g>
    </g>
</svg>
