<?xml version="1.0" encoding="UTF-8" standalone="no"?>
<!DOCTYPE svg PUBLIC "-//W3C//DTD SVG 1.1//EN" "http://www.w3.org/Graphics/SVG/1.1/DTD/svg11.dtd">
<svg width="100%" height="100%" viewBox="0 0 24 24" version="1.1" xmlns="http://www.w3.org/2000/svg" xmlns:xlink="http://www.w3.org/1999/xlink" xml:space="preserve" xmlns:serif="http://www.serif.com/" style="fill-rule:evenodd;clip-rule:evenodd;stroke-linejoin:round;stroke-miterlimit:2;">
    <g transform="matrix(0.0869565,0,0,0.0869565,-0.63285,-1.155)">
        <path d="M283.278,68.483L283.278,234.083C283.278,264.548 258.544,289.283 228.078,289.283L62.478,289.283C32.012,289.283 7.278,264.548 7.278,234.083L7.278,68.483C7.278,38.017 32.012,13.283 62.478,13.283L228.078,13.283C258.544,13.283 283.278,38.017 283.278,68.483Z" style="fill:rgb(127,204,231);"/>
        <path d="M283.278,68.483L283.278,234.083C283.278,264.548 258.544,289.283 228.078,289.283L62.478,289.283C32.012,289.283 7.278,264.548 7.278,234.083L7.278,68.483C7.278,38.017 32.012,13.283 62.478,13.283L228.078,13.283C258.544,13.283 283.278,38.017 283.278,68.483ZM264.878,68.482C264.878,48.172 248.388,31.683 228.078,31.683L62.478,31.683C42.167,31.683 25.678,48.172 25.678,68.483L25.678,234.083C25.678,254.393 42.167,270.883 62.478,270.883L228.078,270.883C248.388,270.883 264.878,254.393 264.878,234.083L264.878,68.482Z" style="fill-opacity:0.2;"/>
    </g>
    <g transform="matrix(0.58161,0,0,0.58161,12,12.5333)">
        <g transform="matrix(1,0,0,1,-16,-16)">
            <g transform="matrix(0.125,0,0,0.125,0,0)">
                <path d="M208,88L208,136C208.007,170.341 187.912,201.678 156.7,216L83.3,216C52.088,201.678 31.993,170.341 32,136L32,88L208,88Z" style="fill-opacity:0.2;fill-rule:nonzero;"/>
            </g>
            <g transform="matrix(0.125,0,0,0.125,0,0)">
                <path d="M80,56L80,24C80,19.611 83.611,16 88,16C92.389,16 96,19.611 96,24L96,56C96,60.389 92.389,64 88,64C83.611,64 80,60.389 80,56ZM120,64C124.389,64 128,60.389 128,56L128,24C128,19.611 124.389,16 120,16C115.611,16 112,19.611 112,24L112,56C112,60.389 115.611,64 120,64ZM152,64C156.389,64 160,60.389 160,56L160,24C160,19.611 156.389,16 152,16C147.611,16 144,19.611 144,24L144,56C144,60.389 147.611,64 152,64ZM248,120L248,128C247.993,149 231.45,166.603 210.49,167.91C205.033,183.345 195.741,197.142 183.49,208L208,208C212.389,208 216,211.611 216,216C216,220.389 212.389,224 208,224L32,224C27.611,224 24,220.389 24,216C24,211.611 27.611,208 32,208L56.54,208C35.904,189.769 24.048,163.535 24,136L24,88C24,83.611 27.611,80 32,80L208,80C229.943,80 248,98.057 248,120ZM200,96L40,96L40,136C40.063,166.596 57.613,194.602 85.12,208L154.88,208C182.387,194.602 199.937,166.596 200,136L200,96ZM232,120C231.997,109.856 225.563,100.761 216,97.38L216,136C215.994,141.024 215.593,146.039 214.8,151C224.965,147.997 231.993,138.599 232,128L232,120Z" style="fill-rule:nonzero;"/>
            </g>
        </g>
    </g>
</svg>
