<?xml version="1.0" encoding="UTF-8" standalone="no"?>
<!DOCTYPE svg PUBLIC "-//W3C//DTD SVG 1.1//EN" "http://www.w3.org/Graphics/SVG/1.1/DTD/svg11.dtd">
<svg width="100%" height="100%" viewBox="0 0 24 24" version="1.1" xmlns="http://www.w3.org/2000/svg" xmlns:xlink="http://www.w3.org/1999/xlink" xml:space="preserve" xmlns:serif="http://www.serif.com/" style="fill-rule:evenodd;clip-rule:evenodd;stroke-linejoin:round;stroke-miterlimit:2;">
    <g transform="matrix(0.0869565,0,0,0.0869565,-0.63285,-1.155)">
        <path d="M283.278,68.483L283.278,234.083C283.278,264.548 258.544,289.283 228.078,289.283L62.478,289.283C32.012,289.283 7.278,264.548 7.278,234.083L7.278,68.483C7.278,38.017 32.012,13.283 62.478,13.283L228.078,13.283C258.544,13.283 283.278,38.017 283.278,68.483Z" style="fill:rgb(152,227,137);"/>
        <path d="M283.278,68.483L283.278,234.083C283.278,264.548 258.544,289.283 228.078,289.283L62.478,289.283C32.012,289.283 7.278,264.548 7.278,234.083L7.278,68.483C7.278,38.017 32.012,13.283 62.478,13.283L228.078,13.283C258.544,13.283 283.278,38.017 283.278,68.483ZM264.878,68.482C264.878,48.172 248.388,31.683 228.078,31.683L62.478,31.683C42.167,31.683 25.678,48.172 25.678,68.483L25.678,234.083C25.678,254.393 42.167,270.883 62.478,270.883L228.078,270.883C248.388,270.883 264.878,254.393 264.878,234.083L264.878,68.482Z" style="fill-opacity:0.2;"/>
    </g>
    <g transform="matrix(0.64,0,0,0.64,12,12)">
        <g transform="matrix(1,0,0,1,-16,-16)">
            <g transform="matrix(0.125,0,0,0.125,0,0)">
                <path d="M184.32,216L71.68,216L128,128L184.32,216Z" style="fill-opacity:0.2;fill-rule:nonzero;"/>
            </g>
            <g transform="matrix(0.125,0,0,0.125,0,0)">
                <path d="M238.74,211.69L137.5,53.5L158.74,20.31C159.563,19.023 160,17.527 160,16C160,11.611 156.389,8 152,8C149.274,8 146.729,9.393 145.26,11.69L128,38.66L110.74,11.66C109.271,9.363 106.726,7.97 104,7.97C99.611,7.97 96,11.581 96,15.97C96,17.497 96.437,18.993 97.26,20.28L118.5,53.5L17.26,211.69C16.437,212.977 16,214.473 16,216C16,220.389 19.611,224 24,224L232,224C236.389,224 240,220.389 240,216C240,214.473 239.563,212.977 238.74,211.69ZM86.3,208L128,142.84L169.7,208L86.3,208ZM188.7,208L134.7,123.69C133.231,121.393 130.686,120 127.96,120C125.234,120 122.689,121.393 121.22,123.69L67.3,208L38.62,208L128,68.34L217.38,208L188.7,208Z" style="fill-rule:nonzero;"/>
            </g>
        </g>
    </g>
</svg>
