<?xml version="1.0" encoding="UTF-8" standalone="no"?>
<!DOCTYPE svg PUBLIC "-//W3C//DTD SVG 1.1//EN" "http://www.w3.org/Graphics/SVG/1.1/DTD/svg11.dtd">
<svg width="100%" height="100%" viewBox="0 0 24 24" version="1.1" xmlns="http://www.w3.org/2000/svg" xmlns:xlink="http://www.w3.org/1999/xlink" xml:space="preserve" xmlns:serif="http://www.serif.com/" style="fill-rule:evenodd;clip-rule:evenodd;stroke-linejoin:round;stroke-miterlimit:2;">
    <g transform="matrix(0.0869565,0,0,0.0869565,-0.63285,-1.155)">
        <path d="M283.278,68.483L283.278,234.083C283.278,264.548 258.544,289.283 228.078,289.283L62.478,289.283C32.012,289.283 7.278,264.548 7.278,234.083L7.278,68.483C7.278,38.017 32.012,13.283 62.478,13.283L228.078,13.283C258.544,13.283 283.278,38.017 283.278,68.483Z" style="fill:rgb(127,204,231);"/>
        <path d="M283.278,68.483L283.278,234.083C283.278,264.548 258.544,289.283 228.078,289.283L62.478,289.283C32.012,289.283 7.278,264.548 7.278,234.083L7.278,68.483C7.278,38.017 32.012,13.283 62.478,13.283L228.078,13.283C258.544,13.283 283.278,38.017 283.278,68.483ZM264.878,68.482C264.878,48.172 248.388,31.683 228.078,31.683L62.478,31.683C42.167,31.683 25.678,48.172 25.678,68.483L25.678,234.083C25.678,254.393 42.167,270.883 62.478,270.883L228.078,270.883C248.388,270.883 264.878,254.393 264.878,234.083L264.878,68.482Z" style="fill-opacity:0.2;"/>
    </g>
    <g transform="matrix(0.533333,0,0,0.533333,12,12)">
        <g transform="matrix(1,0,0,1,-16,-16)">
            <g transform="matrix(0.125,0,0,0.125,0,0)">
                <path d="M128,24C75,24 32,65.19 32,116C32,150.05 51.31,179.78 80,195.69L80,216C80,220.389 83.611,224 88,224L168,224C172.389,224 176,220.389 176,216L176,195.69C204.69,179.78 224,150.05 224,116C224,65.19 181,24 128,24ZM92,152C81.028,152 72,142.972 72,132C72,121.028 81.028,112 92,112C102.972,112 112,121.028 112,132C112,142.972 102.972,152 92,152ZM164,152C153.028,152 144,142.972 144,132C144,121.028 153.028,112 164,112C174.972,112 184,121.028 184,132C184,142.972 174.972,152 164,152Z" style="fill-opacity:0.2;fill-rule:nonzero;"/>
            </g>
            <g transform="matrix(0.125,0,0,0.125,0,0)">
                <path d="M92,104C76.64,104 64,116.64 64,132C64,147.36 76.64,160 92,160C107.36,160 120,147.36 120,132C120,116.64 107.36,104 92,104ZM92,144C85.417,144 80,138.583 80,132C80,125.417 85.417,120 92,120C98.583,120 104,125.417 104,132C104,138.583 98.583,144 92,144ZM164,104C148.64,104 136,116.64 136,132C136,147.36 148.64,160 164,160C179.36,160 192,147.36 192,132C192,116.64 179.36,104 164,104ZM164,144C157.417,144 152,138.583 152,132C152,125.417 157.417,120 164,120C170.583,120 176,125.417 176,132C176,138.583 170.583,144 164,144ZM128,16C70.65,16 24,60.86 24,116C24,150.1 42.27,182 72,200.28L72,216C72,224.777 79.223,232 88,232L168,232C176.777,232 184,224.777 184,216L184,200.28C213.73,182 232,150.1 232,116C232,60.86 185.35,16 128,16ZM172.12,188.69C169.58,190.099 167.999,192.785 168,195.69L168,216L152,216L152,192C152,187.611 148.389,184 144,184C139.611,184 136,187.611 136,192L136,216L120,216L120,192C120,187.611 116.389,184 112,184C107.611,184 104,187.611 104,192L104,216L88,216L88,195.69C88.001,192.785 86.42,190.099 83.88,188.69C56.81,173.69 40,145.84 40,116C40,69.68 79.48,32 128,32C176.52,32 216,69.68 216,116C216,145.83 199.19,173.69 172.12,188.69Z" style="fill-rule:nonzero;"/>
            </g>
        </g>
    </g>
</svg>
