<?xml version="1.0" encoding="UTF-8" standalone="no"?>
<!DOCTYPE svg PUBLIC "-//W3C//DTD SVG 1.1//EN" "http://www.w3.org/Graphics/SVG/1.1/DTD/svg11.dtd">
<svg width="100%" height="100%" viewBox="0 0 24 24" version="1.1" xmlns="http://www.w3.org/2000/svg" xmlns:xlink="http://www.w3.org/1999/xlink" xml:space="preserve" xmlns:serif="http://www.serif.com/" style="fill-rule:evenodd;clip-rule:evenodd;stroke-linejoin:round;stroke-miterlimit:2;">
    <g transform="matrix(0.0869565,0,0,0.0869565,-0.63285,-1.155)">
        <path d="M283.278,68.483L283.278,234.083C283.278,264.548 258.544,289.283 228.078,289.283L62.478,289.283C32.012,289.283 7.278,264.548 7.278,234.083L7.278,68.483C7.278,38.017 32.012,13.283 62.478,13.283L228.078,13.283C258.544,13.283 283.278,38.017 283.278,68.483Z" style="fill:rgb(127,204,231);"/>
        <path d="M283.278,68.483L283.278,234.083C283.278,264.548 258.544,289.283 228.078,289.283L62.478,289.283C32.012,289.283 7.278,264.548 7.278,234.083L7.278,68.483C7.278,38.017 32.012,13.283 62.478,13.283L228.078,13.283C258.544,13.283 283.278,38.017 283.278,68.483ZM264.878,68.482C264.878,48.172 248.388,31.683 228.078,31.683L62.478,31.683C42.167,31.683 25.678,48.172 25.678,68.483L25.678,234.083C25.678,254.393 42.167,270.883 62.478,270.883L228.078,270.883C248.388,270.883 264.878,254.393 264.878,234.083L264.878,68.482Z" style="fill-opacity:0.2;"/>
    </g>
    <g transform="matrix(0.533333,0,0,0.533333,12,12)">
        <g transform="matrix(1,0,0,1,-16,-16)">
            <g transform="matrix(0.125,0,0,0.125,0,0)">
                <path d="M67.71,64.59L115.5,92.19L40.43,112L32.27,82C32.096,81.347 32.008,80.675 32.008,79.999C32.008,76.464 34.424,73.354 37.85,72.48L67.71,64.59ZM199.84,37.76C198.676,33.619 194.333,31.151 190.18,32.27L126.61,49.05L174.4,76.64L208,67.77L199.84,37.76Z" style="fill-opacity:0.2;fill-rule:nonzero;"/>
            </g>
            <g transform="matrix(0.125,0,0,0.125,0,0)">
                <path d="M216,104L102.09,104L210,75.51C213.502,74.587 215.962,71.396 215.962,67.774C215.962,67.063 215.867,66.356 215.68,65.67L207.52,35.67C205.198,27.325 196.474,22.325 188.1,24.54L35.81,64.74C31.715,65.803 28.217,68.472 26.11,72.14C23.991,75.764 23.431,80.097 24.56,84.14L32,111.56L32,200C32,208.777 39.223,216 48,216L208,216C216.777,216 224,208.777 224,200L224,112C224,107.611 220.389,104 216,104ZM192.16,40L198.16,62.07L175.54,68.07L147.42,51.83L192.16,40ZM125.47,57.6L153.59,73.84L116.65,83.59L88.53,67.37L125.47,57.6ZM46.07,102.22L40.07,80.14L66.57,73.14L94.69,89.4L46.07,102.22ZM208,200L48,200L48,120L208,120L208,200Z" style="fill-rule:nonzero;"/>
            </g>
        </g>
    </g>
</svg>
