<?xml version="1.0" encoding="UTF-8" standalone="no"?>
<!DOCTYPE svg PUBLIC "-//W3C//DTD SVG 1.1//EN" "http://www.w3.org/Graphics/SVG/1.1/DTD/svg11.dtd">
<svg width="100%" height="100%" viewBox="0 0 24 24" version="1.1" xmlns="http://www.w3.org/2000/svg" xmlns:xlink="http://www.w3.org/1999/xlink" xml:space="preserve" xmlns:serif="http://www.serif.com/" style="fill-rule:evenodd;clip-rule:evenodd;stroke-linejoin:round;stroke-miterlimit:2;">
    <g transform="matrix(0.0869565,0,0,0.0869565,-0.63285,-1.155)">
        <path d="M283.278,68.483L283.278,234.083C283.278,264.548 258.544,289.283 228.078,289.283L62.478,289.283C32.012,289.283 7.278,264.548 7.278,234.083L7.278,68.483C7.278,38.017 32.012,13.283 62.478,13.283L228.078,13.283C258.544,13.283 283.278,38.017 283.278,68.483Z" style="fill:rgb(127,204,231);"/>
        <path d="M283.278,68.483L283.278,234.083C283.278,264.548 258.544,289.283 228.078,289.283L62.478,289.283C32.012,289.283 7.278,264.548 7.278,234.083L7.278,68.483C7.278,38.017 32.012,13.283 62.478,13.283L228.078,13.283C258.544,13.283 283.278,38.017 283.278,68.483ZM264.878,68.482C264.878,48.172 248.388,31.683 228.078,31.683L62.478,31.683C42.167,31.683 25.678,48.172 25.678,68.483L25.678,234.083C25.678,254.393 42.167,270.883 62.478,270.883L228.078,270.883C248.388,270.883 264.878,254.393 264.878,234.083L264.878,68.482Z" style="fill-opacity:0.2;"/>
    </g>
    <g transform="matrix(0.640625,0,0,0.640625,12,12)">
        <g transform="matrix(1,0,0,1,-16,-16)">
            <g transform="matrix(0.125,0,0,0.125,0,0)">
                <path d="M149.66,45.66L85.66,109.66C84.16,111.162 82.122,112.006 80,112.006C77.878,112.006 75.84,111.162 74.34,109.66L58.34,93.66C56.838,92.16 55.994,90.122 55.994,88C55.994,85.878 56.838,83.84 58.34,82.34L122.34,18.34C123.84,16.838 125.878,15.994 128,15.994C130.122,15.994 132.16,16.838 133.66,18.34L149.66,34.34C151.162,35.84 152.006,37.878 152.006,40C152.006,42.122 151.162,44.16 149.66,45.66ZM237.66,122.34L221.66,106.34C220.16,104.838 218.122,103.994 216,103.994C213.878,103.994 211.84,104.838 210.34,106.34L146.34,170.34C144.838,171.84 143.994,173.878 143.994,176C143.994,178.122 144.838,180.16 146.34,181.66L162.34,197.66C163.84,199.162 165.878,200.006 168,200.006C170.122,200.006 172.16,199.162 173.66,197.66L237.66,133.66C239.162,132.16 240.006,130.122 240.006,128C240.006,125.878 239.162,123.84 237.66,122.34Z" style="fill-opacity:0.2;fill-rule:nonzero;"/>
            </g>
            <g transform="matrix(0.125,0,0,0.125,0,0)">
                <path d="M243.32,116.69L227.32,100.69C221.736,95.113 212.818,94.458 206.48,99.16L156.84,49.52C161.545,43.184 160.894,34.266 155.32,28.68L139.32,12.68C136.32,9.68 132.247,7.992 128.005,7.992C123.763,7.992 119.69,9.68 116.69,12.68L52.69,76.68C49.69,79.68 48.002,83.753 48.002,87.995C48.002,92.237 49.69,96.31 52.69,99.31L68.69,115.31C74.275,120.879 83.186,121.529 89.52,116.83L96.69,124L31.31,189.38C27.098,193.987 24.76,200.008 24.76,206.25C24.76,219.964 36.046,231.25 49.76,231.25C56.002,231.25 62.023,228.912 66.63,224.7L132,159.32L139.17,166.48C134.465,172.816 135.116,181.734 140.69,187.32L156.69,203.32C159.69,206.32 163.763,208.008 168.005,208.008C172.247,208.008 176.32,206.32 179.32,203.32L243.32,139.32C246.32,136.32 248.008,132.247 248.008,128.005C248.008,123.763 246.32,119.69 243.32,116.69ZM80,104L64,88L128,24L144,40L80,104ZM55.32,213.38C51.833,216.846 46.117,216.846 42.63,213.38C39.17,209.894 39.17,204.186 42.63,200.7L108,135.32L120.69,148L55.32,213.38ZM101,105.66L145.66,61L195,110.34L150.35,155L101,105.66ZM168,192L152,176L216,112L232,128L168,192Z" style="fill-rule:nonzero;"/>
            </g>
        </g>
    </g>
</svg>
