<?xml version="1.0" encoding="UTF-8" standalone="no"?>
<!DOCTYPE svg PUBLIC "-//W3C//DTD SVG 1.1//EN" "http://www.w3.org/Graphics/SVG/1.1/DTD/svg11.dtd">
<svg width="100%" height="100%" viewBox="0 0 24 24" version="1.1" xmlns="http://www.w3.org/2000/svg" xmlns:xlink="http://www.w3.org/1999/xlink" xml:space="preserve" xmlns:serif="http://www.serif.com/" style="fill-rule:evenodd;clip-rule:evenodd;stroke-linejoin:round;stroke-miterlimit:2;">
    <g transform="matrix(0.0869565,0,0,0.0869565,-0.63285,-1.155)">
        <path d="M283.278,68.483L283.278,234.083C283.278,264.548 258.544,289.283 228.078,289.283L62.478,289.283C32.012,289.283 7.278,264.548 7.278,234.083L7.278,68.483C7.278,38.017 32.012,13.283 62.478,13.283L228.078,13.283C258.544,13.283 283.278,38.017 283.278,68.483Z" style="fill:rgb(127,204,231);"/>
        <path d="M283.278,68.483L283.278,234.083C283.278,264.548 258.544,289.283 228.078,289.283L62.478,289.283C32.012,289.283 7.278,264.548 7.278,234.083L7.278,68.483C7.278,38.017 32.012,13.283 62.478,13.283L228.078,13.283C258.544,13.283 283.278,38.017 283.278,68.483ZM264.878,68.482C264.878,48.172 248.388,31.683 228.078,31.683L62.478,31.683C42.167,31.683 25.678,48.172 25.678,68.483L25.678,234.083C25.678,254.393 42.167,270.883 62.478,270.883L228.078,270.883C248.388,270.883 264.878,254.393 264.878,234.083L264.878,68.482Z" style="fill-opacity:0.2;"/>
    </g>
    <g transform="matrix(0.608239,0,0,0.608239,12,12)">
        <g transform="matrix(1,0,0,1,-16,-16)">
            <g transform="matrix(0.125,0,0,0.125,0,0)">
                <path d="M232,96L24,96L128,32L232,96Z" style="fill-opacity:0.2;fill-rule:nonzero;"/>
            </g>
            <g transform="matrix(0.125,0,0,0.125,0,0)">
                <path d="M24,104L48,104L48,168L32,168C27.611,168 24,171.611 24,176C24,180.389 27.611,184 32,184L224,184C228.389,184 232,180.389 232,176C232,171.611 228.389,168 224,168L208,168L208,104L232,104C236.386,103.996 239.992,100.386 239.992,96C239.992,93.227 238.55,90.645 236.19,89.19L132.19,25.19C129.624,23.612 126.376,23.612 123.81,25.19L19.81,89.19C17.45,90.645 16.008,93.227 16.008,96C16.008,100.386 19.614,103.996 24,104ZM64,104L96,104L96,168L64,168L64,104ZM144,104L144,168L112,168L112,104L144,104ZM192,168L160,168L160,104L192,104L192,168ZM128,41.39L203.74,88L52.26,88L128,41.39ZM248,208C248,212.389 244.389,216 240,216L16,216C11.611,216 8,212.389 8,208C8,203.611 11.611,200 16,200L240,200C244.389,200 248,203.611 248,208Z" style="fill-rule:nonzero;"/>
            </g>
        </g>
    </g>
</svg>
