<?xml version="1.0" encoding="UTF-8" standalone="no"?>
<!DOCTYPE svg PUBLIC "-//W3C//DTD SVG 1.1//EN" "http://www.w3.org/Graphics/SVG/1.1/DTD/svg11.dtd">
<svg width="100%" height="100%" viewBox="0 0 24 24" version="1.1" xmlns="http://www.w3.org/2000/svg" xmlns:xlink="http://www.w3.org/1999/xlink" xml:space="preserve" xmlns:serif="http://www.serif.com/" style="fill-rule:evenodd;clip-rule:evenodd;stroke-linejoin:round;stroke-miterlimit:2;">
    <g transform="matrix(0.0869565,0,0,0.0869565,-0.63285,-1.155)">
        <path d="M283.278,68.483L283.278,234.083C283.278,264.548 258.544,289.283 228.078,289.283L62.478,289.283C32.012,289.283 7.278,264.548 7.278,234.083L7.278,68.483C7.278,38.017 32.012,13.283 62.478,13.283L228.078,13.283C258.544,13.283 283.278,38.017 283.278,68.483Z" style="fill:rgb(152,227,137);"/>
        <path d="M283.278,68.483L283.278,234.083C283.278,264.548 258.544,289.283 228.078,289.283L62.478,289.283C32.012,289.283 7.278,264.548 7.278,234.083L7.278,68.483C7.278,38.017 32.012,13.283 62.478,13.283L228.078,13.283C258.544,13.283 283.278,38.017 283.278,68.483ZM264.878,68.482C264.878,48.172 248.388,31.683 228.078,31.683L62.478,31.683C42.167,31.683 25.678,48.172 25.678,68.483L25.678,234.083C25.678,254.393 42.167,270.883 62.478,270.883L228.078,270.883C248.388,270.883 264.878,254.393 264.878,234.083L264.878,68.482Z" style="fill-opacity:0.2;"/>
    </g>
    <g transform="matrix(0.64,0,0,0.64,12,12)">
        <g transform="matrix(1,0,0,1,-16,-16)">
            <g transform="matrix(0.125,0,0,0.125,0,0)">
                <path d="M202.43,151.85C181.17,180.02 140.34,200.09 64.08,191.85C55.89,115.64 76,74.82 104.15,53.57C106.982,106.361 149.639,149.018 202.43,151.85Z" style="fill-opacity:0.2;fill-rule:nonzero;"/>
            </g>
            <g transform="matrix(0.125,0,0,0.125,0,0)">
                <path d="M168,76C168,82.583 162.583,88 156,88C149.417,88 144,82.583 144,76C144,69.417 149.417,64 156,64C162.583,64 168,69.417 168,76ZM210,155.08C194.92,175.92 172.47,189.96 143.3,196.82C123.22,201.54 99.76,202.82 73.18,200.75C74.78,212.63 77.02,225.143 79.9,238.29C80.835,242.574 78.083,246.869 73.8,247.81C73.235,247.937 72.659,248.001 72.08,248C68.336,247.998 65.07,245.367 64.27,241.71C61.01,226.803 58.54,212.597 56.86,199.09C43.38,197.417 29.187,194.947 14.28,191.68C10.623,190.877 7.994,187.609 7.994,183.865C7.994,179.476 11.606,175.864 15.995,175.864C16.572,175.864 17.147,175.926 17.71,176.05C30.843,178.93 43.343,181.173 55.21,182.78C53.12,156.22 54.43,132.78 59.14,112.72C66,83.55 80.05,61.1 100.88,46C115,35.76 140.12,23.64 179.27,24C200.46,24.21 220.1,28.33 223.08,30.08C224.248,30.768 225.222,31.742 225.91,32.91C227.66,35.91 231.78,55.5 231.99,76.69C232.21,98.31 228.57,129.44 210,155.08ZM186.24,157.88C141.822,149.067 106.923,114.16 98.12,69.74C75.64,94 66.7,132.47 71.36,184.6C123.51,189.28 162,180.35 186.25,157.88L186.24,157.88ZM212.44,43.56C199.539,40.925 186.384,39.747 173.22,40.05C148.88,40.69 128.51,46.54 112.46,57.44C116.941,102.821 153.17,139.053 198.55,143.54C209.46,127.54 215.31,107.12 215.95,82.78C216.252,69.617 215.075,56.461 212.44,43.56Z" style="fill-rule:nonzero;"/>
            </g>
        </g>
    </g>
</svg>
