<?xml version="1.0" encoding="UTF-8" standalone="no"?>
<!DOCTYPE svg PUBLIC "-//W3C//DTD SVG 1.1//EN" "http://www.w3.org/Graphics/SVG/1.1/DTD/svg11.dtd">
<svg width="100%" height="100%" viewBox="0 0 24 24" version="1.1" xmlns="http://www.w3.org/2000/svg" xmlns:xlink="http://www.w3.org/1999/xlink" xml:space="preserve" xmlns:serif="http://www.serif.com/" style="fill-rule:evenodd;clip-rule:evenodd;stroke-linejoin:round;stroke-miterlimit:2;">
    <g transform="matrix(0.0869565,0,0,0.0869565,-0.63285,-1.155)">
        <path d="M283.278,68.483L283.278,234.083C283.278,264.548 258.544,289.283 228.078,289.283L62.478,289.283C32.012,289.283 7.278,264.548 7.278,234.083L7.278,68.483C7.278,38.017 32.012,13.283 62.478,13.283L228.078,13.283C258.544,13.283 283.278,38.017 283.278,68.483Z" style="fill:rgb(152,227,137);"/>
        <path d="M283.278,68.483L283.278,234.083C283.278,264.548 258.544,289.283 228.078,289.283L62.478,289.283C32.012,289.283 7.278,264.548 7.278,234.083L7.278,68.483C7.278,38.017 32.012,13.283 62.478,13.283L228.078,13.283C258.544,13.283 283.278,38.017 283.278,68.483ZM264.878,68.482C264.878,48.172 248.388,31.683 228.078,31.683L62.478,31.683C42.167,31.683 25.678,48.172 25.678,68.483L25.678,234.083C25.678,254.393 42.167,270.883 62.478,270.883L228.078,270.883C248.388,270.883 264.878,254.393 264.878,234.083L264.878,68.482Z" style="fill-opacity:0.2;"/>
    </g>
    <g transform="matrix(0.64,0,0,0.64,12,12)">
        <g transform="matrix(1,0,0,1,-16,-16)">
            <g transform="matrix(0.125,0,0,0.125,0,0)">
                <path d="M232,127.82C232.09,161.76 203.59,191.12 169.66,191.98C154.556,192.401 139.784,187.437 128,177.98C116.219,187.436 101.451,192.4 86.35,191.98C52.42,191.12 23.91,161.76 24,127.82C24.074,101.81 39.997,78.321 64.13,68.62C73.907,41.861 99.511,23.957 128,23.957C156.489,23.957 182.093,41.861 191.87,68.62C216.003,78.321 231.926,101.81 232,127.82Z" style="fill-opacity:0.2;fill-rule:nonzero;"/>
            </g>
            <g transform="matrix(0.125,0,0,0.125,0,0)">
                <path d="M198.1,62.59C186.291,34.394 158.57,15.95 128,15.95C97.43,15.95 69.709,34.394 57.9,62.59C32.422,74.235 16.004,99.787 16,127.8C15.9,166 48,199 86.14,200C97.87,200.278 109.493,197.693 120,192.47L120,232C120,236.389 123.611,240 128,240C132.389,240 136,236.389 136,232L136,192.47C145.945,197.408 156.897,199.985 168,200L169.82,200C208,199 240.11,166 240,127.8C239.996,99.787 223.578,74.235 198.1,62.59ZM169.45,184C157.522,184.311 145.8,180.806 136,174L136,133L179.58,111.22C182.288,109.866 184.005,107.087 184.005,104.06C184.005,99.669 180.391,96.055 176,96.055C174.757,96.055 173.532,96.344 172.42,96.9L136,115.06L136,88C136,83.611 132.389,80 128,80C123.611,80 120,83.611 120,88L120,139.06L83.58,120.84C82.468,120.284 81.243,119.995 80,119.995C75.609,119.995 71.995,123.609 71.995,128C71.995,131.027 73.712,133.806 76.42,135.16L120,156.94L120,173.94C110.202,180.752 98.479,184.256 86.55,183.94C56.9,183.23 31.92,157.52 32,127.84C31.99,105.051 45.944,84.447 67.11,76C69.212,75.156 70.86,73.457 71.64,71.33C80.264,47.713 102.858,31.91 128,31.91C153.142,31.91 175.736,47.713 184.36,71.33C185.14,73.457 186.788,75.156 188.89,76C210.056,84.447 224.01,105.051 224,127.84C224.08,157.52 199.1,183.23 169.45,184Z" style="fill-rule:nonzero;"/>
            </g>
        </g>
    </g>
</svg>
