<?xml version="1.0" encoding="UTF-8" standalone="no"?>
<!DOCTYPE svg PUBLIC "-//W3C//DTD SVG 1.1//EN" "http://www.w3.org/Graphics/SVG/1.1/DTD/svg11.dtd">
<svg width="100%" height="100%" viewBox="0 0 24 24" version="1.1" xmlns="http://www.w3.org/2000/svg" xmlns:xlink="http://www.w3.org/1999/xlink" xml:space="preserve" xmlns:serif="http://www.serif.com/" style="fill-rule:evenodd;clip-rule:evenodd;stroke-linejoin:round;stroke-miterlimit:2;">
    <g transform="matrix(0.0869565,0,0,0.0869565,-0.63285,-1.155)">
        <path d="M283.278,68.483L283.278,234.083C283.278,264.548 258.544,289.283 228.078,289.283L62.478,289.283C32.012,289.283 7.278,264.548 7.278,234.083L7.278,68.483C7.278,38.017 32.012,13.283 62.478,13.283L228.078,13.283C258.544,13.283 283.278,38.017 283.278,68.483Z" style="fill:rgb(152,227,137);"/>
        <path d="M283.278,68.483L283.278,234.083C283.278,264.548 258.544,289.283 228.078,289.283L62.478,289.283C32.012,289.283 7.278,264.548 7.278,234.083L7.278,68.483C7.278,38.017 32.012,13.283 62.478,13.283L228.078,13.283C258.544,13.283 283.278,38.017 283.278,68.483ZM264.878,68.482C264.878,48.172 248.388,31.683 228.078,31.683L62.478,31.683C42.167,31.683 25.678,48.172 25.678,68.483L25.678,234.083C25.678,254.393 42.167,270.883 62.478,270.883L228.078,270.883C248.388,270.883 264.878,254.393 264.878,234.083L264.878,68.482Z" style="fill-opacity:0.2;"/>
    </g>
    <g transform="matrix(0.64,0,0,0.64,12,12)">
        <g transform="matrix(1,0,0,1,-16,-16)">
            <g transform="matrix(0.125,0,0,0.125,0,0)">
                <path d="M208,96C208,139.887 171.887,176 128,176C84.113,176 48,139.887 48,96C48,52.113 84.113,16 128,16C171.887,16 208,52.113 208,96Z" style="fill-opacity:0.2;fill-rule:nonzero;"/>
            </g>
            <g transform="matrix(0.125,0,0,0.125,0,0)">
                <path d="M176,100C176,106.583 170.583,112 164,112C157.417,112 152,106.583 152,100C152,93.417 157.417,88 164,88C170.583,88 176,93.417 176,100ZM132,120C125.417,120 120,125.417 120,132C120,138.583 125.417,144 132,144C138.583,144 144,138.583 144,132C144,125.417 138.583,120 132,120ZM216,96C216,144.275 176.275,184 128,184C79.725,184 40,144.275 40,96C40,47.725 79.725,8 128,8C176.255,8.055 215.945,47.745 216,96ZM200,96C200,56.502 167.498,24 128,24C88.502,24 56,56.502 56,96C56,135.498 88.502,168 128,168C167.481,167.956 199.956,135.481 200,96ZM165.14,192.53C152,197.56 139.85,200 128,200C116.15,200 104,197.56 90.86,192.53C89.91,192.147 88.894,191.95 87.87,191.95C83.481,191.95 79.87,195.561 79.87,199.95C79.87,203.308 81.984,206.324 85.14,207.47C96.309,211.854 108.048,214.618 120,215.68L120,248C120,252.389 123.611,256 128,256C132.389,256 136,252.389 136,248L136,215.68C147.952,214.618 159.691,211.854 170.86,207.47C174.016,206.324 176.13,203.308 176.13,199.95C176.13,195.561 172.519,191.95 168.13,191.95C167.106,191.95 166.09,192.147 165.14,192.53Z" style="fill-rule:nonzero;"/>
            </g>
        </g>
    </g>
</svg>
