<?xml version="1.0" encoding="UTF-8" standalone="no"?>
<!DOCTYPE svg PUBLIC "-//W3C//DTD SVG 1.1//EN" "http://www.w3.org/Graphics/SVG/1.1/DTD/svg11.dtd">
<svg width="100%" height="100%" viewBox="0 0 24 24" version="1.1" xmlns="http://www.w3.org/2000/svg" xmlns:xlink="http://www.w3.org/1999/xlink" xml:space="preserve" xmlns:serif="http://www.serif.com/" style="fill-rule:evenodd;clip-rule:evenodd;stroke-linejoin:round;stroke-miterlimit:2;">
    <g transform="matrix(0.0869565,0,0,0.0869565,-0.63285,-1.155)">
        <path d="M283.278,68.483L283.278,234.083C283.278,264.548 258.544,289.283 228.078,289.283L62.478,289.283C32.012,289.283 7.278,264.548 7.278,234.083L7.278,68.483C7.278,38.017 32.012,13.283 62.478,13.283L228.078,13.283C258.544,13.283 283.278,38.017 283.278,68.483Z" style="fill:rgb(255,237,150);"/>
        <path d="M283.278,68.483L283.278,234.083C283.278,264.548 258.544,289.283 228.078,289.283L62.478,289.283C32.012,289.283 7.278,264.548 7.278,234.083L7.278,68.483C7.278,38.017 32.012,13.283 62.478,13.283L228.078,13.283C258.544,13.283 283.278,38.017 283.278,68.483ZM264.878,68.482C264.878,48.172 248.388,31.683 228.078,31.683L62.478,31.683C42.167,31.683 25.678,48.172 25.678,68.483L25.678,234.083C25.678,254.393 42.167,270.883 62.478,270.883L228.078,270.883C248.388,270.883 264.878,254.393 264.878,234.083L264.878,68.482Z" style="fill-opacity:0.2;"/>
    </g>
    <g transform="matrix(0.64,0,0,0.64,12,12)">
        <g transform="matrix(1,0,0,1,-16,-16)">
            <g transform="matrix(0.125,0,0,0.125,0,0)">
                <path d="M240,176L210.4,213C208.884,214.894 206.586,215.998 204.16,216L51.84,216C49.414,215.998 47.116,214.894 45.6,213L16,176L240,176ZM136,8L32,136L136,136L136,8Z" style="fill-opacity:0.2;fill-rule:nonzero;"/>
            </g>
            <g transform="matrix(0.125,0,0,0.125,0,0)">
                <path d="M247.21,172.53C245.879,169.765 243.069,167.999 240,168L144,168L144,144L216,144C220.388,144 223.999,140.388 223.999,136C223.999,134.011 223.258,132.092 221.92,130.62L144,44.91L144,8C143.976,3.628 140.372,0.043 136,0.043C133.592,0.043 131.308,1.131 129.79,3L25.79,131C24.654,132.419 24.035,134.183 24.035,136C24.035,140.376 27.625,143.981 32,144L128,144L128,168L16,168C15.998,168 15.997,168 15.995,168C11.606,168 7.995,171.611 7.995,176C7.995,177.817 8.614,179.581 9.75,181L39.35,218C42.378,221.798 46.983,224.01 51.84,224L204.16,224C209.017,224.01 213.622,221.798 216.65,218L246.25,181C248.17,178.6 248.544,175.298 247.21,172.53ZM197.92,128L144,128L144,68.69L197.92,128ZM48.81,128L128,30.53L128,128L48.81,128ZM204.16,208L51.84,208L32.64,184L223.36,184L204.16,208Z" style="fill-rule:nonzero;"/>
            </g>
        </g>
    </g>
</svg>
