<?xml version="1.0" encoding="UTF-8" standalone="no"?>
<!DOCTYPE svg PUBLIC "-//W3C//DTD SVG 1.1//EN" "http://www.w3.org/Graphics/SVG/1.1/DTD/svg11.dtd">
<svg width="100%" height="100%" viewBox="0 0 24 24" version="1.1" xmlns="http://www.w3.org/2000/svg" xmlns:xlink="http://www.w3.org/1999/xlink" xml:space="preserve" xmlns:serif="http://www.serif.com/" style="fill-rule:evenodd;clip-rule:evenodd;stroke-linejoin:round;stroke-miterlimit:2;">
    <g transform="matrix(0.0869565,0,0,0.0869565,-0.63285,-1.155)">
        <path d="M283.278,68.483L283.278,234.083C283.278,264.548 258.544,289.283 228.078,289.283L62.478,289.283C32.012,289.283 7.278,264.548 7.278,234.083L7.278,68.483C7.278,38.017 32.012,13.283 62.478,13.283L228.078,13.283C258.544,13.283 283.278,38.017 283.278,68.483Z" style="fill:rgb(127,204,231);"/>
        <path d="M283.278,68.483L283.278,234.083C283.278,264.548 258.544,289.283 228.078,289.283L62.478,289.283C32.012,289.283 7.278,264.548 7.278,234.083L7.278,68.483C7.278,38.017 32.012,13.283 62.478,13.283L228.078,13.283C258.544,13.283 283.278,38.017 283.278,68.483ZM264.878,68.482C264.878,48.172 248.388,31.683 228.078,31.683L62.478,31.683C42.167,31.683 25.678,48.172 25.678,68.483L25.678,234.083C25.678,254.393 42.167,270.883 62.478,270.883L228.078,270.883C248.388,270.883 264.878,254.393 264.878,234.083L264.878,68.482Z" style="fill-opacity:0.2;"/>
    </g>
    <g transform="matrix(0.640625,0,0,0.640625,12,12)">
        <g transform="matrix(1,0,0,1,-16,-16)">
            <g transform="matrix(0.125,0,0,0.125,0,0)">
                <path d="M206.35,136.29C197.48,131.16 181.89,128.91 166.95,128C181.89,127.09 197.48,124.84 206.35,119.71C216.43,114.054 222.692,103.361 222.692,91.803C222.692,74.248 208.247,59.803 190.692,59.803C184.941,59.803 179.295,61.353 174.35,64.29C165.48,69.41 155.74,81.77 147.48,94.29C154.17,80.87 160,66.25 160,56C160,38.445 145.555,24 128,24C110.445,24 96,38.445 96,56C96,66.25 101.83,80.87 108.52,94.26C100.26,81.77 90.52,69.41 81.65,64.26C76.705,61.323 71.059,59.773 65.308,59.773C47.753,59.773 33.308,74.218 33.308,91.773C33.308,103.331 39.57,114.024 49.65,119.68C58.52,124.81 74.11,127.06 89.05,127.97C74.11,128.88 58.52,131.13 49.65,136.26C39.57,141.916 33.308,152.609 33.308,164.167C33.308,181.722 47.753,196.167 65.308,196.167C71.059,196.167 76.705,194.617 81.65,191.68C90.52,186.56 100.26,174.2 108.52,161.68C101.83,175.13 96,189.75 96,200C96,217.555 110.445,232 128,232C145.555,232 160,217.555 160,200C160,189.75 154.17,175.13 147.48,161.74C155.74,174.23 165.48,186.59 174.35,191.74C179.295,194.677 184.941,196.227 190.692,196.227C208.247,196.227 222.692,181.782 222.692,164.227C222.692,152.669 216.43,141.976 206.35,136.32L206.35,136.29ZM155.71,144C150,153.886 139.416,159.995 128,159.995C110.445,159.995 96,145.55 96,127.995C96,110.44 110.445,95.995 128,95.995C145.555,95.995 160,110.44 160,127.995C160,127.997 160,127.998 160,128C160.011,133.619 158.531,139.141 155.71,144Z" style="fill-opacity:0.2;fill-rule:nonzero;"/>
            </g>
            <g transform="matrix(0.125,0,0,0.125,0,0)">
                <path d="M210.35,129.36C209.54,128.89 208.65,128.44 207.73,128C208.65,127.56 209.54,127.11 210.35,126.64C222.839,119.539 230.58,106.234 230.58,91.867C230.58,69.924 212.523,51.867 190.58,51.867C183.469,51.867 176.485,53.764 170.35,57.36C169.54,57.83 168.7,58.36 167.87,58.95C167.95,57.95 168,56.95 168,55.95C168,34.007 149.943,15.95 128,15.95C106.057,15.95 88,34.007 88,55.95C88,56.89 88,57.89 88.13,58.95C87.3,58.38 86.46,57.83 85.65,57.36C79.515,53.764 72.531,51.867 65.42,51.867C43.477,51.867 25.42,69.924 25.42,91.867C25.42,106.234 33.161,119.539 45.65,126.64C46.46,127.11 47.35,127.56 48.27,128C47.35,128.44 46.46,128.89 45.65,129.36C33.161,136.461 25.42,149.766 25.42,164.133C25.42,186.076 43.477,204.133 65.42,204.133C72.531,204.133 79.515,202.236 85.65,198.64C86.46,198.17 87.3,197.64 88.13,197.05C88.05,198.05 88,199.05 88,200C88,221.943 106.057,240 128,240C149.943,240 168,221.943 168,200C168,199.06 167.95,198.06 167.87,197.05C168.7,197.62 169.54,198.17 170.35,198.64C176.409,202.15 183.288,203.999 190.29,204C193.809,203.995 197.312,203.531 200.71,202.62C218.141,197.948 230.355,182.03 230.355,163.984C230.355,149.709 222.713,136.476 210.35,129.34L210.35,129.36ZM104,128C104,114.834 114.834,104 128,104C141.166,104 152,114.834 152,128C152,141.166 141.166,152 128,152C114.834,152 104,141.166 104,128ZM178.35,71.21C181.998,69.104 186.137,67.995 190.35,67.995C203.516,67.995 214.35,78.829 214.35,91.995C214.35,100.559 209.767,108.498 202.35,112.78C196.08,116.41 183.74,118.91 167.19,119.97C165.444,111.505 161.001,103.829 154.53,98.1C163.73,84.28 172.08,74.84 178.35,71.21ZM128,32C141.166,32 152,42.834 152,56C152,63.24 148,75.19 140.64,90.06C132.439,87.314 123.561,87.314 115.36,90.06C108,75.19 104,63.24 104,56C104,42.834 114.834,32 128,32ZM44.86,80C49.141,72.58 57.082,67.994 65.648,67.994C69.862,67.994 74.001,69.103 77.65,71.21C83.92,74.84 92.27,84.28 101.47,98.1C94.993,103.837 90.55,111.524 88.81,120C72.26,118.94 59.92,116.44 53.65,112.82C46.223,108.541 41.631,100.596 41.631,92.024C41.631,87.802 42.745,83.654 44.86,80ZM77.65,184.79C74.002,186.896 69.863,188.005 65.65,188.005C52.484,188.005 41.65,177.171 41.65,164.005C41.65,155.441 46.233,147.502 53.65,143.22C59.92,139.59 72.26,137.09 88.81,136.03C90.556,144.495 94.999,152.171 101.47,157.9C92.27,171.72 83.92,181.16 77.65,184.79ZM128,224C114.834,224 104,213.166 104,200C104,192.76 108,180.81 115.36,165.94C123.561,168.686 132.439,168.686 140.64,165.94C148,180.81 152,192.76 152,200C152,213.166 141.166,224 128,224ZM211.14,176C206.859,183.42 198.918,188.006 190.352,188.006C186.138,188.006 181.999,186.897 178.35,184.79C172.08,181.16 163.73,171.72 154.53,157.9C161.007,152.163 165.45,144.476 167.19,136C183.74,137.06 196.08,139.56 202.35,143.18C209.777,147.459 214.369,155.404 214.369,163.976C214.369,168.198 213.255,172.346 211.14,176Z" style="fill-rule:nonzero;"/>
            </g>
        </g>
    </g>
</svg>
