<?xml version="1.0" encoding="UTF-8" standalone="no"?>
<!DOCTYPE svg PUBLIC "-//W3C//DTD SVG 1.1//EN" "http://www.w3.org/Graphics/SVG/1.1/DTD/svg11.dtd">
<svg width="100%" height="100%" viewBox="0 0 24 24" version="1.1" xmlns="http://www.w3.org/2000/svg" xmlns:xlink="http://www.w3.org/1999/xlink" xml:space="preserve" xmlns:serif="http://www.serif.com/" style="fill-rule:evenodd;clip-rule:evenodd;stroke-linejoin:round;stroke-miterlimit:2;">
    <g transform="matrix(0.0869565,0,0,0.0869565,-0.63285,-1.155)">
        <path d="M283.278,68.483L283.278,234.083C283.278,264.548 258.544,289.283 228.078,289.283L62.478,289.283C32.012,289.283 7.278,264.548 7.278,234.083L7.278,68.483C7.278,38.017 32.012,13.283 62.478,13.283L228.078,13.283C258.544,13.283 283.278,38.017 283.278,68.483Z" style="fill:rgb(127,204,231);"/>
        <path d="M283.278,68.483L283.278,234.083C283.278,264.548 258.544,289.283 228.078,289.283L62.478,289.283C32.012,289.283 7.278,264.548 7.278,234.083L7.278,68.483C7.278,38.017 32.012,13.283 62.478,13.283L228.078,13.283C258.544,13.283 283.278,38.017 283.278,68.483ZM264.878,68.482C264.878,48.172 248.388,31.683 228.078,31.683L62.478,31.683C42.167,31.683 25.678,48.172 25.678,68.483L25.678,234.083C25.678,254.393 42.167,270.883 62.478,270.883L228.078,270.883C248.388,270.883 264.878,254.393 264.878,234.083L264.878,68.482Z" style="fill-opacity:0.2;"/>
    </g>
    <g transform="matrix(0.64,0,0,0.64,12,12)">
        <g transform="matrix(1,0,0,1,-16,-16)">
            <g transform="matrix(0.125,0,0,0.125,0,0)">
                <path d="M141.66,201L129,213.66C127.5,215.162 125.462,216.006 123.34,216.006C121.218,216.006 119.18,215.162 117.68,213.66L92,188L58.35,221.66C56.85,223.162 54.812,224.006 52.69,224.006C50.568,224.006 48.53,223.162 47.03,221.66L34.34,209C31.239,205.897 31.239,200.793 34.34,197.69L68,164L42.34,138.36C40.838,136.86 39.994,134.822 39.994,132.7C39.994,130.578 40.838,128.54 42.34,127.04L55,114.34C56.5,112.838 58.538,111.994 60.66,111.994C62.782,111.994 64.82,112.838 66.32,114.34L141.62,189.64C143.146,191.143 144.006,193.198 144.006,195.34C144.006,197.462 143.162,199.5 141.66,201Z" style="fill-opacity:0.2;fill-rule:nonzero;"/>
            </g>
            <g transform="matrix(0.125,0,0,0.125,0,0)">
                <path d="M216,32L152,32C149.519,32 147.174,33.154 145.66,35.12L81.66,118.33L72,108.69C69,105.687 64.925,103.997 60.68,103.997C56.435,103.997 52.36,105.687 49.36,108.69L36.67,121.39C33.67,124.39 31.982,128.463 31.982,132.705C31.982,136.947 33.67,141.02 36.67,144.02L56.67,164.02L28.67,192.02C25.67,195.02 23.982,199.093 23.982,203.335C23.982,207.577 25.67,211.65 28.67,214.65L41.36,227.33C47.566,233.532 57.774,233.532 63.98,227.33L91.98,199.33L111.98,219.33C114.98,222.333 119.055,224.023 123.3,224.023C127.545,224.023 131.62,222.333 134.62,219.33L147.31,206.63C150.31,203.63 151.998,199.557 151.998,195.315C151.998,191.073 150.31,187 147.31,184L137.67,174.36L220.88,110.36C222.852,108.842 224.006,106.488 224,104L224,40C224,35.611 220.389,32 216,32ZM52.69,216L40,203.32L68,175.32L80.68,188L52.69,216ZM123.3,208L48,132.71L60.7,120L136,195.31L123.3,208ZM208,100.06L126.26,162.94L115.32,152L165.66,101.66C167.158,100.16 168.001,98.125 168.001,96.005C168.001,91.616 164.389,88.004 160,88.004C157.878,88.004 155.84,88.849 154.34,90.35L104,140.68L93.07,129.74L155.94,48L208,48L208,100.06Z" style="fill-rule:nonzero;"/>
            </g>
        </g>
    </g>
</svg>
