<?xml version="1.0" encoding="UTF-8" standalone="no"?>
<!DOCTYPE svg PUBLIC "-//W3C//DTD SVG 1.1//EN" "http://www.w3.org/Graphics/SVG/1.1/DTD/svg11.dtd">
<svg width="100%" height="100%" viewBox="0 0 24 24" version="1.1" xmlns="http://www.w3.org/2000/svg" xmlns:xlink="http://www.w3.org/1999/xlink" xml:space="preserve" xmlns:serif="http://www.serif.com/" style="fill-rule:evenodd;clip-rule:evenodd;stroke-linejoin:round;stroke-miterlimit:2;">
    <g transform="matrix(0.0869565,0,0,0.0869565,-0.63285,-1.155)">
        <path d="M283.278,68.483L283.278,234.083C283.278,264.548 258.544,289.283 228.078,289.283L62.478,289.283C32.012,289.283 7.278,264.548 7.278,234.083L7.278,68.483C7.278,38.017 32.012,13.283 62.478,13.283L228.078,13.283C258.544,13.283 283.278,38.017 283.278,68.483Z" style="fill:rgb(163,147,230);"/>
        <path d="M283.278,68.483L283.278,234.083C283.278,264.548 258.544,289.283 228.078,289.283L62.478,289.283C32.012,289.283 7.278,264.548 7.278,234.083L7.278,68.483C7.278,38.017 32.012,13.283 62.478,13.283L228.078,13.283C258.544,13.283 283.278,38.017 283.278,68.483ZM264.878,68.482C264.878,48.172 248.388,31.683 228.078,31.683L62.478,31.683C42.167,31.683 25.678,48.172 25.678,68.483L25.678,234.083C25.678,254.393 42.167,270.883 62.478,270.883L228.078,270.883C248.388,270.883 264.878,254.393 264.878,234.083L264.878,68.482Z" style="fill-opacity:0.2;"/>
    </g>
    <g transform="matrix(0.640625,0,0,0.640625,12,12)">
        <g transform="matrix(1,0,0,1,-16,-16)">
            <clipPath id="_clip1">
                <rect x="0" y="0" width="32" height="32"/>
            </clipPath>
            <g clip-path="url(#_clip1)">
                <g transform="matrix(0.125,0,0,0.125,0,0)">
                    <path d="M152,206.4C139.623,212.71 125.925,216 112.032,216C63.757,216 24.032,176.275 24.032,128C24.032,79.725 63.757,40 112.032,40C125.925,40 139.623,43.29 152,49.6C122.569,64.604 103.968,94.966 103.968,128C103.968,161.034 122.569,191.396 152,206.4ZM217.06,114.65L214.39,80L192.59,106.4L160,98.33L177.46,128L160,157.67L192.59,149.6L214.39,176L217.06,141.35L248,128L217.06,114.65Z" style="fill-opacity:0.2;fill-rule:nonzero;"/>
                </g>
                <g transform="matrix(0.125,0,0,0.125,0,0)">
                    <path d="M155.64,199.28C128.877,185.643 111.96,158.037 111.96,128C111.96,97.963 128.877,70.357 155.64,56.72C158.313,55.355 160.002,52.596 160.002,49.595C160.002,46.594 158.313,43.835 155.64,42.47C142.14,35.543 127.174,31.952 112,32C59.336,32 16,75.336 16,128C16,180.664 59.336,224 112,224C127.174,224.048 142.14,220.457 155.64,213.53C158.313,212.165 160.002,209.406 160.002,206.405C160.002,203.404 158.313,200.645 155.64,199.28ZM112,208C68.166,207.924 32.138,171.835 32.138,128C32.138,84.113 68.251,48 112.138,48C119.67,48 127.165,49.064 134.4,51.16C110.244,69.293 96,97.795 96,128C96,158.205 110.244,186.707 134.4,204.84C127.121,206.951 119.579,208.015 112,208ZM251.17,120.65L224.67,109.22L222.36,79.38C222.034,75.241 218.537,72.009 214.385,72.009C212.002,72.009 209.739,73.074 208.22,74.91L189.63,97.42L161.92,90.57C161.294,90.416 160.652,90.338 160.008,90.338C155.619,90.338 152.008,93.949 152.008,98.338C152.008,99.763 152.389,101.162 153.11,102.39L168.18,128L153.11,153.61C152.389,154.838 152.008,156.237 152.008,157.662C152.008,162.051 155.619,165.662 160.008,165.662C160.652,165.662 161.294,165.584 161.92,165.43L189.63,158.58L208.22,181.09C209.739,182.926 212.002,183.991 214.385,183.991C218.537,183.991 222.034,180.759 222.36,176.62L224.67,146.78L251.17,135.35C254.102,134.09 256.011,131.191 256.011,128C256.011,124.809 254.102,121.91 251.17,120.65ZM213.89,134C211.169,135.177 209.317,137.774 209.09,140.73L207.94,155.62L198.76,144.51C197.242,142.669 194.976,141.601 192.59,141.6C191.943,141.602 191.299,141.68 190.67,141.83L176.55,145.33L184.36,132.06C185.834,129.558 185.834,126.442 184.36,123.94L176.55,110.67L190.67,114.17C193.653,114.906 196.806,113.861 198.76,111.49L207.94,100.38L209.09,115.27C209.317,118.226 211.169,120.823 213.89,122L227.81,128L213.89,134Z" style="fill-rule:nonzero;"/>
                </g>
            </g>
        </g>
    </g>
</svg>
