<?xml version="1.0" encoding="UTF-8" standalone="no"?>
<!DOCTYPE svg PUBLIC "-//W3C//DTD SVG 1.1//EN" "http://www.w3.org/Graphics/SVG/1.1/DTD/svg11.dtd">
<svg width="100%" height="100%" viewBox="0 0 24 24" version="1.1" xmlns="http://www.w3.org/2000/svg" xmlns:xlink="http://www.w3.org/1999/xlink" xml:space="preserve" xmlns:serif="http://www.serif.com/" style="fill-rule:evenodd;clip-rule:evenodd;stroke-linejoin:round;stroke-miterlimit:2;">
    <g transform="matrix(0.0869565,0,0,0.0869565,-0.63285,-1.155)">
        <path d="M283.278,68.483L283.278,234.083C283.278,264.548 258.544,289.283 228.078,289.283L62.478,289.283C32.012,289.283 7.278,264.548 7.278,234.083L7.278,68.483C7.278,38.017 32.012,13.283 62.478,13.283L228.078,13.283C258.544,13.283 283.278,38.017 283.278,68.483Z" style="fill:rgb(152,227,137);"/>
        <path d="M283.278,68.483L283.278,234.083C283.278,264.548 258.544,289.283 228.078,289.283L62.478,289.283C32.012,289.283 7.278,264.548 7.278,234.083L7.278,68.483C7.278,38.017 32.012,13.283 62.478,13.283L228.078,13.283C258.544,13.283 283.278,38.017 283.278,68.483ZM264.878,68.482C264.878,48.172 248.388,31.683 228.078,31.683L62.478,31.683C42.167,31.683 25.678,48.172 25.678,68.483L25.678,234.083C25.678,254.393 42.167,270.883 62.478,270.883L228.078,270.883C248.388,270.883 264.878,254.393 264.878,234.083L264.878,68.482Z" style="fill-opacity:0.2;"/>
    </g>
    <g transform="matrix(0.64,0,0,0.64,12,12)">
        <g transform="matrix(1,0,0,1,-16,-16)">
            <g transform="matrix(0.125,0,0,0.125,0,0)">
                <path d="M215.8,119.6L146.54,189.66C145.041,191.157 143.008,191.999 140.89,192L64.2,192L64.2,115.31C64.201,113.192 65.043,111.159 66.54,109.66L112.2,64.52L112.2,144L136.2,120L215.8,119.6Z" style="fill-opacity:0.2;fill-rule:nonzero;"/>
            </g>
            <g transform="matrix(0.125,0,0,0.125,0,0)">
                <path d="M221.28,34.75C196.456,9.937 155.614,9.937 130.79,34.75L60.69,104C57.681,106.992 55.991,111.067 56,115.31L56,188.69L26.34,218.34C24.839,219.841 23.996,221.878 23.996,224C23.996,228.391 27.609,232.004 32,232.004C34.122,232.004 36.159,231.161 37.66,229.66L67.32,200L140.7,200C144.938,200.007 149.008,198.321 152,195.32L221.23,125.32C233.261,113.318 240.03,97.004 240.03,80.01C240.03,63.04 233.281,46.748 221.28,34.75ZM142.07,46.06C151.069,37.057 163.289,31.994 176.019,31.994C202.351,31.994 224.019,53.662 224.019,79.994C224.019,91.8 219.663,103.201 211.79,112L155.33,112L189.68,77.66C191.181,76.159 192.024,74.122 192.024,72C192.024,67.609 188.411,63.996 184.02,63.996C181.898,63.996 179.861,64.839 178.36,66.34L120,124.69L120,67.87L142.07,46.06ZM72,115.35L104,83.68L104,140.68L72,172.68L72,115.35ZM140.7,184L83.32,184L139.32,128L196.06,128L140.7,184Z" style="fill-rule:nonzero;"/>
            </g>
        </g>
    </g>
</svg>
