<?xml version="1.0" encoding="UTF-8" standalone="no"?>
<!DOCTYPE svg PUBLIC "-//W3C//DTD SVG 1.1//EN" "http://www.w3.org/Graphics/SVG/1.1/DTD/svg11.dtd">
<svg width="100%" height="100%" viewBox="0 0 24 24" version="1.1" xmlns="http://www.w3.org/2000/svg" xmlns:xlink="http://www.w3.org/1999/xlink" xml:space="preserve" xmlns:serif="http://www.serif.com/" style="fill-rule:evenodd;clip-rule:evenodd;stroke-linejoin:round;stroke-miterlimit:2;">
    <g transform="matrix(0.0869565,0,0,0.0869565,-0.63285,-1.155)">
        <path d="M283.278,68.483L283.278,234.083C283.278,264.548 258.544,289.283 228.078,289.283L62.478,289.283C32.012,289.283 7.278,264.548 7.278,234.083L7.278,68.483C7.278,38.017 32.012,13.283 62.478,13.283L228.078,13.283C258.544,13.283 283.278,38.017 283.278,68.483Z" style="fill:rgb(152,227,137);"/>
        <path d="M283.278,68.483L283.278,234.083C283.278,264.548 258.544,289.283 228.078,289.283L62.478,289.283C32.012,289.283 7.278,264.548 7.278,234.083L7.278,68.483C7.278,38.017 32.012,13.283 62.478,13.283L228.078,13.283C258.544,13.283 283.278,38.017 283.278,68.483ZM264.878,68.482C264.878,48.172 248.388,31.683 228.078,31.683L62.478,31.683C42.167,31.683 25.678,48.172 25.678,68.483L25.678,234.083C25.678,254.393 42.167,270.883 62.478,270.883L228.078,270.883C248.388,270.883 264.878,254.393 264.878,234.083L264.878,68.482Z" style="fill-opacity:0.2;"/>
    </g>
    <g transform="matrix(0.64,0,0,0.64,12,12)">
        <g transform="matrix(1,0,0,1,-16,-16)">
            <g transform="matrix(0.125,0,0,0.125,0,0)">
                <path d="M169.23,66C143.814,80.081 127.992,106.944 128,136C128.008,106.944 112.186,80.081 86.77,66C100,38 128,24 128,24C128,24 156,38 169.23,66Z" style="fill-opacity:0.2;fill-rule:nonzero;"/>
            </g>
            <g transform="matrix(0.125,0,0,0.125,0,0)">
                <path d="M208,48C195.825,47.989 183.781,50.52 172.64,55.43C157.54,30.06 132.72,17.43 131.58,16.84C129.328,15.713 126.672,15.713 124.42,16.84C123.28,17.42 98.42,30.06 83.36,55.43C72.219,50.52 60.175,47.989 48,48C43.611,48 40,51.611 40,56L40,96C40.054,141.244 74.949,179.466 120,183.63L120,219.06L83.58,200.84C82.468,200.284 81.243,199.995 80,199.995C75.609,199.995 71.995,203.609 71.995,208C71.995,211.027 73.712,213.806 76.42,215.16L124.42,239.16C126.672,240.287 129.328,240.287 131.58,239.16L179.58,215.16C182.288,213.806 184.005,211.027 184.005,208C184.005,203.609 180.391,199.995 176,199.995C174.757,199.995 173.532,200.284 172.42,200.84L136,219.06L136,183.63C181.051,179.466 215.946,141.244 216,96L216,56C216,51.611 212.389,48 208,48ZM128,33.21C134.65,37.29 149.08,47.4 158.64,63.21C145.33,72.248 134.735,84.749 128,99.36C121.271,84.74 110.675,72.232 97.36,63.19C106.93,47.4 121.35,37.29 128,33.21ZM56,96L56,64.44C92.244,68.538 119.958,99.525 120,136L120,167.56C83.756,163.462 56.042,132.475 56,96ZM200,96C199.958,132.475 172.244,163.462 136,167.56L136,136C136.042,99.525 163.756,68.538 200,64.44L200,96Z" style="fill-rule:nonzero;"/>
            </g>
        </g>
    </g>
</svg>
