<?xml version="1.0" encoding="UTF-8" standalone="no"?>
<!DOCTYPE svg PUBLIC "-//W3C//DTD SVG 1.1//EN" "http://www.w3.org/Graphics/SVG/1.1/DTD/svg11.dtd">
<svg width="100%" height="100%" viewBox="0 0 24 24" version="1.1" xmlns="http://www.w3.org/2000/svg" xmlns:xlink="http://www.w3.org/1999/xlink" xml:space="preserve" xmlns:serif="http://www.serif.com/" style="fill-rule:evenodd;clip-rule:evenodd;stroke-linejoin:round;stroke-miterlimit:2;">
    <g transform="matrix(0.0869565,0,0,0.0869565,-0.63285,-1.155)">
        <path d="M283.278,68.483L283.278,234.083C283.278,264.548 258.544,289.283 228.078,289.283L62.478,289.283C32.012,289.283 7.278,264.548 7.278,234.083L7.278,68.483C7.278,38.017 32.012,13.283 62.478,13.283L228.078,13.283C258.544,13.283 283.278,38.017 283.278,68.483Z" style="fill:rgb(152,227,137);"/>
        <path d="M283.278,68.483L283.278,234.083C283.278,264.548 258.544,289.283 228.078,289.283L62.478,289.283C32.012,289.283 7.278,264.548 7.278,234.083L7.278,68.483C7.278,38.017 32.012,13.283 62.478,13.283L228.078,13.283C258.544,13.283 283.278,38.017 283.278,68.483ZM264.878,68.482C264.878,48.172 248.388,31.683 228.078,31.683L62.478,31.683C42.167,31.683 25.678,48.172 25.678,68.483L25.678,234.083C25.678,254.393 42.167,270.883 62.478,270.883L228.078,270.883C248.388,270.883 264.878,254.393 264.878,234.083L264.878,68.482Z" style="fill-opacity:0.2;"/>
    </g>
    <g transform="matrix(0.64,0,0,0.64,12,12)">
        <g transform="matrix(1,0,0,1,-16,-16)">
            <g transform="matrix(0.125,0,0,0.125,0,0)">
                <path d="M224,160L160,160L192,32L224,160Z" style="fill-opacity:0.2;fill-rule:nonzero;"/>
            </g>
            <g transform="matrix(0.125,0,0,0.125,0,0)">
                <path d="M232,192L200,192L200,168L224,168C228.388,167.999 231.999,164.388 231.999,160C231.999,159.346 231.919,158.694 231.76,158.06L199.76,30.06C198.871,26.513 195.657,24.005 192,24.005C188.343,24.005 185.129,26.513 184.24,30.06L152.24,158.06C152.081,158.694 152.001,159.346 152.001,160C152.001,164.388 155.612,167.999 160,168L184,168L184,192L120,192L120,176L128,176C132.389,176 136,172.389 136,168C136,163.611 132.389,160 128,160L120,160L120,144L128,144C132.389,144 136,140.389 136,136C136,131.611 132.389,128 128,128L40,128C35.611,128 32,131.611 32,136C32,140.389 35.611,144 40,144L48,144L48,160L40,160C35.611,160 32,163.611 32,168C32,172.389 35.611,176 40,176L48,176L48,192L24,192C19.611,192 16,195.611 16,200C16,204.389 19.611,208 24,208L232,208C236.389,208 240,204.389 240,200C240,195.611 236.389,192 232,192ZM192,65L213.75,152L170.25,152L192,65ZM64,144L104,144L104,160L64,160L64,144ZM64,176L104,176L104,192L64,192L64,176ZM116,96C131.36,96 144,83.36 144,68C144,52.64 131.36,40 116,40C100.64,40 88,52.64 88,68C88,83.36 100.64,96 116,96ZM116,56C122.583,56 128,61.417 128,68C128,74.583 122.583,80 116,80C109.417,80 104,74.583 104,68C104,61.417 109.417,56 116,56Z" style="fill-rule:nonzero;"/>
            </g>
        </g>
    </g>
</svg>
