<?xml version="1.0" encoding="UTF-8" standalone="no"?>
<!DOCTYPE svg PUBLIC "-//W3C//DTD SVG 1.1//EN" "http://www.w3.org/Graphics/SVG/1.1/DTD/svg11.dtd">
<svg width="100%" height="100%" viewBox="0 0 24 24" version="1.1" xmlns="http://www.w3.org/2000/svg" xmlns:xlink="http://www.w3.org/1999/xlink" xml:space="preserve" xmlns:serif="http://www.serif.com/" style="fill-rule:evenodd;clip-rule:evenodd;stroke-linejoin:round;stroke-miterlimit:2;">
    <g transform="matrix(0.0869565,0,0,0.0869565,-0.63285,-1.155)">
        <path d="M283.278,68.483L283.278,234.083C283.278,264.548 258.544,289.283 228.078,289.283L62.478,289.283C32.012,289.283 7.278,264.548 7.278,234.083L7.278,68.483C7.278,38.017 32.012,13.283 62.478,13.283L228.078,13.283C258.544,13.283 283.278,38.017 283.278,68.483Z" style="fill:rgb(152,227,137);"/>
        <path d="M283.278,68.483L283.278,234.083C283.278,264.548 258.544,289.283 228.078,289.283L62.478,289.283C32.012,289.283 7.278,264.548 7.278,234.083L7.278,68.483C7.278,38.017 32.012,13.283 62.478,13.283L228.078,13.283C258.544,13.283 283.278,38.017 283.278,68.483ZM264.878,68.482C264.878,48.172 248.388,31.683 228.078,31.683L62.478,31.683C42.167,31.683 25.678,48.172 25.678,68.483L25.678,234.083C25.678,254.393 42.167,270.883 62.478,270.883L228.078,270.883C248.388,270.883 264.878,254.393 264.878,234.083L264.878,68.482Z" style="fill-opacity:0.2;"/>
    </g>
    <g transform="matrix(0.64,0,0,0.64,12,12)">
        <g transform="matrix(1,0,0,1,-16,-16)">
            <g transform="matrix(0.125,0,0,0.125,0,0)">
                <path d="M224,192L32,192L96,64L160,64L224,192Z" style="fill-opacity:0.2;fill-rule:nonzero;"/>
            </g>
            <g transform="matrix(0.125,0,0,0.125,0,0)">
                <path d="M248,128L200.94,128L172.94,72L192,72C196.389,72 200,68.389 200,64C200,59.611 196.389,56 192,56L64,56C59.611,56 56,59.611 56,64C56,68.389 59.611,72 64,72L83.06,72L55.06,128L8,128C3.611,128 -0,131.611 0,136C0,140.389 3.611,144 8,144L47.06,144L24.84,188.42C22.88,192.345 24.496,197.188 28.42,199.15C29.53,199.711 30.756,200.002 32,200C35.03,200.006 37.814,198.29 39.17,195.58L64.94,144L191.06,144L216.84,195.58C218.194,198.287 220.973,200.002 224,200C225.24,200.001 226.463,199.71 227.57,199.15C231.494,197.188 233.11,192.345 231.15,188.42L208.94,144L248,144C252.389,144 256,140.389 256,136C256,131.611 252.389,128 248,128ZM72.94,128L100.94,72L155.06,72L183.06,128L72.94,128Z" style="fill-rule:nonzero;"/>
            </g>
        </g>
    </g>
</svg>
