<?xml version="1.0" encoding="UTF-8" standalone="no"?>
<!DOCTYPE svg PUBLIC "-//W3C//DTD SVG 1.1//EN" "http://www.w3.org/Graphics/SVG/1.1/DTD/svg11.dtd">
<svg width="100%" height="100%" viewBox="0 0 24 24" version="1.1" xmlns="http://www.w3.org/2000/svg" xmlns:xlink="http://www.w3.org/1999/xlink" xml:space="preserve" xmlns:serif="http://www.serif.com/" style="fill-rule:evenodd;clip-rule:evenodd;stroke-linejoin:round;stroke-miterlimit:2;">
    <g transform="matrix(0.0869565,0,0,0.0869565,-0.63285,-1.155)">
        <path d="M283.278,68.483L283.278,234.083C283.278,264.548 258.544,289.283 228.078,289.283L62.478,289.283C32.012,289.283 7.278,264.548 7.278,234.083L7.278,68.483C7.278,38.017 32.012,13.283 62.478,13.283L228.078,13.283C258.544,13.283 283.278,38.017 283.278,68.483Z" style="fill:rgb(127,204,231);"/>
        <path d="M283.278,68.483L283.278,234.083C283.278,264.548 258.544,289.283 228.078,289.283L62.478,289.283C32.012,289.283 7.278,264.548 7.278,234.083L7.278,68.483C7.278,38.017 32.012,13.283 62.478,13.283L228.078,13.283C258.544,13.283 283.278,38.017 283.278,68.483ZM264.878,68.482C264.878,48.172 248.388,31.683 228.078,31.683L62.478,31.683C42.167,31.683 25.678,48.172 25.678,68.483L25.678,234.083C25.678,254.393 42.167,270.883 62.478,270.883L228.078,270.883C248.388,270.883 264.878,254.393 264.878,234.083L264.878,68.482Z" style="fill-opacity:0.2;"/>
    </g>
    <g transform="matrix(0.860125,0,0,0.860125,1.6785,1.6785)">
        <g transform="matrix(0.0846054,0,0,0.0846054,1.17051,1.17051)">
            <path d="M96,64L96,192C96,196.389 92.389,200 88,200L64,200C59.611,200 56,196.389 56,192L56,64C56,59.611 59.611,56 64,56L88,56C92.389,56 96,59.611 96,64ZM192,56L168,56C163.611,56 160,59.611 160,64L160,192C160,196.389 163.611,200 168,200L192,200C196.389,200 200,196.389 200,192L200,64C200,59.611 196.389,56 192,56Z" style="fill-opacity:0.2;fill-rule:nonzero;"/>
        </g>
        <g transform="matrix(0.0846054,0,0,0.0846054,1.17051,1.17051)">
            <path d="M248,120L240,120L240,88C240,79.223 232.777,72 224,72L208,72L208,64C208,55.223 200.777,48 192,48L168,48C159.223,48 152,55.223 152,64L152,120L104,120L104,64C104,55.223 96.777,48 88,48L64,48C55.223,48 48,55.223 48,64L48,72L32,72C23.223,72 16,79.223 16,88L16,120L8,120C3.611,120 -0,123.611 0,128C0,132.389 3.611,136 8,136L16,136L16,168C16,176.777 23.223,184 32,184L48,184L48,192C48,200.777 55.223,208 64,208L88,208C96.777,208 104,200.777 104,192L104,136L152,136L152,192C152,200.777 159.223,208 168,208L192,208C200.777,208 208,200.777 208,192L208,184L224,184C232.777,184 240,176.777 240,168L240,136L248,136C252.389,136 256,132.389 256,128C256,123.611 252.389,120 248,120ZM32,168L32,88L48,88L48,168L32,168ZM88,192L64,192L64,64L88,64L88,192ZM192,192L168,192L168,64L192,64L192,192ZM224,168L208,168L208,88L224,88L224,168Z" style="fill-rule:nonzero;"/>
        </g>
    </g>
</svg>
