<?xml version="1.0" encoding="UTF-8" standalone="no"?>
<!DOCTYPE svg PUBLIC "-//W3C//DTD SVG 1.1//EN" "http://www.w3.org/Graphics/SVG/1.1/DTD/svg11.dtd">
<svg width="100%" height="100%" viewBox="0 0 24 24" version="1.1" xmlns="http://www.w3.org/2000/svg" xmlns:xlink="http://www.w3.org/1999/xlink" xml:space="preserve" xmlns:serif="http://www.serif.com/" style="fill-rule:evenodd;clip-rule:evenodd;stroke-linejoin:round;stroke-miterlimit:2;">
    <g transform="matrix(0.0869565,0,0,0.0869565,-0.63285,-1.155)">
        <path d="M283.278,68.483L283.278,234.083C283.278,264.548 258.544,289.283 228.078,289.283L62.478,289.283C32.012,289.283 7.278,264.548 7.278,234.083L7.278,68.483C7.278,38.017 32.012,13.283 62.478,13.283L228.078,13.283C258.544,13.283 283.278,38.017 283.278,68.483Z" style="fill:rgb(127,204,231);"/>
        <path d="M283.278,68.483L283.278,234.083C283.278,264.548 258.544,289.283 228.078,289.283L62.478,289.283C32.012,289.283 7.278,264.548 7.278,234.083L7.278,68.483C7.278,38.017 32.012,13.283 62.478,13.283L228.078,13.283C258.544,13.283 283.278,38.017 283.278,68.483ZM264.878,68.482C264.878,48.172 248.388,31.683 228.078,31.683L62.478,31.683C42.167,31.683 25.678,48.172 25.678,68.483L25.678,234.083C25.678,254.393 42.167,270.883 62.478,270.883L228.078,270.883C248.388,270.883 264.878,254.393 264.878,234.083L264.878,68.482Z" style="fill-opacity:0.2;"/>
    </g>
    <g transform="matrix(0.640625,0,0,0.640625,12,12)">
        <g transform="matrix(1,0,0,1,-16,-16)">
            <g transform="matrix(0.125,0,0,0.125,0,0)">
                <path d="M132.14,108.12L189.59,165.58C147.85,178.63 119.12,134.49 80,136L118.94,97.05C123.663,100.337 128.081,104.042 132.14,108.12ZM176,48C162.834,48 152,58.834 152,72C152,85.166 162.834,96 176,96C189.166,96 200,85.166 200,72C200,58.834 189.166,48 176,48Z" style="fill-opacity:0.2;fill-rule:nonzero;"/>
            </g>
            <g transform="matrix(0.125,0,0,0.125,0,0)">
                <path d="M176,104C193.555,104 208,89.555 208,72C208,54.445 193.555,40 176,40C158.445,40 144,54.445 144,72C144,89.555 158.445,104 176,104ZM176,56C184.777,56 192,63.223 192,72C192,80.777 184.777,88 176,88C167.223,88 160,80.777 160,72C160,63.223 167.223,56 176,56ZM222.16,185.24C224.971,188.604 224.519,193.684 221.16,196.5C203.8,210.89 188.3,216 174.16,216C155.58,216 139.34,207.18 124.23,199C98.88,185.24 76.99,173.35 45.16,199.74C43.717,200.957 41.889,201.625 40.002,201.625C35.613,201.625 32.002,198.013 32.002,193.625C32.002,191.225 33.082,188.948 34.94,187.43C75.11,154.14 105.26,170.5 131.87,184.94C157.22,198.71 179.11,210.59 210.94,184.2C214.309,181.425 219.358,181.894 222.16,185.24ZM34.89,147.42C33.032,148.938 31.952,151.215 31.952,153.615C31.952,158.003 35.563,161.615 39.952,161.615C41.839,161.615 43.667,160.947 45.11,159.73C76.94,133.35 98.83,145.23 124.18,158.99C139.29,167.19 155.53,175.99 174.11,175.99C188.25,175.99 203.75,170.88 221.11,156.49C222.968,154.972 224.048,152.695 224.048,150.295C224.048,145.907 220.437,142.295 216.048,142.295C214.161,142.295 212.333,142.963 210.89,144.18C205.106,149.147 198.607,153.213 191.61,156.24L137.77,102.42C118.311,82.879 91.817,71.919 64.24,72L40,72C35.611,72 32,75.611 32,80C32,84.389 35.611,88 40,88L64.24,88C78.861,87.972 93.26,91.603 106.12,98.56L76.49,128.17C63.82,129.35 50.07,134.84 34.89,147.42ZM126.46,113.75L172.59,159.87C158.59,159.44 145.71,152.48 131.82,144.94C121.07,139.1 109.73,132.94 97.4,129.89L119.66,107.63C122.032,109.55 124.302,111.592 126.46,113.75Z" style="fill-rule:nonzero;"/>
            </g>
        </g>
    </g>
</svg>
