<?xml version="1.0" encoding="UTF-8" standalone="no"?>
<!DOCTYPE svg PUBLIC "-//W3C//DTD SVG 1.1//EN" "http://www.w3.org/Graphics/SVG/1.1/DTD/svg11.dtd">
<svg width="100%" height="100%" viewBox="0 0 24 24" version="1.1" xmlns="http://www.w3.org/2000/svg" xmlns:xlink="http://www.w3.org/1999/xlink" xml:space="preserve" xmlns:serif="http://www.serif.com/" style="fill-rule:evenodd;clip-rule:evenodd;stroke-linejoin:round;stroke-miterlimit:2;">
    <g transform="matrix(0.0869565,0,0,0.0869565,-0.63285,-1.155)">
        <path d="M283.278,68.483L283.278,234.083C283.278,264.548 258.544,289.283 228.078,289.283L62.478,289.283C32.012,289.283 7.278,264.548 7.278,234.083L7.278,68.483C7.278,38.017 32.012,13.283 62.478,13.283L228.078,13.283C258.544,13.283 283.278,38.017 283.278,68.483Z" style="fill:rgb(163,147,230);"/>
        <path d="M283.278,68.483L283.278,234.083C283.278,264.548 258.544,289.283 228.078,289.283L62.478,289.283C32.012,289.283 7.278,264.548 7.278,234.083L7.278,68.483C7.278,38.017 32.012,13.283 62.478,13.283L228.078,13.283C258.544,13.283 283.278,38.017 283.278,68.483ZM264.878,68.482C264.878,48.172 248.388,31.683 228.078,31.683L62.478,31.683C42.167,31.683 25.678,48.172 25.678,68.483L25.678,234.083C25.678,254.393 42.167,270.883 62.478,270.883L228.078,270.883C248.388,270.883 264.878,254.393 264.878,234.083L264.878,68.482Z" style="fill-opacity:0.2;"/>
    </g>
    <g transform="matrix(0.640625,0,0,0.640625,12,12)">
        <g transform="matrix(1,0,0,1,-16,-16)">
            <g transform="matrix(0.125,0,0,0.125,0,0)">
                <path d="M192,128L224,184L160,184L128,240L96,184L32,184L64,128L32,72L96,72L128,16L160,72L224,72L192,128Z" style="fill-opacity:0.2;fill-rule:nonzero;"/>
            </g>
            <g transform="matrix(0.125,0,0,0.125,0,0)">
                <path d="M201.21,128L231,76C231.702,74.784 232.072,73.404 232.072,72C232.072,67.611 228.461,64 224.072,64C224.048,64 224.024,64 224,64L164.65,64L135,12C133.579,9.507 130.92,7.962 128.05,7.962C125.18,7.962 122.521,9.507 121.1,12L91.33,64L32,64C31.993,64 31.985,64 31.978,64C27.59,64 23.978,67.611 23.978,72C23.978,73.404 24.348,74.784 25.05,76L54.77,128L25.05,180C24.348,181.216 23.978,182.596 23.978,184C23.978,188.389 27.589,192 31.978,192C32.002,192 32.026,192 32.05,192L91.33,192L121.05,244C122.471,246.493 125.13,248.038 128,248.038C130.87,248.038 133.529,246.493 134.95,244L164.65,192L224,192C224.024,192 224.048,192 224.072,192C228.461,192 232.072,188.389 232.072,184C232.072,182.596 231.702,181.216 231,180L201.21,128ZM210.21,80L192,111.88L173.79,80L210.21,80ZM182.79,128L155.37,176L100.62,176L73.2,128L100.62,80L155.37,80L182.79,128ZM128,32.12L146.22,64L109.77,64L128,32.12ZM45.78,80L82.19,80L64,111.88L45.78,80ZM45.78,175.92L64,144.12L82.19,176L45.78,175.92ZM128,223.88L109.77,192L146.22,192L128,223.88ZM173.79,176L192,144.12L210.21,176L173.79,176Z" style="fill-rule:nonzero;"/>
            </g>
        </g>
    </g>
</svg>
