<?xml version="1.0" encoding="UTF-8" standalone="no"?>
<!DOCTYPE svg PUBLIC "-//W3C//DTD SVG 1.1//EN" "http://www.w3.org/Graphics/SVG/1.1/DTD/svg11.dtd">
<svg width="100%" height="100%" viewBox="0 0 24 24" version="1.1" xmlns="http://www.w3.org/2000/svg" xmlns:xlink="http://www.w3.org/1999/xlink" xml:space="preserve" xmlns:serif="http://www.serif.com/" style="fill-rule:evenodd;clip-rule:evenodd;stroke-linejoin:round;stroke-miterlimit:2;">
    <g transform="matrix(0.0869565,0,0,0.0869565,-0.63285,-1.155)">
        <path d="M283.278,68.483L283.278,234.083C283.278,264.548 258.544,289.283 228.078,289.283L62.478,289.283C32.012,289.283 7.278,264.548 7.278,234.083L7.278,68.483C7.278,38.017 32.012,13.283 62.478,13.283L228.078,13.283C258.544,13.283 283.278,38.017 283.278,68.483Z" style="fill:rgb(127,204,231);"/>
        <path d="M283.278,68.483L283.278,234.083C283.278,264.548 258.544,289.283 228.078,289.283L62.478,289.283C32.012,289.283 7.278,264.548 7.278,234.083L7.278,68.483C7.278,38.017 32.012,13.283 62.478,13.283L228.078,13.283C258.544,13.283 283.278,38.017 283.278,68.483ZM264.878,68.482C264.878,48.172 248.388,31.683 228.078,31.683L62.478,31.683C42.167,31.683 25.678,48.172 25.678,68.483L25.678,234.083C25.678,254.393 42.167,270.883 62.478,270.883L228.078,270.883C248.388,270.883 264.878,254.393 264.878,234.083L264.878,68.482Z" style="fill-opacity:0.2;"/>
    </g>
    <g transform="matrix(0.64,0,0,0.64,12,12)">
        <g transform="matrix(1,0,0,1,-16,-16)">
            <g transform="matrix(0.125,0,0,0.125,0,0)">
                <path d="M176,40L176,216L136,216L136,160L88,160L88,216L48,216L48,40L176,40Z" style="fill-opacity:0.2;fill-rule:nonzero;"/>
            </g>
            <g transform="matrix(0.125,0,0,0.125,0,0)">
                <path d="M248,208L232,208L232,96C236.389,96 240,92.389 240,88C240,83.611 236.389,80 232,80L184,80L184,48C188.389,48 192,44.389 192,40C192,35.611 188.389,32 184,32L40,32C35.611,32 32,35.611 32,40C32,44.389 35.611,48 40,48L40,208L24,208C19.611,208 16,211.611 16,216C16,220.389 19.611,224 24,224L248,224C252.389,224 256,220.389 256,216C256,211.611 252.389,208 248,208ZM216,96L216,208L184,208L184,96L216,96ZM56,48L168,48L168,208L144,208L144,160C144,155.611 140.389,152 136,152L88,152C83.611,152 80,155.611 80,160L80,208L56,208L56,48ZM128,208L96,208L96,168L128,168L128,208ZM72,80C72,75.611 75.611,72 80,72L96,72C100.389,72 104,75.611 104,80C104,84.389 100.389,88 96,88L80,88C75.611,88 72,84.389 72,80ZM120,80C120,75.611 123.611,72 128,72L144,72C148.389,72 152,75.611 152,80C152,84.389 148.389,88 144,88L128,88C123.611,88 120,84.389 120,80ZM72,120C72,115.611 75.611,112 80,112L96,112C100.389,112 104,115.611 104,120C104,124.389 100.389,128 96,128L80,128C75.611,128 72,124.389 72,120ZM120,120C120,115.611 123.611,112 128,112L144,112C148.389,112 152,115.611 152,120C152,124.389 148.389,128 144,128L128,128C123.611,128 120,124.389 120,120Z" style="fill-rule:nonzero;"/>
            </g>
        </g>
    </g>
</svg>
